<mxfile host="app.diagrams.net" agent="Mozilla/5.0 (X11; Linux x86_64) AppleWebKit/537.36 (KHTML, like Gecko) Chrome/131.0.0.0 Safari/537.36 Edg/131.0.0.0" version="26.0.6">
  <diagram name="Page-1" id="5szGzfPaZF1iBgUoJCNf">
    <mxGraphModel dx="5328" dy="3416" grid="1" gridSize="10" guides="1" tooltips="1" connect="1" arrows="1" fold="1" page="1" pageScale="1" pageWidth="1654" pageHeight="1169" math="0" shadow="0">
      <root>
        <mxCell id="0" />
        <mxCell id="1" parent="0" />
        <UserObject label="" plantUmlData="{&#xa;  &quot;data&quot;: &quot;@startuml School Management System\ntitle School Management System - Proposed Use Case Diagram\n\nleft to right direction\nskinparam linetype polyline\n\nactor \&quot;User\&quot; as U\nactor \&quot;User\&quot; as UR\nactor \&quot;Student\&quot; as S\nactor \&quot;Student\&quot; as SR\nactor \&quot;Teacher\&quot; as T\nactor \&quot;Teacher\&quot; as TR\nactor \&quot;Sectional Head\&quot; as SH\nactor \&quot;Sectional Head\&quot; as SHR\nactor \&quot;Principal\&quot; as P\nactor \&quot;Principal\&quot; as PR\nactor \&quot;Administrator\&quot; as A\n\nU &lt;|-- S\nU &lt;|-- T\nT &lt;|-- SH\nSH &lt;|-- P\nP &lt;|-- A\n\nrectangle \&quot;School Management System\&quot; {\n        U -- (Enter the Attendance Daily)\n        (Enter the Attendance Daily) ..&gt; (Verify Using Fingerprint) : &lt;&lt;include&gt;&gt;\n        (Verify Using Fingerprint) ..&gt; (Update User Log) : &lt;&lt;include&gt;&gt;\n\n        U -- (Login)\n        (Login) ..&gt; (Validate User) : &lt;&lt;include&gt;&gt;\n        (Validate User) ..&gt; (Update User Log) : &lt;&lt;include&gt;&gt;\n\n        U -- (View User Profile)\n        (View User Profile) &lt;.. (Update User Profile) : &lt;&lt;extends&gt;&gt;\n        (Update User Profile) ..&gt; (Update User Log) : &lt;&lt;include&gt;&gt;\n\n        U -- (Communication)\n        (Communication) &lt;.. (Send Messages) : &lt;&lt;extends&gt;&gt;\n        (Send Messages) ..&gt; (Update User Log) : &lt;&lt;include&gt;&gt;\n\n        U -- (Logout)\n        (Logout) ..&gt; (Confirm) : &lt;&lt;include&gt;&gt;\n        (Confirm) ..&gt; (Update User Log) : &lt;&lt;include&gt;&gt;\n\n        (Notify Users) -- UR\n\n        S -- (View Educational Information) : \&quot;Show option to create if empty\&quot;\n        (View Educational Information) &lt;.. (Submit Assessments) : &lt;&lt;extends&gt;&gt;\n        (View Educational Information) &lt;.. (View Assessments) : &lt;&lt;extends&gt;&gt;\n\n        (Submit Assessments) ..&gt; (Update Educational Information) : &lt;&lt;include&gt;&gt;\n        (View Assessments) ..&gt; (View Submission Marks) : &lt;&lt;include&gt;&gt;\n\n        S -- (View Exams Information) : \&quot;Show option to create if empty\&quot;\n        (View Exams Information) &lt;.. (View Exams) : &lt;&lt;extends&gt;&gt;\n        (View Exams Information) &lt;.. (View Exam Results) : &lt;&lt;extends&gt;&gt;\n        (View Exam Results) &lt;.. (Apply for Recorrections) : &lt;&lt;extends&gt;&gt;\n        (View Exam Results) &lt;.. (Calculate GPA) : &lt;&lt;extends&gt;&gt;\n\n        (Update Student Information ) -- SR\n        (Update Educational Information ) -- SR\n        (Update Exam Information ) -- SR\n\n        T -- (View Student Information ) : \&quot;Show option to create if empty\&quot;\n        (View Student Information ) &lt;.. (Create Student Information ) : &lt;&lt;extends&gt;&gt;\n        (View Student Information ) &lt;.. (Delete Student Information ) : &lt;&lt;extends&gt;&gt;\n        (View Student Information ) &lt;.. (Generate Student Attendance Reports) : &lt;&lt;extends&gt;&gt;\n        (View Student Information ) &lt;.. (Generate Student Performance Reports) : &lt;&lt;extends&gt;&gt;\n        (View Student Information ) &lt;.. (Generate Enrollment Reports) : &lt;&lt;extends&gt;&gt;\n\n        (Create Student Information ) ..&gt; (Update Student Information ) : &lt;&lt;include&gt;&gt;\n        (Delete Student Information ) ..&gt; (Update Student Information ) : &lt;&lt;include&gt;&gt;\n        (Generate Student Attendance Reports) ..&gt; (Update Student Information ) : &lt;&lt;include&gt;&gt;\n        (Generate Student Performance Reports) ..&gt; (Update Student Information ) : &lt;&lt;include&gt;&gt;\n        (Generate Enrollment Reports) ..&gt; (Update Student Information ): &lt;&lt;include&gt;&gt;\n\n        T -- (View Educational Information ) : \&quot;Show option to create if empty\&quot;\n        (View Educational Information ) &lt;.. (Create Assessments) : &lt;&lt;extends&gt;&gt;\n        (View Educational Information ) &lt;.. (Edit Assessments) : &lt;&lt;extends&gt;&gt;\n        (View Educational Information ) &lt;.. (Delete Assessments) : &lt;&lt;extends&gt;&gt;\n\n        T -- (View Student Submissions) : \&quot;Show option to create if empty\&quot;\n        (View Student Submissions) &lt;.. (Mark Student Submissions) : &lt;&lt;extends&gt;&gt;\n\n        (Create Assessments) ..&gt; (Update Educational Information ): &lt;&lt;include&gt;&gt;\n        (Edit Assessments) ..&gt; (Update Educational Information ): &lt;&lt;include&gt;&gt;\n        (Delete Assessments) ..&gt; (Update Educational Information ): &lt;&lt;include&gt;&gt;\n        (Mark Student Submissions) ..&gt; (Update Educational Information ) : &lt;&lt;include&gt;&gt;\n\n        T -- (View Exam Information ) : \&quot;Show option to create if empty\&quot;\n        (View Exam Information ) &lt;.. (Create Exams) : &lt;&lt;extends&gt;&gt;\n        (View Exam Information ) &lt;.. (Update Exams) : &lt;&lt;extends&gt;&gt;\n        (View Exam Information ) &lt;.. (Delete Exams) : &lt;&lt;extends&gt;&gt;\n        (View Exam Information ) &lt;.. (Edit Exam Results) : &lt;&lt;extends&gt;&gt;\n\n        (Create Exams) ..&gt; (Update Exam Information ) : &lt;&lt;include&gt;&gt;\n        (Update Exams) ..&gt; (Update Exam Information ) : &lt;&lt;include&gt;&gt;\n        (Delete Exams) ..&gt; (Update Exam Information ) : &lt;&lt;include&gt;&gt;\n        (Edit Exam Results) ..&gt; (Update Exam Information ) : &lt;&lt;include&gt;&gt;\n\n        (Update Educational Information) -- TR\n        (Apply for Recorrections) -- TR\n        (Notify Teachers) -- TR\n\n        SH -- (View Staff Information ) : \&quot;Show option to create if empty\&quot;\n        (View Staff Information ) &lt;.. (Add Staff Members) : &lt;&lt;extends&gt;&gt;\n        (View Staff Information ) &lt;.. (Update Staff Members) : &lt;&lt;extends&gt;&gt;\n        (View Staff Information ) &lt;.. (Remove Staff Members) : &lt;&lt;extends&gt;&gt;\n        \n        SH -- (View Sectional Information ) : \&quot;Show option to create if empty\&quot;\n        (View Sectional Information ) &lt;.. (Create Time Tables) : &lt;&lt;extends&gt;&gt;\n        (View Sectional Information ) &lt;.. (Update Time Tables) : &lt;&lt;extends&gt;&gt;\n        (View Sectional Information ) &lt;.. (Delete Time Tables) : &lt;&lt;extends&gt;&gt;\n\n        (Notify Sectional Heads) -- SHR\n\n        (Add Staff Members) ..&gt; (Notify Teachers) : &lt;&lt;include&gt;&gt;\n        (Update Staff Members) ..&gt; (Notify Teachers) : &lt;&lt;include&gt;&gt;\n        (Remove Staff Members) ..&gt; (Notify Teachers) : &lt;&lt;include&gt;&gt;\n        (Create Time Tables) ..&gt; (Notify Teachers): &lt;&lt;include&gt;&gt;\n        (Update Time Tables) ..&gt; (Notify Teachers) : &lt;&lt;include&gt;&gt;\n        (Delete Time Tables) ..&gt; (Notify Teachers) : &lt;&lt;include&gt;&gt;\n\n        P -- (Broadcast Announcements)\n        (Broadcast Announcements) ..&gt; (Select Users) : &lt;&lt;include&gt;&gt;\n\n        (Select Users) &lt;.. (Notify Users) : &lt;&lt;extends&gt;&gt;\n        (Select Users) &lt;.. (Notify Sectional Heads) : &lt;&lt;extends&gt;&gt;\n\n        (Notify Principals) -- PR\n\n        A -- (View User Information ) : \&quot;Show option to create if empty\&quot;\n        (View User Information ) &lt;.. (Add User) : &lt;&lt;extends&gt;&gt;\n        (View User Information ) &lt;.. (Update User) : &lt;&lt;extends&gt;&gt;\n        (View User Information ) &lt;.. (Delete User) : &lt;&lt;extends&gt;&gt;\n\n        (Add User) ..&gt; (Update User Logs) : &lt;&lt;include&gt;&gt;\n        (Update User) ..&gt; (Update User Logs) : &lt;&lt;include&gt;&gt;\n        (Delete User) ..&gt; (Update User Logs) : &lt;&lt;include&gt;&gt;\n\n        A -- (View System Monitor) : \&quot;Show option to create if empty\&quot;\n        (View System Monitor) &lt;.. (Generate User Engagement Reports) : &lt;&lt;extends&gt;&gt;\n        (View System Monitor) &lt;.. (Generate Performance Reports) : &lt;&lt;extends&gt;&gt;\n        (View System Monitor) &lt;.. (Generate System Utilization Reports) : &lt;&lt;extends&gt;&gt;\n        (View System Monitor) &lt;.. (Generate Content Popularity Reports) : &lt;&lt;extends&gt;&gt;\n        (View System Monitor) &lt;.. (Generate Monthly Attendance Reports) : &lt;&lt;extends&gt;&gt;\n\n        (Generate User Engagement Reports) ..&gt; (Notify Principals) : &lt;&lt;include&gt;&gt;\n        (Generate Performance Reports) ..&gt; (Notify Principals) : &lt;&lt;include&gt;&gt;\n        (Generate System Utilization Reports) ..&gt; (Notify Principals) : &lt;&lt;include&gt;&gt;\n        (Generate Content Popularity Reports) ..&gt; (Notify Principals) : &lt;&lt;include&gt;&gt;\n        (Generate Monthly Attendance Reports) ..&gt; (Notify Principals) : &lt;&lt;include&gt;&gt;\n}\n\n@enduml&quot;,&#xa;  &quot;format&quot;: &quot;svg&quot;&#xa;}" id="pLRMixsrzQo779CzFJJX-1">
          <mxCell style="shape=image;noLabel=1;verticalAlign=top;aspect=fixed;imageAspect=0;image=data:image/svg+xml,PD94bWwgdmVyc2lvbj0iMS4wIiBlbmNvZGluZz0idXMtYXNjaWkiIHN0YW5kYWxvbmU9Im5vIj8+PHN2ZyB4bWxucz0iaHR0cDovL3d3dy53My5vcmcvMjAwMC9zdmciIHhtbG5zOnhsaW5rPSJodHRwOi8vd3d3LnczLm9yZy8xOTk5L3hsaW5rIiBjb250ZW50U3R5bGVUeXBlPSJ0ZXh0L2NzcyIgaGVpZ2h0PSIyODU4cHgiIHByZXNlcnZlQXNwZWN0UmF0aW89Im5vbmUiIHN0eWxlPSJ3aWR0aDoyMzY4cHg7aGVpZ2h0OjI4NThweDtiYWNrZ3JvdW5kOiNGRkZGRkY7IiB2ZXJzaW9uPSIxLjEiIHZpZXdCb3g9IjAgMCAyMzY4IDI4NTgiIHdpZHRoPSIyMzY4cHgiIHpvb21BbmRQYW49Im1hZ25pZnkiPjxkZWZzLz48Zz48dGV4dCBmaWxsPSIjMDAwMDAwIiBmb250LWZhbWlseT0ic2Fucy1zZXJpZiIgZm9udC1zaXplPSIxNCIgZm9udC13ZWlnaHQ9ImJvbGQiIGxlbmd0aEFkanVzdD0ic3BhY2luZyIgdGV4dExlbmd0aD0iMzY3IiB4PSI5OTMuNSIgeT0iMjMuMjM0NCI+U2Nob29sIE1hbmFnZW1lbnQgU3lzdGVtIC0gUHJvcG9zZWQgVXNlIENhc2UgRGlhZ3JhbTwvdGV4dD48IS0tY2x1c3RlciBTY2hvb2wgTWFuYWdlbWVudCBTeXN0ZW0tLT48ZyBpZD0iY2x1c3Rlcl9TY2hvb2wgTWFuYWdlbWVudCBTeXN0ZW0iPjxyZWN0IGZpbGw9Im5vbmUiIGhlaWdodD0iMjgxMCIgcng9IjIuNSIgcnk9IjIuNSIgc3R5bGU9InN0cm9rZTojMTgxODE4O3N0cm9rZS13aWR0aDoxLjA7IiB3aWR0aD0iMTA0NSIgeD0iMTE3MSIgeT0iNDIuOTg0NCIvPjx0ZXh0IGZpbGw9IiMwMDAwMDAiIGZvbnQtZmFtaWx5PSJzYW5zLXNlcmlmIiBmb250LXNpemU9IjE0IiBmb250LXdlaWdodD0iYm9sZCIgbGVuZ3RoQWRqdXN0PSJzcGFjaW5nIiB0ZXh0TGVuZ3RoPSIxNzAiIHg9IjE2MDguNSIgeT0iNTguMjE4OCI+U2Nob29sIE1hbmFnZW1lbnQgU3lzdGVtPC90ZXh0PjwvZz48ZyBpZD0iZWxlbV9FbnRlciB0aGUgQXR0ZW5kYW5jZSBEYWlseSI+PGVsbGlwc2UgY3g9IjEzMDQuOTgyMyIgY3k9IjI4MTIuNzgwOCIgZmlsbD0iI0YxRjFGMSIgcng9IjEwNi45ODIzIiByeT0iMjMuNzk2NSIgc3R5bGU9InN0cm9rZTojMTgxODE4O3N0cm9rZS13aWR0aDowLjU7Ii8+PHRleHQgZmlsbD0iIzAwMDAwMCIgZm9udC1mYW1pbHk9InNhbnMtc2VyaWYiIGZvbnQtc2l6ZT0iMTQiIGxlbmd0aEFkanVzdD0ic3BhY2luZyIgdGV4dExlbmd0aD0iMTgyIiB4PSIxMjEzLjk4MjMiIHk9IjI4MTYuNTIzIj5FbnRlciB0aGUgQXR0ZW5kYW5jZSBEYWlseTwvdGV4dD48L2c+PGcgaWQ9ImVsZW1fVmVyaWZ5IFVzaW5nIEZpbmdlcnByaW50Ij48ZWxsaXBzZSBjeD0iMTY4Ny40ODUiIGN5PSIyODEzLjk4MTQiIGZpbGw9IiNGMUYxRjEiIHJ4PSIxMDAuNDg1IiByeT0iMjIuNDk3IiBzdHlsZT0ic3Ryb2tlOiMxODE4MTg7c3Ryb2tlLXdpZHRoOjAuNTsiLz48dGV4dCBmaWxsPSIjMDAwMDAwIiBmb250LWZhbWlseT0ic2Fucy1zZXJpZiIgZm9udC1zaXplPSIxNCIgbGVuZ3RoQWRqdXN0PSJzcGFjaW5nIiB0ZXh0TGVuZ3RoPSIxNjgiIHg9IjE2MDMuNDg1IiB5PSIyODE3LjcyMzYiPlZlcmlmeSBVc2luZyBGaW5nZXJwcmludDwvdGV4dD48L2c+PGcgaWQ9ImVsZW1fVXBkYXRlIFVzZXIgTG9nIj48ZWxsaXBzZSBjeD0iMjA3NS45NjYzIiBjeT0iMjY3OC44Nzc2IiBmaWxsPSIjRjFGMUYxIiByeD0iNzIuNDY2MyIgcnk9IjE2Ljg5MzMiIHN0eWxlPSJzdHJva2U6IzE4MTgxODtzdHJva2Utd2lkdGg6MC41OyIvPjx0ZXh0IGZpbGw9IiMwMDAwMDAiIGZvbnQtZmFtaWx5PSJzYW5zLXNlcmlmIiBmb250LXNpemU9IjE0IiBsZW5ndGhBZGp1c3Q9InNwYWNpbmciIHRleHRMZW5ndGg9IjEwNSIgeD0iMjAyMy40NjYzIiB5PSIyNjgyLjYxOTgiPlVwZGF0ZSBVc2VyIExvZzwvdGV4dD48L2c+PGcgaWQ9ImVsZW1fTG9naW4iPjxlbGxpcHNlIGN4PSIxMzA1LjIzNCIgY3k9IjI1MzEuMDc5OSIgZmlsbD0iI0YxRjFGMSIgcng9IjM2LjIzNCIgcnk9IjEzLjU5NTYiIHN0eWxlPSJzdHJva2U6IzE4MTgxODtzdHJva2Utd2lkdGg6MC41OyIvPjx0ZXh0IGZpbGw9IiMwMDAwMDAiIGZvbnQtZmFtaWx5PSJzYW5zLXNlcmlmIiBmb250LXNpemU9IjE0IiBsZW5ndGhBZGp1c3Q9InNwYWNpbmciIHRleHRMZW5ndGg9IjM1IiB4PSIxMjg3LjczNCIgeT0iMjUzNC44MjIxIj5Mb2dpbjwvdGV4dD48L2c+PGcgaWQ9ImVsZW1fVmFsaWRhdGUgVXNlciI+PGVsbGlwc2UgY3g9IjE2ODcuNjgzNCIgY3k9IjI1MzkuMjIxIiBmaWxsPSIjRjFGMUYxIiByeD0iNjYuNjgzNCIgcnk9IjE1LjczNjciIHN0eWxlPSJzdHJva2U6IzE4MTgxODtzdHJva2Utd2lkdGg6MC41OyIvPjx0ZXh0IGZpbGw9IiMwMDAwMDAiIGZvbnQtZmFtaWx5PSJzYW5zLXNlcmlmIiBmb250LXNpemU9IjE0IiBsZW5ndGhBZGp1c3Q9InNwYWNpbmciIHRleHRMZW5ndGg9IjkxIiB4PSIxNjQyLjE4MzQiIHk9IjI1NDIuOTYzMiI+VmFsaWRhdGUgVXNlcjwvdGV4dD48L2c+PGcgaWQ9ImVsZW1fVmlldyBVc2VyIFByb2ZpbGUiPjxlbGxpcHNlIGN4PSIxMzA0Ljg5MDIiIGN5PSIyNjAxLjE2MjQiIGZpbGw9IiNGMUYxRjEiIHJ4PSI3OC44OTAyIiByeT0iMTguMTc4IiBzdHlsZT0ic3Ryb2tlOiMxODE4MTg7c3Ryb2tlLXdpZHRoOjAuNTsiLz48dGV4dCBmaWxsPSIjMDAwMDAwIiBmb250LWZhbWlseT0ic2Fucy1zZXJpZiIgZm9udC1zaXplPSIxNCIgbGVuZ3RoQWRqdXN0PSJzcGFjaW5nIiB0ZXh0TGVuZ3RoPSIxMjAiIHg9IjEyNDQuODkwMiIgeT0iMjYwNC45MDQ2Ij5WaWV3IFVzZXIgUHJvZmlsZTwvdGV4dD48L2c+PGcgaWQ9ImVsZW1fVXBkYXRlIFVzZXIgUHJvZmlsZSI+PGVsbGlwc2UgY3g9IjE2ODcuNjA2MiIgY3k9IjI2MDguODA1NiIgZmlsbD0iI0YxRjFGMSIgcng9Ijg0LjYwNjIiIHJ5PSIxOS4zMjEyIiBzdHlsZT0ic3Ryb2tlOiMxODE4MTg7c3Ryb2tlLXdpZHRoOjAuNTsiLz48dGV4dCBmaWxsPSIjMDAwMDAwIiBmb250LWZhbWlseT0ic2Fucy1zZXJpZiIgZm9udC1zaXplPSIxNCIgbGVuZ3RoQWRqdXN0PSJzcGFjaW5nIiB0ZXh0TGVuZ3RoPSIxMzMiIHg9IjE2MjEuMTA2MiIgeT0iMjYxMi41NDc4Ij5VcGRhdGUgVXNlciBQcm9maWxlPC90ZXh0PjwvZz48ZyBpZD0iZWxlbV9Db21tdW5pY2F0aW9uIj48ZWxsaXBzZSBjeD0iMTMwNC45OTQ3IiBjeT0iMjY3Mi44ODMzIiBmaWxsPSIjRjFGMUYxIiByeD0iNjcuNDk0NyIgcnk9IjE1Ljg5ODkiIHN0eWxlPSJzdHJva2U6IzE4MTgxODtzdHJva2Utd2lkdGg6MC41OyIvPjx0ZXh0IGZpbGw9IiMwMDAwMDAiIGZvbnQtZmFtaWx5PSJzYW5zLXNlcmlmIiBmb250LXNpemU9IjE0IiBsZW5ndGhBZGp1c3Q9InNwYWNpbmciIHRleHRMZW5ndGg9IjkzIiB4PSIxMjU4LjQ5NDciIHk9IjI2NzYuNjI1NSI+Q29tbXVuaWNhdGlvbjwvdGV4dD48L2c+PGcgaWQ9ImVsZW1fU2VuZCBNZXNzYWdlcyI+PGVsbGlwc2UgY3g9IjE2ODcuNjgzNCIgY3k9IjI2NzkuMjIxIiBmaWxsPSIjRjFGMUYxIiByeD0iNjYuNjgzNCIgcnk9IjE1LjczNjciIHN0eWxlPSJzdHJva2U6IzE4MTgxODtzdHJva2Utd2lkdGg6MC41OyIvPjx0ZXh0IGZpbGw9IiMwMDAwMDAiIGZvbnQtZmFtaWx5PSJzYW5zLXNlcmlmIiBmb250LXNpemU9IjE0IiBsZW5ndGhBZGp1c3Q9InNwYWNpbmciIHRleHRMZW5ndGg9IjkxIiB4PSIxNjQyLjE4MzQiIHk9IjI2ODIuOTYzMiI+U2VuZCBNZXNzYWdlczwvdGV4dD48L2c+PGcgaWQ9ImVsZW1fTG9nb3V0Ij48ZWxsaXBzZSBjeD0iMTMwNS4xODM4IiBjeT0iMjc0MC4wNzk5IiBmaWxsPSIjRjFGMUYxIiByeD0iNDEuMTgzOCIgcnk9IjEzLjU5NTYiIHN0eWxlPSJzdHJva2U6IzE4MTgxODtzdHJva2Utd2lkdGg6MC41OyIvPjx0ZXh0IGZpbGw9IiMwMDAwMDAiIGZvbnQtZmFtaWx5PSJzYW5zLXNlcmlmIiBmb250LXNpemU9IjE0IiBsZW5ndGhBZGp1c3Q9InNwYWNpbmciIHRleHRMZW5ndGg9IjQyIiB4PSIxMjg0LjE4MzgiIHk9IjI3NDMuODIyMSI+TG9nb3V0PC90ZXh0PjwvZz48ZyBpZD0iZWxlbV9Db25maXJtIj48ZWxsaXBzZSBjeD0iMTY4Ny4zNDA2IiBjeT0iMjc0My4wNzk5IiBmaWxsPSIjRjFGMUYxIiByeD0iNDYuODQwNiIgcnk9IjEzLjU5NTYiIHN0eWxlPSJzdHJva2U6IzE4MTgxODtzdHJva2Utd2lkdGg6MC41OyIvPjx0ZXh0IGZpbGw9IiMwMDAwMDAiIGZvbnQtZmFtaWx5PSJzYW5zLXNlcmlmIiBmb250LXNpemU9IjE0IiBsZW5ndGhBZGp1c3Q9InNwYWNpbmciIHRleHRMZW5ndGg9IjUwIiB4PSIxNjYyLjM0MDYiIHk9IjI3NDYuODIyMSI+Q29uZmlybTwvdGV4dD48L2c+PGcgaWQ9ImVsZW1fTm90aWZ5IFVzZXJzIj48ZWxsaXBzZSBjeD0iMjA3NS44ODc4IiBjeT0iNzg1LjE2MTkiIGZpbGw9IiNGMUYxRjEiIHJ4PSI2My44ODc4IiByeT0iMTUuMTc3NiIgc3R5bGU9InN0cm9rZTojMTgxODE4O3N0cm9rZS13aWR0aDowLjU7Ii8+PHRleHQgZmlsbD0iIzAwMDAwMCIgZm9udC1mYW1pbHk9InNhbnMtc2VyaWYiIGZvbnQtc2l6ZT0iMTQiIGxlbmd0aEFkanVzdD0ic3BhY2luZyIgdGV4dExlbmd0aD0iODQiIHg9IjIwMzMuODg3OCIgeT0iNzg4LjkwNDEiPk5vdGlmeSBVc2VyczwvdGV4dD48L2c+PGcgaWQ9ImVsZW1fVmlldyBFZHVjYXRpb25hbCBJbmZvcm1hdGlvbiI+PGVsbGlwc2UgY3g9IjEzMDQuOTgyNCIgY3k9IjE2Ni43ODA5IiBmaWxsPSIjRjFGMUYxIiByeD0iMTE0LjQ4MjQiIHJ5PSIyNS4yOTY1IiBzdHlsZT0ic3Ryb2tlOiMxODE4MTg7c3Ryb2tlLXdpZHRoOjAuNTsiLz48dGV4dCBmaWxsPSIjMDAwMDAwIiBmb250LWZhbWlseT0ic2Fucy1zZXJpZiIgZm9udC1zaXplPSIxNCIgbGVuZ3RoQWRqdXN0PSJzcGFjaW5nIiB0ZXh0TGVuZ3RoPSIxOTgiIHg9IjEyMDUuOTgyNCIgeT0iMTcwLjUyMyI+VmlldyBFZHVjYXRpb25hbCBJbmZvcm1hdGlvbjwvdGV4dD48L2c+PGcgaWQ9ImVsZW1fU3VibWl0IEFzc2Vzc21lbnRzIj48ZWxsaXBzZSBjeD0iMTY4Ny4zOTM1IiBjeT0iOTQuODYzMSIgZmlsbD0iI0YxRjFGMSIgcng9IjgyLjM5MzUiIHJ5PSIxOC44Nzg3IiBzdHlsZT0ic3Ryb2tlOiMxODE4MTg7c3Ryb2tlLXdpZHRoOjAuNTsiLz48dGV4dCBmaWxsPSIjMDAwMDAwIiBmb250LWZhbWlseT0ic2Fucy1zZXJpZiIgZm9udC1zaXplPSIxNCIgbGVuZ3RoQWRqdXN0PSJzcGFjaW5nIiB0ZXh0TGVuZ3RoPSIxMjgiIHg9IjE2MjMuMzkzNSIgeT0iOTguNjA1MyI+U3VibWl0IEFzc2Vzc21lbnRzPC90ZXh0PjwvZz48ZyBpZD0iZWxlbV9WaWV3IEFzc2Vzc21lbnRzIj48ZWxsaXBzZSBjeD0iMTY4Ny4yOTYxIiBjeT0iMTY3LjE0MzYiIGZpbGw9IiNGMUYxRjEiIHJ4PSI3Ni4yOTYxIiByeT0iMTcuNjU5MiIgc3R5bGU9InN0cm9rZTojMTgxODE4O3N0cm9rZS13aWR0aDowLjU7Ii8+PHRleHQgZmlsbD0iIzAwMDAwMCIgZm9udC1mYW1pbHk9InNhbnMtc2VyaWYiIGZvbnQtc2l6ZT0iMTQiIGxlbmd0aEFkanVzdD0ic3BhY2luZyIgdGV4dExlbmd0aD0iMTE0IiB4PSIxNjMwLjI5NjEiIHk9IjE3MC44ODU4Ij5WaWV3IEFzc2Vzc21lbnRzPC90ZXh0PjwvZz48ZyBpZD0iZWxlbV9VcGRhdGUgRWR1Y2F0aW9uYWwgSW5mb3JtYXRpb24iPjxlbGxpcHNlIGN4PSIyMDc2LjEyNDciIGN5PSIxMDMuMDA5MyIgZmlsbD0iI0YxRjFGMSIgcng9IjEyMC42MjQ3IiByeT0iMjYuNTI0OSIgc3R5bGU9InN0cm9rZTojMTgxODE4O3N0cm9rZS13aWR0aDowLjU7Ii8+PHRleHQgZmlsbD0iIzAwMDAwMCIgZm9udC1mYW1pbHk9InNhbnMtc2VyaWYiIGZvbnQtc2l6ZT0iMTQiIGxlbmd0aEFkanVzdD0ic3BhY2luZyIgdGV4dExlbmd0aD0iMjExIiB4PSIxOTcwLjYyNDciIHk9IjEwNi43NTE1Ij5VcGRhdGUgRWR1Y2F0aW9uYWwgSW5mb3JtYXRpb248L3RleHQ+PC9nPjxnIGlkPSJlbGVtX1ZpZXcgU3VibWlzc2lvbiBNYXJrcyI+PGVsbGlwc2UgY3g9IjIwNzUuNzg5NSIgY3k9IjE4NS43NDIzIiBmaWxsPSIjRjFGMUYxIiByeD0iOTEuNzg5NSIgcnk9IjIwLjc1NzkiIHN0eWxlPSJzdHJva2U6IzE4MTgxODtzdHJva2Utd2lkdGg6MC41OyIvPjx0ZXh0IGZpbGw9IiMwMDAwMDAiIGZvbnQtZmFtaWx5PSJzYW5zLXNlcmlmIiBmb250LXNpemU9IjE0IiBsZW5ndGhBZGp1c3Q9InNwYWNpbmciIHRleHRMZW5ndGg9IjE0OSIgeD0iMjAwMS4yODk1IiB5PSIxODkuNDg0NSI+VmlldyBTdWJtaXNzaW9uIE1hcmtzPC90ZXh0PjwvZz48ZyBpZD0iZWxlbV9WaWV3IEV4YW1zIEluZm9ybWF0aW9uIj48ZWxsaXBzZSBjeD0iMTMwNC45MzE0IiBjeT0iMjgzLjk3MDciIGZpbGw9IiNGMUYxRjEiIHJ4PSI5NS40MzE0IiByeT0iMjEuNDg2MyIgc3R5bGU9InN0cm9rZTojMTgxODE4O3N0cm9rZS13aWR0aDowLjU7Ii8+PHRleHQgZmlsbD0iIzAwMDAwMCIgZm9udC1mYW1pbHk9InNhbnMtc2VyaWYiIGZvbnQtc2l6ZT0iMTQiIGxlbmd0aEFkanVzdD0ic3BhY2luZyIgdGV4dExlbmd0aD0iMTU3IiB4PSIxMjI2LjQzMTQiIHk9IjI4Ny43MTI5Ij5WaWV3IEV4YW1zIEluZm9ybWF0aW9uPC90ZXh0PjwvZz48ZyBpZD0iZWxlbV9WaWV3IEV4YW1zIj48ZWxsaXBzZSBjeD0iMTY4Ny4yNzkiIGN5PSIzMDUuNzQwMiIgZmlsbD0iI0YxRjFGMSIgcng9IjU5LjI3OSIgcnk9IjE0LjI1NTgiIHN0eWxlPSJzdHJva2U6IzE4MTgxODtzdHJva2Utd2lkdGg6MC41OyIvPjx0ZXh0IGZpbGw9IiMwMDAwMDAiIGZvbnQtZmFtaWx5PSJzYW5zLXNlcmlmIiBmb250LXNpemU9IjE0IiBsZW5ndGhBZGp1c3Q9InNwYWNpbmciIHRleHRMZW5ndGg9IjcyIiB4PSIxNjUxLjI3OSIgeT0iMzA5LjQ4MjQiPlZpZXcgRXhhbXM8L3RleHQ+PC9nPjxnIGlkPSJlbGVtX1ZpZXcgRXhhbSBSZXN1bHRzIj48ZWxsaXBzZSBjeD0iMTY4Ny4zMjU0IiBjeT0iMjM3Ljc0OTUiIGZpbGw9IiNGMUYxRjEiIHJ4PSI3OS4zMjU0IiByeT0iMTguMjY1MSIgc3R5bGU9InN0cm9rZTojMTgxODE4O3N0cm9rZS13aWR0aDowLjU7Ii8+PHRleHQgZmlsbD0iIzAwMDAwMCIgZm9udC1mYW1pbHk9InNhbnMtc2VyaWYiIGZvbnQtc2l6ZT0iMTQiIGxlbmd0aEFkanVzdD0ic3BhY2luZyIgdGV4dExlbmd0aD0iMTIxIiB4PSIxNjI2LjgyNTQiIHk9IjI0MS40OTE2Ij5WaWV3IEV4YW0gUmVzdWx0czwvdGV4dD48L2c+PGcgaWQ9ImVsZW1fQXBwbHkgZm9yIFJlY29ycmVjdGlvbnMiPjxlbGxpcHNlIGN4PSIyMDc1Ljc2MzMiIGN5PSIzMzAuODM3IiBmaWxsPSIjRjFGMUYxIiByeD0iOTcuMjYzMyIgcnk9IjIxLjg1MjciIHN0eWxlPSJzdHJva2U6IzE4MTgxODtzdHJva2Utd2lkdGg6MC41OyIvPjx0ZXh0IGZpbGw9IiMwMDAwMDAiIGZvbnQtZmFtaWx5PSJzYW5zLXNlcmlmIiBmb250LXNpemU9IjE0IiBsZW5ndGhBZGp1c3Q9InNwYWNpbmciIHRleHRMZW5ndGg9IjE2MSIgeD0iMTk5NS4yNjMzIiB5PSIzMzQuNTc5MiI+QXBwbHkgZm9yIFJlY29ycmVjdGlvbnM8L3RleHQ+PC9nPjxnIGlkPSJlbGVtX0NhbGN1bGF0ZSBHUEEiPjxlbGxpcHNlIGN4PSIyMDc2LjE4MzQiIGN5PSIyNTguMjIxIiBmaWxsPSIjRjFGMUYxIiByeD0iNjYuNjgzNCIgcnk9IjE1LjczNjciIHN0eWxlPSJzdHJva2U6IzE4MTgxODtzdHJva2Utd2lkdGg6MC41OyIvPjx0ZXh0IGZpbGw9IiMwMDAwMDAiIGZvbnQtZmFtaWx5PSJzYW5zLXNlcmlmIiBmb250LXNpemU9IjE0IiBsZW5ndGhBZGp1c3Q9InNwYWNpbmciIHRleHRMZW5ndGg9IjkxIiB4PSIyMDMwLjY4MzQiIHk9IjI2MS45NjMyIj5DYWxjdWxhdGUgR1BBPC90ZXh0PjwvZz48ZyBpZD0iZWxlbV9VcGRhdGUgU3R1ZGVudCBJbmZvcm1hdGlvbiAiPjxlbGxpcHNlIGN4PSIyMDc2LjIyMzQiIGN5PSIyMjQ5LjAyOSIgZmlsbD0iI0YxRjFGMSIgcng9IjExMC43MjM0IiByeT0iMjQuNTQ0NyIgc3R5bGU9InN0cm9rZTojMTgxODE4O3N0cm9rZS13aWR0aDowLjU7Ii8+PHRleHQgZmlsbD0iIzAwMDAwMCIgZm9udC1mYW1pbHk9InNhbnMtc2VyaWYiIGZvbnQtc2l6ZT0iMTQiIGxlbmd0aEFkanVzdD0ic3BhY2luZyIgdGV4dExlbmd0aD0iMTgzIiB4PSIxOTgxLjIyMzQiIHk9IjIyNTIuNzcxMiI+VXBkYXRlIFN0dWRlbnQgSW5mb3JtYXRpb248L3RleHQ+PC9nPjxnIGlkPSJlbGVtX1VwZGF0ZSBFZHVjYXRpb25hbCBJbmZvcm1hdGlvbiAiPjxlbGxpcHNlIGN4PSIyMDc1Ljk0NzYiIGN5PSIxNjg1LjE3MzkiIGZpbGw9IiNGMUYxRjEiIHJ4PSIxMjMuOTQ3NiIgcnk9IjI3LjE4OTUiIHN0eWxlPSJzdHJva2U6IzE4MTgxODtzdHJva2Utd2lkdGg6MC41OyIvPjx0ZXh0IGZpbGw9IiMwMDAwMDAiIGZvbnQtZmFtaWx5PSJzYW5zLXNlcmlmIiBmb250LXNpemU9IjE0IiBsZW5ndGhBZGp1c3Q9InNwYWNpbmciIHRleHRMZW5ndGg9IjIxMSIgeD0iMTk2Ni45NDc2IiB5PSIxNjg4LjkxNjEiPlVwZGF0ZSBFZHVjYXRpb25hbCBJbmZvcm1hdGlvbjwvdGV4dD48L2c+PGcgaWQ9ImVsZW1fVXBkYXRlIEV4YW0gSW5mb3JtYXRpb24gIj48ZWxsaXBzZSBjeD0iMjA3NS45MDkiIGN5PSIxOTI2LjE2NjIiIGZpbGw9IiNGMUYxRjEiIHJ4PSIxMDEuNDA5IiByeT0iMjIuNjgxOCIgc3R5bGU9InN0cm9rZTojMTgxODE4O3N0cm9rZS13aWR0aDowLjU7Ii8+PHRleHQgZmlsbD0iIzAwMDAwMCIgZm9udC1mYW1pbHk9InNhbnMtc2VyaWYiIGZvbnQtc2l6ZT0iMTQiIGxlbmd0aEFkanVzdD0ic3BhY2luZyIgdGV4dExlbmd0aD0iMTYzIiB4PSIxOTkwLjkwOSIgeT0iMTkyOS45MDg0Ij5VcGRhdGUgRXhhbSBJbmZvcm1hdGlvbjwvdGV4dD48L2c+PGcgaWQ9ImVsZW1fVmlldyBTdHVkZW50IEluZm9ybWF0aW9uICI+PGVsbGlwc2UgY3g9IjEzMDUuMTU0MiIgY3k9IjIyNDAuODE1MiIgZmlsbD0iI0YxRjFGMSIgcng9IjEwNC42NTQyIiByeT0iMjMuMzMwOCIgc3R5bGU9InN0cm9rZTojMTgxODE4O3N0cm9rZS13aWR0aDowLjU7Ii8+PHRleHQgZmlsbD0iIzAwMDAwMCIgZm9udC1mYW1pbHk9InNhbnMtc2VyaWYiIGZvbnQtc2l6ZT0iMTQiIGxlbmd0aEFkanVzdD0ic3BhY2luZyIgdGV4dExlbmd0aD0iMTcwIiB4PSIxMjE2LjY1NDIiIHk9IjIyNDQuNTU3NCI+VmlldyBTdHVkZW50IEluZm9ybWF0aW9uPC90ZXh0PjwvZz48ZyBpZD0iZWxlbV9DcmVhdGUgU3R1ZGVudCBJbmZvcm1hdGlvbiAiPjxlbGxpcHNlIGN4PSIxNjg3LjcyMzQiIGN5PSIyMjg0LjAyOSIgZmlsbD0iI0YxRjFGMSIgcng9IjExMC43MjM0IiByeT0iMjQuNTQ0NyIgc3R5bGU9InN0cm9rZTojMTgxODE4O3N0cm9rZS13aWR0aDowLjU7Ii8+PHRleHQgZmlsbD0iIzAwMDAwMCIgZm9udC1mYW1pbHk9InNhbnMtc2VyaWYiIGZvbnQtc2l6ZT0iMTQiIGxlbmd0aEFkanVzdD0ic3BhY2luZyIgdGV4dExlbmd0aD0iMTgzIiB4PSIxNTkyLjcyMzQiIHk9IjIyODcuNzcxMiI+Q3JlYXRlIFN0dWRlbnQgSW5mb3JtYXRpb248L3RleHQ+PC9nPjxnIGlkPSJlbGVtX0RlbGV0ZSBTdHVkZW50IEluZm9ybWF0aW9uICI+PGVsbGlwc2UgY3g9IjE2ODcuNzIzNCIgY3k9IjIyMDAuMDI5IiBmaWxsPSIjRjFGMUYxIiByeD0iMTEwLjcyMzQiIHJ5PSIyNC41NDQ3IiBzdHlsZT0ic3Ryb2tlOiMxODE4MTg7c3Ryb2tlLXdpZHRoOjAuNTsiLz48dGV4dCBmaWxsPSIjMDAwMDAwIiBmb250LWZhbWlseT0ic2Fucy1zZXJpZiIgZm9udC1zaXplPSIxNCIgbGVuZ3RoQWRqdXN0PSJzcGFjaW5nIiB0ZXh0TGVuZ3RoPSIxODMiIHg9IjE1OTIuNzIzNCIgeT0iMjIwMy43NzEyIj5EZWxldGUgU3R1ZGVudCBJbmZvcm1hdGlvbjwvdGV4dD48L2c+PGcgaWQ9ImVsZW1fR2VuZXJhdGUgU3R1ZGVudCBBdHRlbmRhbmNlIFJlcG9ydHMiPjxlbGxpcHNlIGN4PSIxNjg3LjM0OTEiIGN5PSIyMTA5Ljc1NDIiIGZpbGw9IiNGMUYxRjEiIHJ4PSIxMzYuODQ5MSIgcnk9IjI5Ljc2OTgiIHN0eWxlPSJzdHJva2U6IzE4MTgxODtzdHJva2Utd2lkdGg6MC41OyIvPjx0ZXh0IGZpbGw9IiMwMDAwMDAiIGZvbnQtZmFtaWx5PSJzYW5zLXNlcmlmIiBmb250LXNpemU9IjE0IiBsZW5ndGhBZGp1c3Q9InNwYWNpbmciIHRleHRMZW5ndGg9IjI0NSIgeD0iMTU2NC44NDkxIiB5PSIyMTEzLjQ5NjQiPkdlbmVyYXRlIFN0dWRlbnQgQXR0ZW5kYW5jZSBSZXBvcnRzPC90ZXh0PjwvZz48ZyBpZD0iZWxlbV9HZW5lcmF0ZSBTdHVkZW50IFBlcmZvcm1hbmNlIFJlcG9ydHMiPjxlbGxpcHNlIGN4PSIxNjg3LjY5MzgiIGN5PSIyNDU4LjAyMzEiIGZpbGw9IiNGMUYxRjEiIHJ4PSIxNDAuNjkzOCIgcnk9IjMwLjUzODgiIHN0eWxlPSJzdHJva2U6IzE4MTgxODtzdHJva2Utd2lkdGg6MC41OyIvPjx0ZXh0IGZpbGw9IiMwMDAwMDAiIGZvbnQtZmFtaWx5PSJzYW5zLXNlcmlmIiBmb250LXNpemU9IjE0IiBsZW5ndGhBZGp1c3Q9InNwYWNpbmciIHRleHRMZW5ndGg9IjI1MyIgeD0iMTU2MS4xOTM4IiB5PSIyNDYxLjc2NTMiPkdlbmVyYXRlIFN0dWRlbnQgUGVyZm9ybWFuY2UgUmVwb3J0czwvdGV4dD48L2c+PGcgaWQ9ImVsZW1fR2VuZXJhdGUgRW5yb2xsbWVudCBSZXBvcnRzIj48ZWxsaXBzZSBjeD0iMTY4Ny43MjM0IiBjeT0iMjM2OC4wMjkiIGZpbGw9IiNGMUYxRjEiIHJ4PSIxMTAuNzIzNCIgcnk9IjI0LjU0NDciIHN0eWxlPSJzdHJva2U6IzE4MTgxODtzdHJva2Utd2lkdGg6MC41OyIvPjx0ZXh0IGZpbGw9IiMwMDAwMDAiIGZvbnQtZmFtaWx5PSJzYW5zLXNlcmlmIiBmb250LXNpemU9IjE0IiBsZW5ndGhBZGp1c3Q9InNwYWNpbmciIHRleHRMZW5ndGg9IjE5MCIgeD0iMTU5Mi43MjM0IiB5PSIyMzcxLjc3MTIiPkdlbmVyYXRlIEVucm9sbG1lbnQgUmVwb3J0czwvdGV4dD48L2c+PGcgaWQ9ImVsZW1fVmlldyBFZHVjYXRpb25hbCBJbmZvcm1hdGlvbiAiPjxlbGxpcHNlIGN4PSIxMzA0Ljc4NDkiIGN5PSIxNzE5Ljk0MTQiIGZpbGw9IiNGMUYxRjEiIHJ4PSIxMTcuNzg0OSIgcnk9IjI1Ljk1NyIgc3R5bGU9InN0cm9rZTojMTgxODE4O3N0cm9rZS13aWR0aDowLjU7Ii8+PHRleHQgZmlsbD0iIzAwMDAwMCIgZm9udC1mYW1pbHk9InNhbnMtc2VyaWYiIGZvbnQtc2l6ZT0iMTQiIGxlbmd0aEFkanVzdD0ic3BhY2luZyIgdGV4dExlbmd0aD0iMTk4IiB4PSIxMjAyLjI4NDkiIHk9IjE3MjMuNjgzNSI+VmlldyBFZHVjYXRpb25hbCBJbmZvcm1hdGlvbjwvdGV4dD48L2c+PGcgaWQ9ImVsZW1fQ3JlYXRlIEFzc2Vzc21lbnRzIj48ZWxsaXBzZSBjeD0iMTY4Ny40NTMiIGN5PSIxNjExLjc3NSIgZmlsbD0iI0YxRjFGMSIgcng9IjgxLjk1MyIgcnk9IjE4Ljc5MDYiIHN0eWxlPSJzdHJva2U6IzE4MTgxODtzdHJva2Utd2lkdGg6MC41OyIvPjx0ZXh0IGZpbGw9IiMwMDAwMDAiIGZvbnQtZmFtaWx5PSJzYW5zLXNlcmlmIiBmb250LXNpemU9IjE0IiBsZW5ndGhBZGp1c3Q9InNwYWNpbmciIHRleHRMZW5ndGg9IjEyNyIgeD0iMTYyMy45NTMiIHk9IjE2MTUuNTE3MiI+Q3JlYXRlIEFzc2Vzc21lbnRzPC90ZXh0PjwvZz48ZyBpZD0iZWxlbV9FZGl0IEFzc2Vzc21lbnRzIj48ZWxsaXBzZSBjeD0iMTY4Ny4zNjY4IiBjeT0iMTc1Ny4wNTc3IiBmaWxsPSIjRjFGMUYxIiByeD0iNzUuODY2OCIgcnk9IjE3LjU3MzQiIHN0eWxlPSJzdHJva2U6IzE4MTgxODtzdHJva2Utd2lkdGg6MC41OyIvPjx0ZXh0IGZpbGw9IiMwMDAwMDAiIGZvbnQtZmFtaWx5PSJzYW5zLXNlcmlmIiBmb250LXNpemU9IjE0IiBsZW5ndGhBZGp1c3Q9InNwYWNpbmciIHRleHRMZW5ndGg9IjExMyIgeD0iMTYzMC44NjY4IiB5PSIxNzYwLjc5OTkiPkVkaXQgQXNzZXNzbWVudHM8L3RleHQ+PC9nPjxnIGlkPSJlbGVtX0RlbGV0ZSBBc3Nlc3NtZW50cyI+PGVsbGlwc2UgY3g9IjE2ODcuNDUzIiBjeT0iMTY4NC43NzUiIGZpbGw9IiNGMUYxRjEiIHJ4PSI4MS45NTMiIHJ5PSIxOC43OTA2IiBzdHlsZT0ic3Ryb2tlOiMxODE4MTg7c3Ryb2tlLXdpZHRoOjAuNTsiLz48dGV4dCBmaWxsPSIjMDAwMDAwIiBmb250LWZhbWlseT0ic2Fucy1zZXJpZiIgZm9udC1zaXplPSIxNCIgbGVuZ3RoQWRqdXN0PSJzcGFjaW5nIiB0ZXh0TGVuZ3RoPSIxMjciIHg9IjE2MjMuOTUzIiB5PSIxNjg4LjUxNzIiPkRlbGV0ZSBBc3Nlc3NtZW50czwvdGV4dD48L2c+PGcgaWQ9ImVsZW1fVmlldyBTdHVkZW50IFN1Ym1pc3Npb25zIj48ZWxsaXBzZSBjeD0iMTMwNC45MDkiIGN5PSIxNTcyLjE2NjIiIGZpbGw9IiNGMUYxRjEiIHJ4PSIxMDEuNDA5IiByeT0iMjIuNjgxOCIgc3R5bGU9InN0cm9rZTojMTgxODE4O3N0cm9rZS13aWR0aDowLjU7Ii8+PHRleHQgZmlsbD0iIzAwMDAwMCIgZm9udC1mYW1pbHk9InNhbnMtc2VyaWYiIGZvbnQtc2l6ZT0iMTQiIGxlbmd0aEFkanVzdD0ic3BhY2luZyIgdGV4dExlbmd0aD0iMTcwIiB4PSIxMjE5LjkwOSIgeT0iMTU3NS45MDg0Ij5WaWV3IFN0dWRlbnQgU3VibWlzc2lvbnM8L3RleHQ+PC9nPjxnIGlkPSJlbGVtX01hcmsgU3R1ZGVudCBTdWJtaXNzaW9ucyI+PGVsbGlwc2UgY3g9IjE2ODcuNDQ2OCIgY3k9IjE1MzUuMDczNyIgZmlsbD0iI0YxRjFGMSIgcng9IjEwMC45NDY4IiByeT0iMjIuNTg5NCIgc3R5bGU9InN0cm9rZTojMTgxODE4O3N0cm9rZS13aWR0aDowLjU7Ii8+PHRleHQgZmlsbD0iIzAwMDAwMCIgZm9udC1mYW1pbHk9InNhbnMtc2VyaWYiIGZvbnQtc2l6ZT0iMTQiIGxlbmd0aEFkanVzdD0ic3BhY2luZyIgdGV4dExlbmd0aD0iMTY5IiB4PSIxNjAyLjk0NjgiIHk9IjE1MzguODE1OSI+TWFyayBTdHVkZW50IFN1Ym1pc3Npb25zPC90ZXh0PjwvZz48ZyBpZD0iZWxlbV9WaWV3IEV4YW0gSW5mb3JtYXRpb24gIj48ZWxsaXBzZSBjeD0iMTMwNC45MzE0IiBjeT0iMTg5MC45NzA3IiBmaWxsPSIjRjFGMUYxIiByeD0iOTUuNDMxNCIgcnk9IjIxLjQ4NjMiIHN0eWxlPSJzdHJva2U6IzE4MTgxODtzdHJva2Utd2lkdGg6MC41OyIvPjx0ZXh0IGZpbGw9IiMwMDAwMDAiIGZvbnQtZmFtaWx5PSJzYW5zLXNlcmlmIiBmb250LXNpemU9IjE0IiBsZW5ndGhBZGp1c3Q9InNwYWNpbmciIHRleHRMZW5ndGg9IjE1MCIgeD0iMTIyNi40MzE0IiB5PSIxODk0LjcxMjkiPlZpZXcgRXhhbSBJbmZvcm1hdGlvbjwvdGV4dD48L2c+PGcgaWQ9ImVsZW1fQ3JlYXRlIEV4YW1zIj48ZWxsaXBzZSBjeD0iMTY4Ny4yODI3IiBjeT0iMTg5MC43NDA5IiBmaWxsPSIjRjFGMUYxIiByeD0iNjQuMjgyNyIgcnk9IjE1LjI1NjUiIHN0eWxlPSJzdHJva2U6IzE4MTgxODtzdHJva2Utd2lkdGg6MC41OyIvPjx0ZXh0IGZpbGw9IiMwMDAwMDAiIGZvbnQtZmFtaWx5PSJzYW5zLXNlcmlmIiBmb250LXNpemU9IjE0IiBsZW5ndGhBZGp1c3Q9InNwYWNpbmciIHRleHRMZW5ndGg9Ijg1IiB4PSIxNjQ0Ljc4MjciIHk9IjE4OTQuNDgzMSI+Q3JlYXRlIEV4YW1zPC90ZXh0PjwvZz48ZyBpZD0iZWxlbV9VcGRhdGUgRXhhbXMiPjxlbGxpcHNlIGN4PSIxNjg3LjI4MjciIGN5PSIxODI0Ljc0MDkiIGZpbGw9IiNGMUYxRjEiIHJ4PSI2NC4yODI3IiByeT0iMTUuMjU2NSIgc3R5bGU9InN0cm9rZTojMTgxODE4O3N0cm9rZS13aWR0aDowLjU7Ii8+PHRleHQgZmlsbD0iIzAwMDAwMCIgZm9udC1mYW1pbHk9InNhbnMtc2VyaWYiIGZvbnQtc2l6ZT0iMTQiIGxlbmd0aEFkanVzdD0ic3BhY2luZyIgdGV4dExlbmd0aD0iODUiIHg9IjE2NDQuNzgyNyIgeT0iMTgyOC40ODMxIj5VcGRhdGUgRXhhbXM8L3RleHQ+PC9nPjxnIGlkPSJlbGVtX0RlbGV0ZSBFeGFtcyI+PGVsbGlwc2UgY3g9IjE2ODcuMjgyNyIgY3k9IjIwMjguNzQwOSIgZmlsbD0iI0YxRjFGMSIgcng9IjY0LjI4MjciIHJ5PSIxNS4yNTY1IiBzdHlsZT0ic3Ryb2tlOiMxODE4MTg7c3Ryb2tlLXdpZHRoOjAuNTsiLz48dGV4dCBmaWxsPSIjMDAwMDAwIiBmb250LWZhbWlseT0ic2Fucy1zZXJpZiIgZm9udC1zaXplPSIxNCIgbGVuZ3RoQWRqdXN0PSJzcGFjaW5nIiB0ZXh0TGVuZ3RoPSI4NSIgeD0iMTY0NC43ODI3IiB5PSIyMDMyLjQ4MzEiPkRlbGV0ZSBFeGFtczwvdGV4dD48L2c+PGcgaWQ9ImVsZW1fRWRpdCBFeGFtIFJlc3VsdHMiPjxlbGxpcHNlIGN4PSIxNjg3LjM5MDIiIGN5PSIxOTYwLjE2MjQiIGZpbGw9IiNGMUYxRjEiIHJ4PSI3OC44OTAyIiByeT0iMTguMTc4IiBzdHlsZT0ic3Ryb2tlOiMxODE4MTg7c3Ryb2tlLXdpZHRoOjAuNTsiLz48dGV4dCBmaWxsPSIjMDAwMDAwIiBmb250LWZhbWlseT0ic2Fucy1zZXJpZiIgZm9udC1zaXplPSIxNCIgbGVuZ3RoQWRqdXN0PSJzcGFjaW5nIiB0ZXh0TGVuZ3RoPSIxMjAiIHg9IjE2MjcuMzkwMiIgeT0iMTk2My45MDQ2Ij5FZGl0IEV4YW0gUmVzdWx0czwvdGV4dD48L2c+PGcgaWQ9ImVsZW1fTm90aWZ5IFRlYWNoZXJzIj48ZWxsaXBzZSBjeD0iMjA3NS45NjYzIiBjeT0iNTIwLjg3NzYiIGZpbGw9IiNGMUYxRjEiIHJ4PSI3Mi40NjYzIiByeT0iMTYuODkzMyIgc3R5bGU9InN0cm9rZTojMTgxODE4O3N0cm9rZS13aWR0aDowLjU7Ii8+PHRleHQgZmlsbD0iIzAwMDAwMCIgZm9udC1mYW1pbHk9InNhbnMtc2VyaWYiIGZvbnQtc2l6ZT0iMTQiIGxlbmd0aEFkanVzdD0ic3BhY2luZyIgdGV4dExlbmd0aD0iMTA1IiB4PSIyMDIzLjQ2NjMiIHk9IjUyNC42MTk4Ij5Ob3RpZnkgVGVhY2hlcnM8L3RleHQ+PC9nPjxnIGlkPSJlbGVtX1ZpZXcgU3RhZmYgSW5mb3JtYXRpb24gIj48ZWxsaXBzZSBjeD0iMTMwNS4xODE4IiBjeT0iNjg0LjAyMDciIGZpbGw9IiNGMUYxRjEiIHJ4PSI5OC4xODE4IiByeT0iMjIuMDM2NCIgc3R5bGU9InN0cm9rZTojMTgxODE4O3N0cm9rZS13aWR0aDowLjU7Ii8+PHRleHQgZmlsbD0iIzAwMDAwMCIgZm9udC1mYW1pbHk9InNhbnMtc2VyaWYiIGZvbnQtc2l6ZT0iMTQiIGxlbmd0aEFkanVzdD0ic3BhY2luZyIgdGV4dExlbmd0aD0iMTU2IiB4PSIxMjIzLjY4MTgiIHk9IjY4Ny43NjI5Ij5WaWV3IFN0YWZmIEluZm9ybWF0aW9uPC90ZXh0PjwvZz48ZyBpZD0iZWxlbV9BZGQgU3RhZmYgTWVtYmVycyI+PGVsbGlwc2UgY3g9IjE2ODcuMzkwMiIgY3k9IjY2OC4xNjI0IiBmaWxsPSIjRjFGMUYxIiByeD0iNzguODkwMiIgcnk9IjE4LjE3OCIgc3R5bGU9InN0cm9rZTojMTgxODE4O3N0cm9rZS13aWR0aDowLjU7Ii8+PHRleHQgZmlsbD0iIzAwMDAwMCIgZm9udC1mYW1pbHk9InNhbnMtc2VyaWYiIGZvbnQtc2l6ZT0iMTQiIGxlbmd0aEFkanVzdD0ic3BhY2luZyIgdGV4dExlbmd0aD0iMTIwIiB4PSIxNjI3LjM5MDIiIHk9IjY3MS45MDQ2Ij5BZGQgU3RhZmYgTWVtYmVyczwvdGV4dD48L2c+PGcgaWQ9ImVsZW1fVXBkYXRlIFN0YWZmIE1lbWJlcnMiPjxlbGxpcHNlIGN4PSIxNjg3LjY3OTYiIGN5PSI1OTUuMDIwMyIgZmlsbD0iI0YxRjFGMSIgcng9Ijg4LjE3OTYiIHJ5PSIyMC4wMzU5IiBzdHlsZT0ic3Ryb2tlOiMxODE4MTg7c3Ryb2tlLXdpZHRoOjAuNTsiLz48dGV4dCBmaWxsPSIjMDAwMDAwIiBmb250LWZhbWlseT0ic2Fucy1zZXJpZiIgZm9udC1zaXplPSIxNCIgbGVuZ3RoQWRqdXN0PSJzcGFjaW5nIiB0ZXh0TGVuZ3RoPSIxNDEiIHg9IjE2MTcuMTc5NiIgeT0iNTk4Ljc2MjUiPlVwZGF0ZSBTdGFmZiBNZW1iZXJzPC90ZXh0PjwvZz48ZyBpZD0iZWxlbV9SZW1vdmUgU3RhZmYgTWVtYmVycyI+PGVsbGlwc2UgY3g9IjE2ODcuNjI5IiBjeT0iNzQxLjExMDIiIGZpbGw9IiNGMUYxRjEiIHJ4PSI4OC42MjkiIHJ5PSIyMC4xMjU4IiBzdHlsZT0ic3Ryb2tlOiMxODE4MTg7c3Ryb2tlLXdpZHRoOjAuNTsiLz48dGV4dCBmaWxsPSIjMDAwMDAwIiBmb250LWZhbWlseT0ic2Fucy1zZXJpZiIgZm9udC1zaXplPSIxNCIgbGVuZ3RoQWRqdXN0PSJzcGFjaW5nIiB0ZXh0TGVuZ3RoPSIxNDIiIHg9IjE2MTYuNjI5IiB5PSI3NDQuODUyNCI+UmVtb3ZlIFN0YWZmIE1lbWJlcnM8L3RleHQ+PC9nPjxnIGlkPSJlbGVtX1ZpZXcgU2VjdGlvbmFsIEluZm9ybWF0aW9uICI+PGVsbGlwc2UgY3g9IjEzMDUuMTkyMyIgY3k9IjQ4Ny4xMjI4IiBmaWxsPSIjRjFGMUYxIiByeD0iMTExLjE5MjMiIHJ5PSIyNC42Mzg1IiBzdHlsZT0ic3Ryb2tlOiMxODE4MTg7c3Ryb2tlLXdpZHRoOjAuNTsiLz48dGV4dCBmaWxsPSIjMDAwMDAwIiBmb250LWZhbWlseT0ic2Fucy1zZXJpZiIgZm9udC1zaXplPSIxNCIgbGVuZ3RoQWRqdXN0PSJzcGFjaW5nIiB0ZXh0TGVuZ3RoPSIxODQiIHg9IjEyMDkuNjkyMyIgeT0iNDkwLjg2NSI+VmlldyBTZWN0aW9uYWwgSW5mb3JtYXRpb248L3RleHQ+PC9nPjxnIGlkPSJlbGVtX0NyZWF0ZSBUaW1lIFRhYmxlcyI+PGVsbGlwc2UgY3g9IjE2ODcuNDUzIiBjeT0iMzc0Ljc3NSIgZmlsbD0iI0YxRjFGMSIgcng9IjgxLjk1MyIgcnk9IjE4Ljc5MDYiIHN0eWxlPSJzdHJva2U6IzE4MTgxODtzdHJva2Utd2lkdGg6MC41OyIvPjx0ZXh0IGZpbGw9IiMwMDAwMDAiIGZvbnQtZmFtaWx5PSJzYW5zLXNlcmlmIiBmb250LXNpemU9IjE0IiBsZW5ndGhBZGp1c3Q9InNwYWNpbmciIHRleHRMZW5ndGg9IjEyNyIgeD0iMTYyMy45NTMiIHk9IjM3OC41MTcyIj5DcmVhdGUgVGltZSBUYWJsZXM8L3RleHQ+PC9nPjxnIGlkPSJlbGVtX1VwZGF0ZSBUaW1lIFRhYmxlcyI+PGVsbGlwc2UgY3g9IjE2ODcuNDUzIiBjeT0iNTIwLjc3NSIgZmlsbD0iI0YxRjFGMSIgcng9IjgxLjk1MyIgcnk9IjE4Ljc5MDYiIHN0eWxlPSJzdHJva2U6IzE4MTgxODtzdHJva2Utd2lkdGg6MC41OyIvPjx0ZXh0IGZpbGw9IiMwMDAwMDAiIGZvbnQtZmFtaWx5PSJzYW5zLXNlcmlmIiBmb250LXNpemU9IjE0IiBsZW5ndGhBZGp1c3Q9InNwYWNpbmciIHRleHRMZW5ndGg9IjEyNyIgeD0iMTYyMy45NTMiIHk9IjUyNC41MTcyIj5VcGRhdGUgVGltZSBUYWJsZXM8L3RleHQ+PC9nPjxnIGlkPSJlbGVtX0RlbGV0ZSBUaW1lIFRhYmxlcyI+PGVsbGlwc2UgY3g9IjE2ODcuNDUzIiBjeT0iNDQ3Ljc3NSIgZmlsbD0iI0YxRjFGMSIgcng9IjgxLjk1MyIgcnk9IjE4Ljc5MDYiIHN0eWxlPSJzdHJva2U6IzE4MTgxODtzdHJva2Utd2lkdGg6MC41OyIvPjx0ZXh0IGZpbGw9IiMwMDAwMDAiIGZvbnQtZmFtaWx5PSJzYW5zLXNlcmlmIiBmb250LXNpemU9IjE0IiBsZW5ndGhBZGp1c3Q9InNwYWNpbmciIHRleHRMZW5ndGg9IjEyNyIgeD0iMTYyMy45NTMiIHk9IjQ1MS41MTcyIj5EZWxldGUgVGltZSBUYWJsZXM8L3RleHQ+PC9nPjxnIGlkPSJlbGVtX05vdGlmeSBTZWN0aW9uYWwgSGVhZHMiPjxlbGxpcHNlIGN4PSIyMDc2LjA2MjIiIGN5PSI4NzUuMTk2OCIgZmlsbD0iI0YxRjFGMSIgcng9Ijk0LjA2MjIiIHJ5PSIyMS4yMTI0IiBzdHlsZT0ic3Ryb2tlOiMxODE4MTg7c3Ryb2tlLXdpZHRoOjAuNTsiLz48dGV4dCBmaWxsPSIjMDAwMDAwIiBmb250LWZhbWlseT0ic2Fucy1zZXJpZiIgZm9udC1zaXplPSIxNCIgbGVuZ3RoQWRqdXN0PSJzcGFjaW5nIiB0ZXh0TGVuZ3RoPSIxNTQiIHg9IjE5OTkuMDYyMiIgeT0iODc4LjkzOSI+Tm90aWZ5IFNlY3Rpb25hbCBIZWFkczwvdGV4dD48L2c+PGcgaWQ9ImVsZW1fQnJvYWRjYXN0IEFubm91bmNlbWVudHMiPjxlbGxpcHNlIGN4PSIxMzA1LjIyMjMiIGN5PSI4MTAuOTI4OCIgZmlsbD0iI0YxRjFGMSIgcng9Ijk3LjcyMjMiIHJ5PSIyMS45NDQ1IiBzdHlsZT0ic3Ryb2tlOiMxODE4MTg7c3Ryb2tlLXdpZHRoOjAuNTsiLz48dGV4dCBmaWxsPSIjMDAwMDAwIiBmb250LWZhbWlseT0ic2Fucy1zZXJpZiIgZm9udC1zaXplPSIxNCIgbGVuZ3RoQWRqdXN0PSJzcGFjaW5nIiB0ZXh0TGVuZ3RoPSIxNjIiIHg9IjEyMjQuMjIyMyIgeT0iODE0LjY3MSI+QnJvYWRjYXN0IEFubm91bmNlbWVudHM8L3RleHQ+PC9nPjxnIGlkPSJlbGVtX1NlbGVjdCBVc2VycyI+PGVsbGlwc2UgY3g9IjE2ODcuMzg3OCIgY3k9IjgxMS4xNjE5IiBmaWxsPSIjRjFGMUYxIiByeD0iNjMuODg3OCIgcnk9IjE1LjE3NzYiIHN0eWxlPSJzdHJva2U6IzE4MTgxODtzdHJva2Utd2lkdGg6MC41OyIvPjx0ZXh0IGZpbGw9IiMwMDAwMDAiIGZvbnQtZmFtaWx5PSJzYW5zLXNlcmlmIiBmb250LXNpemU9IjE0IiBsZW5ndGhBZGp1c3Q9InNwYWNpbmciIHRleHRMZW5ndGg9Ijg0IiB4PSIxNjQ1LjM4NzgiIHk9IjgxNC45MDQxIj5TZWxlY3QgVXNlcnM8L3RleHQ+PC9nPjxnIGlkPSJlbGVtX05vdGlmeSBQcmluY2lwYWxzIj48ZWxsaXBzZSBjeD0iMjA3NS45NTU4IiBjeT0iMTA3Ny4wNzU1IiBmaWxsPSIjRjFGMUYxIiByeD0iNzguNDU1OCIgcnk9IjE4LjA5MTIiIHN0eWxlPSJzdHJva2U6IzE4MTgxODtzdHJva2Utd2lkdGg6MC41OyIvPjx0ZXh0IGZpbGw9IiMwMDAwMDAiIGZvbnQtZmFtaWx5PSJzYW5zLXNlcmlmIiBmb250LXNpemU9IjE0IiBsZW5ndGhBZGp1c3Q9InNwYWNpbmciIHRleHRMZW5ndGg9IjExOSIgeD0iMjAxNi40NTU4IiB5PSIxMDgwLjgxNzciPk5vdGlmeSBQcmluY2lwYWxzPC90ZXh0PjwvZz48ZyBpZD0iZWxlbV9WaWV3IFVzZXIgSW5mb3JtYXRpb24gIj48ZWxsaXBzZSBjeD0iMTMwNC45NzQ2IiBjeT0iMTM2OC44NzkzIiBmaWxsPSIjRjFGMUYxIiByeD0iOTQuOTc0NiIgcnk9IjIxLjM5NDkiIHN0eWxlPSJzdHJva2U6IzE4MTgxODtzdHJva2Utd2lkdGg6MC41OyIvPjx0ZXh0IGZpbGw9IiMwMDAwMDAiIGZvbnQtZmFtaWx5PSJzYW5zLXNlcmlmIiBmb250LXNpemU9IjE0IiBsZW5ndGhBZGp1c3Q9InNwYWNpbmciIHRleHRMZW5ndGg9IjE0OSIgeD0iMTIyNi45NzQ2IiB5PSIxMzcyLjYyMTUiPlZpZXcgVXNlciBJbmZvcm1hdGlvbjwvdGV4dD48L2c+PGcgaWQ9ImVsZW1fQWRkIFVzZXIiPjxlbGxpcHNlIGN4PSIxNjg3LjU4MzMiIGN5PSIxMzM2LjA3OTkiIGZpbGw9IiNGMUYxRjEiIHJ4PSI1MS4wODMzIiByeT0iMTMuNTk1NiIgc3R5bGU9InN0cm9rZTojMTgxODE4O3N0cm9rZS13aWR0aDowLjU7Ii8+PHRleHQgZmlsbD0iIzAwMDAwMCIgZm9udC1mYW1pbHk9InNhbnMtc2VyaWYiIGZvbnQtc2l6ZT0iMTQiIGxlbmd0aEFkanVzdD0ic3BhY2luZyIgdGV4dExlbmd0aD0iNTYiIHg9IjE2NTkuNTgzMyIgeT0iMTMzOS44MjIxIj5BZGQgVXNlcjwvdGV4dD48L2c+PGcgaWQ9ImVsZW1fVXBkYXRlIFVzZXIiPjxlbGxpcHNlIGN4PSIxNjg3LjY2ODUiIGN5PSIxNDYzLjExODEiIGZpbGw9IiNGMUYxRjEiIHJ4PSI2MS4xNjg1IiByeT0iMTQuNjMzNyIgc3R5bGU9InN0cm9rZTojMTgxODE4O3N0cm9rZS13aWR0aDowLjU7Ii8+PHRleHQgZmlsbD0iIzAwMDAwMCIgZm9udC1mYW1pbHk9InNhbnMtc2VyaWYiIGZvbnQtc2l6ZT0iMTQiIGxlbmd0aEFkanVzdD0ic3BhY2luZyIgdGV4dExlbmd0aD0iNzciIHg9IjE2NDkuMTY4NSIgeT0iMTQ2Ni44NjAzIj5VcGRhdGUgVXNlcjwvdGV4dD48L2c+PGcgaWQ9ImVsZW1fRGVsZXRlIFVzZXIiPjxlbGxpcHNlIGN4PSIxNjg3LjY2ODUiIGN5PSIxMzk5LjExODEiIGZpbGw9IiNGMUYxRjEiIHJ4PSI2MS4xNjg1IiByeT0iMTQuNjMzNyIgc3R5bGU9InN0cm9rZTojMTgxODE4O3N0cm9rZS13aWR0aDowLjU7Ii8+PHRleHQgZmlsbD0iIzAwMDAwMCIgZm9udC1mYW1pbHk9InNhbnMtc2VyaWYiIGZvbnQtc2l6ZT0iMTQiIGxlbmd0aEFkanVzdD0ic3BhY2luZyIgdGV4dExlbmd0aD0iNzciIHg9IjE2NDkuMTY4NSIgeT0iMTQwMi44NjAzIj5EZWxldGUgVXNlcjwvdGV4dD48L2c+PGcgaWQ9ImVsZW1fVXBkYXRlIFVzZXIgTG9ncyI+PGVsbGlwc2UgY3g9IjIwNzUuOTM4NCIgY3k9IjEzOTguOTcyMSIgZmlsbD0iI0YxRjFGMSIgcng9Ijc1LjQzODQiIHJ5PSIxNy40ODc3IiBzdHlsZT0ic3Ryb2tlOiMxODE4MTg7c3Ryb2tlLXdpZHRoOjAuNTsiLz48dGV4dCBmaWxsPSIjMDAwMDAwIiBmb250LWZhbWlseT0ic2Fucy1zZXJpZiIgZm9udC1zaXplPSIxNCIgbGVuZ3RoQWRqdXN0PSJzcGFjaW5nIiB0ZXh0TGVuZ3RoPSIxMTIiIHg9IjIwMTkuOTM4NCIgeT0iMTQwMi43MTQyIj5VcGRhdGUgVXNlciBMb2dzPC90ZXh0PjwvZz48ZyBpZD0iZWxlbV9WaWV3IFN5c3RlbSBNb25pdG9yIj48ZWxsaXBzZSBjeD0iMTMwNC45OTU5IiBjeT0iMTA3Ni45ODM2IiBmaWxsPSIjRjFGMUYxIiByeD0iODUuNDk1OSIgcnk9IjE5LjQ5OTIiIHN0eWxlPSJzdHJva2U6IzE4MTgxODtzdHJva2Utd2lkdGg6MC41OyIvPjx0ZXh0IGZpbGw9IiMwMDAwMDAiIGZvbnQtZmFtaWx5PSJzYW5zLXNlcmlmIiBmb250LXNpemU9IjE0IiBsZW5ndGhBZGp1c3Q9InNwYWNpbmciIHRleHRMZW5ndGg9IjEzNSIgeD0iMTIzNy40OTU5IiB5PSIxMDgwLjcyNTciPlZpZXcgU3lzdGVtIE1vbml0b3I8L3RleHQ+PC9nPjxnIGlkPSJlbGVtX0dlbmVyYXRlIFVzZXIgRW5nYWdlbWVudCBSZXBvcnRzIj48ZWxsaXBzZSBjeD0iMTY4Ny4yODAyIiBjeT0iODg4Ljg0MDQiIGZpbGw9IiNGMUYxRjEiIHJ4PSIxMjcuMjgwMiIgcnk9IjI3Ljg1NiIgc3R5bGU9InN0cm9rZTojMTgxODE4O3N0cm9rZS13aWR0aDowLjU7Ii8+PHRleHQgZmlsbD0iIzAwMDAwMCIgZm9udC1mYW1pbHk9InNhbnMtc2VyaWYiIGZvbnQtc2l6ZT0iMTQiIGxlbmd0aEFkanVzdD0ic3BhY2luZyIgdGV4dExlbmd0aD0iMjI1IiB4PSIxNTc0Ljc4MDIiIHk9Ijg5Mi41ODI2Ij5HZW5lcmF0ZSBVc2VyIEVuZ2FnZW1lbnQgUmVwb3J0czwvdGV4dD48L2c+PGcgaWQ9ImVsZW1fR2VuZXJhdGUgUGVyZm9ybWFuY2UgUmVwb3J0cyI+PGVsbGlwc2UgY3g9IjE2ODcuNTExNiIgY3k9IjEyNjIuMTg2NyIgZmlsbD0iI0YxRjFGMSIgcng9IjExNC4wMTE2IiByeT0iMjUuMjAyMyIgc3R5bGU9InN0cm9rZTojMTgxODE4O3N0cm9rZS13aWR0aDowLjU7Ii8+PHRleHQgZmlsbD0iIzAwMDAwMCIgZm9udC1mYW1pbHk9InNhbnMtc2VyaWYiIGZvbnQtc2l6ZT0iMTQiIGxlbmd0aEFkanVzdD0ic3BhY2luZyIgdGV4dExlbmd0aD0iMTk3IiB4PSIxNTg5LjAxMTYiIHk9IjEyNjUuOTI4OSI+R2VuZXJhdGUgUGVyZm9ybWFuY2UgUmVwb3J0czwvdGV4dD48L2c+PGcgaWQ9ImVsZW1fR2VuZXJhdGUgU3lzdGVtIFV0aWxpemF0aW9uIFJlcG9ydHMiPjxlbGxpcHNlIGN4PSIxNjg3LjMyOTIiIGN5PSIxMTcxLjg1MDIiIGZpbGw9IiNGMUYxRjEiIHJ4PSIxMzcuMzI5MiIgcnk9IjI5Ljg2NTgiIHN0eWxlPSJzdHJva2U6IzE4MTgxODtzdHJva2Utd2lkdGg6MC41OyIvPjx0ZXh0IGZpbGw9IiMwMDAwMDAiIGZvbnQtZmFtaWx5PSJzYW5zLXNlcmlmIiBmb250LXNpemU9IjE0IiBsZW5ndGhBZGp1c3Q9InNwYWNpbmciIHRleHRMZW5ndGg9IjI0NiIgeD0iMTU2NC4zMjkyIiB5PSIxMTc1LjU5MjQiPkdlbmVyYXRlIFN5c3RlbSBVdGlsaXphdGlvbiBSZXBvcnRzPC90ZXh0PjwvZz48ZyBpZD0iZWxlbV9HZW5lcmF0ZSBDb250ZW50IFBvcHVsYXJpdHkgUmVwb3J0cyI+PGVsbGlwc2UgY3g9IjE2ODcuMzQ5MSIgY3k9IjEwNzYuNzU0MiIgZmlsbD0iI0YxRjFGMSIgcng9IjEzNi44NDkxIiByeT0iMjkuNzY5OCIgc3R5bGU9InN0cm9rZTojMTgxODE4O3N0cm9rZS13aWR0aDowLjU7Ii8+PHRleHQgZmlsbD0iIzAwMDAwMCIgZm9udC1mYW1pbHk9InNhbnMtc2VyaWYiIGZvbnQtc2l6ZT0iMTQiIGxlbmd0aEFkanVzdD0ic3BhY2luZyIgdGV4dExlbmd0aD0iMjQ1IiB4PSIxNTY0Ljg0OTEiIHk9IjEwODAuNDk2NCI+R2VuZXJhdGUgQ29udGVudCBQb3B1bGFyaXR5IFJlcG9ydHM8L3RleHQ+PC9nPjxnIGlkPSJlbGVtX0dlbmVyYXRlIE1vbnRobHkgQXR0ZW5kYW5jZSBSZXBvcnRzIj48ZWxsaXBzZSBjeD0iMTY4Ny4zNDkxIiBjeT0iOTgxLjc1NDIiIGZpbGw9IiNGMUYxRjEiIHJ4PSIxMzYuODQ5MSIgcnk9IjI5Ljc2OTgiIHN0eWxlPSJzdHJva2U6IzE4MTgxODtzdHJva2Utd2lkdGg6MC41OyIvPjx0ZXh0IGZpbGw9IiMwMDAwMDAiIGZvbnQtZmFtaWx5PSJzYW5zLXNlcmlmIiBmb250LXNpemU9IjE0IiBsZW5ndGhBZGp1c3Q9InNwYWNpbmciIHRleHRMZW5ndGg9IjI0NSIgeD0iMTU2NC44NDkxIiB5PSI5ODUuNDk2NCI+R2VuZXJhdGUgTW9udGhseSBBdHRlbmRhbmNlIFJlcG9ydHM8L3RleHQ+PC9nPjwhLS1lbnRpdHkgVS0tPjxnIGlkPSJlbGVtX1UiPjxlbGxpcHNlIGN4PSIyMCIgY3k9IjI1NzAuOTg0NCIgZmlsbD0iI0YxRjFGMSIgcng9IjgiIHJ5PSI4IiBzdHlsZT0ic3Ryb2tlOiMxODE4MTg7c3Ryb2tlLXdpZHRoOjAuNTsiLz48cGF0aCBkPSJNMjAsMjU3OC45ODQ0IEwyMCwyNjA1Ljk4NDQgTTcsMjU4Ni45ODQ0IEwzMywyNTg2Ljk4NDQgTTIwLDI2MDUuOTg0NCBMNywyNjIwLjk4NDQgTTIwLDI2MDUuOTg0NCBMMzMsMjYyMC45ODQ0ICIgZmlsbD0ibm9uZSIgc3R5bGU9InN0cm9rZTojMTgxODE4O3N0cm9rZS13aWR0aDowLjU7Ii8+PHRleHQgZmlsbD0iIzAwMDAwMCIgZm9udC1mYW1pbHk9InNhbnMtc2VyaWYiIGZvbnQtc2l6ZT0iMTQiIGxlbmd0aEFkanVzdD0ic3BhY2luZyIgdGV4dExlbmd0aD0iMjgiIHg9IjYiIHk9IjI2MzUuNzE4OCI+VXNlcjwvdGV4dD48L2c+PCEtLWVudGl0eSBVUi0tPjxnIGlkPSJlbGVtX1VSIj48ZWxsaXBzZSBjeD0iMjMxMiIgY3k9Ijc0NS45ODQ0IiBmaWxsPSIjRjFGMUYxIiByeD0iOCIgcnk9IjgiIHN0eWxlPSJzdHJva2U6IzE4MTgxODtzdHJva2Utd2lkdGg6MC41OyIvPjxwYXRoIGQ9Ik0yMzEyLDc1My45ODQ0IEwyMzEyLDc4MC45ODQ0IE0yMjk5LDc2MS45ODQ0IEwyMzI1LDc2MS45ODQ0IE0yMzEyLDc4MC45ODQ0IEwyMjk5LDc5NS45ODQ0IE0yMzEyLDc4MC45ODQ0IEwyMzI1LDc5NS45ODQ0ICIgZmlsbD0ibm9uZSIgc3R5bGU9InN0cm9rZTojMTgxODE4O3N0cm9rZS13aWR0aDowLjU7Ii8+PHRleHQgZmlsbD0iIzAwMDAwMCIgZm9udC1mYW1pbHk9InNhbnMtc2VyaWYiIGZvbnQtc2l6ZT0iMTQiIGxlbmd0aEFkanVzdD0ic3BhY2luZyIgdGV4dExlbmd0aD0iMjgiIHg9IjIyOTgiIHk9IjgxMC43MTg4Ij5Vc2VyPC90ZXh0PjwvZz48IS0tZW50aXR5IFMtLT48ZyBpZD0iZWxlbV9TIj48ZWxsaXBzZSBjeD0iODc2IiBjeT0iMjU0Ljk4NDQiIGZpbGw9IiNGMUYxRjEiIHJ4PSI4IiByeT0iOCIgc3R5bGU9InN0cm9rZTojMTgxODE4O3N0cm9rZS13aWR0aDowLjU7Ii8+PHBhdGggZD0iTTg3NiwyNjIuOTg0NCBMODc2LDI4OS45ODQ0IE04NjMsMjcwLjk4NDQgTDg4OSwyNzAuOTg0NCBNODc2LDI4OS45ODQ0IEw4NjMsMzA0Ljk4NDQgTTg3NiwyODkuOTg0NCBMODg5LDMwNC45ODQ0ICIgZmlsbD0ibm9uZSIgc3R5bGU9InN0cm9rZTojMTgxODE4O3N0cm9rZS13aWR0aDowLjU7Ii8+PHRleHQgZmlsbD0iIzAwMDAwMCIgZm9udC1mYW1pbHk9InNhbnMtc2VyaWYiIGZvbnQtc2l6ZT0iMTQiIGxlbmd0aEFkanVzdD0ic3BhY2luZyIgdGV4dExlbmd0aD0iNDkiIHg9Ijg1MS41IiB5PSIzMTkuNzE4OCI+U3R1ZGVudDwvdGV4dD48L2c+PCEtLWVudGl0eSBTUi0tPjxnIGlkPSJlbGVtX1NSIj48ZWxsaXBzZSBjeD0iMjMxMiIgY3k9IjE4OTYuOTg0NCIgZmlsbD0iI0YxRjFGMSIgcng9IjgiIHJ5PSI4IiBzdHlsZT0ic3Ryb2tlOiMxODE4MTg7c3Ryb2tlLXdpZHRoOjAuNTsiLz48cGF0aCBkPSJNMjMxMiwxOTA0Ljk4NDQgTDIzMTIsMTkzMS45ODQ0IE0yMjk5LDE5MTIuOTg0NCBMMjMyNSwxOTEyLjk4NDQgTTIzMTIsMTkzMS45ODQ0IEwyMjk5LDE5NDYuOTg0NCBNMjMxMiwxOTMxLjk4NDQgTDIzMjUsMTk0Ni45ODQ0ICIgZmlsbD0ibm9uZSIgc3R5bGU9InN0cm9rZTojMTgxODE4O3N0cm9rZS13aWR0aDowLjU7Ii8+PHRleHQgZmlsbD0iIzAwMDAwMCIgZm9udC1mYW1pbHk9InNhbnMtc2VyaWYiIGZvbnQtc2l6ZT0iMTQiIGxlbmd0aEFkanVzdD0ic3BhY2luZyIgdGV4dExlbmd0aD0iNDkiIHg9IjIyODcuNSIgeT0iMTk2MS43MTg4Ij5TdHVkZW50PC90ZXh0PjwvZz48IS0tZW50aXR5IFQtLT48ZyBpZD0iZWxlbV9UIj48ZWxsaXBzZSBjeD0iMTE5LjUiIGN5PSIxNzc1Ljk4NDQiIGZpbGw9IiNGMUYxRjEiIHJ4PSI4IiByeT0iOCIgc3R5bGU9InN0cm9rZTojMTgxODE4O3N0cm9rZS13aWR0aDowLjU7Ii8+PHBhdGggZD0iTTExOS41LDE3ODMuOTg0NCBMMTE5LjUsMTgxMC45ODQ0IE0xMDYuNSwxNzkxLjk4NDQgTDEzMi41LDE3OTEuOTg0NCBNMTE5LjUsMTgxMC45ODQ0IEwxMDYuNSwxODI1Ljk4NDQgTTExOS41LDE4MTAuOTg0NCBMMTMyLjUsMTgyNS45ODQ0ICIgZmlsbD0ibm9uZSIgc3R5bGU9InN0cm9rZTojMTgxODE4O3N0cm9rZS13aWR0aDowLjU7Ii8+PHRleHQgZmlsbD0iIzAwMDAwMCIgZm9udC1mYW1pbHk9InNhbnMtc2VyaWYiIGZvbnQtc2l6ZT0iMTQiIGxlbmd0aEFkanVzdD0ic3BhY2luZyIgdGV4dExlbmd0aD0iNDkiIHg9Ijk1IiB5PSIxODQwLjcxODgiPlRlYWNoZXI8L3RleHQ+PC9nPjwhLS1lbnRpdHkgVFItLT48ZyBpZD0iZWxlbV9UUiI+PGVsbGlwc2UgY3g9IjIzMTIiIGN5PSIzMDEuOTg0NCIgZmlsbD0iI0YxRjFGMSIgcng9IjgiIHJ5PSI4IiBzdHlsZT0ic3Ryb2tlOiMxODE4MTg7c3Ryb2tlLXdpZHRoOjAuNTsiLz48cGF0aCBkPSJNMjMxMiwzMDkuOTg0NCBMMjMxMiwzMzYuOTg0NCBNMjI5OSwzMTcuOTg0NCBMMjMyNSwzMTcuOTg0NCBNMjMxMiwzMzYuOTg0NCBMMjI5OSwzNTEuOTg0NCBNMjMxMiwzMzYuOTg0NCBMMjMyNSwzNTEuOTg0NCAiIGZpbGw9Im5vbmUiIHN0eWxlPSJzdHJva2U6IzE4MTgxODtzdHJva2Utd2lkdGg6MC41OyIvPjx0ZXh0IGZpbGw9IiMwMDAwMDAiIGZvbnQtZmFtaWx5PSJzYW5zLXNlcmlmIiBmb250LXNpemU9IjE0IiBsZW5ndGhBZGp1c3Q9InNwYWNpbmciIHRleHRMZW5ndGg9IjQ5IiB4PSIyMjg3LjUiIHk9IjM2Ni43MTg4Ij5UZWFjaGVyPC90ZXh0PjwvZz48IS0tZW50aXR5IFNILS0+PGcgaWQ9ImVsZW1fU0giPjxlbGxpcHNlIGN4PSIyNTQiIGN5PSI3MjkuOTg0NCIgZmlsbD0iI0YxRjFGMSIgcng9IjgiIHJ5PSI4IiBzdHlsZT0ic3Ryb2tlOiMxODE4MTg7c3Ryb2tlLXdpZHRoOjAuNTsiLz48cGF0aCBkPSJNMjU0LDczNy45ODQ0IEwyNTQsNzY0Ljk4NDQgTTI0MSw3NDUuOTg0NCBMMjY3LDc0NS45ODQ0IE0yNTQsNzY0Ljk4NDQgTDI0MSw3NzkuOTg0NCBNMjU0LDc2NC45ODQ0IEwyNjcsNzc5Ljk4NDQgIiBmaWxsPSJub25lIiBzdHlsZT0ic3Ryb2tlOiMxODE4MTg7c3Ryb2tlLXdpZHRoOjAuNTsiLz48dGV4dCBmaWxsPSIjMDAwMDAwIiBmb250LWZhbWlseT0ic2Fucy1zZXJpZiIgZm9udC1zaXplPSIxNCIgbGVuZ3RoQWRqdXN0PSJzcGFjaW5nIiB0ZXh0TGVuZ3RoPSI5OCIgeD0iMjA1IiB5PSI3OTQuNzE4OCI+U2VjdGlvbmFsIEhlYWQ8L3RleHQ+PC9nPjwhLS1lbnRpdHkgU0hSLS0+PGcgaWQ9ImVsZW1fU0hSIj48ZWxsaXBzZSBjeD0iMjMxMiIgY3k9Ijg1NS45ODQ0IiBmaWxsPSIjRjFGMUYxIiByeD0iOCIgcnk9IjgiIHN0eWxlPSJzdHJva2U6IzE4MTgxODtzdHJva2Utd2lkdGg6MC41OyIvPjxwYXRoIGQ9Ik0yMzEyLDg2My45ODQ0IEwyMzEyLDg5MC45ODQ0IE0yMjk5LDg3MS45ODQ0IEwyMzI1LDg3MS45ODQ0IE0yMzEyLDg5MC45ODQ0IEwyMjk5LDkwNS45ODQ0IE0yMzEyLDg5MC45ODQ0IEwyMzI1LDkwNS45ODQ0ICIgZmlsbD0ibm9uZSIgc3R5bGU9InN0cm9rZTojMTgxODE4O3N0cm9rZS13aWR0aDowLjU7Ii8+PHRleHQgZmlsbD0iIzAwMDAwMCIgZm9udC1mYW1pbHk9InNhbnMtc2VyaWYiIGZvbnQtc2l6ZT0iMTQiIGxlbmd0aEFkanVzdD0ic3BhY2luZyIgdGV4dExlbmd0aD0iOTgiIHg9IjIyNjMiIHk9IjkyMC43MTg4Ij5TZWN0aW9uYWwgSGVhZDwvdGV4dD48L2c+PCEtLWVudGl0eSBQLS0+PGcgaWQ9ImVsZW1fUCI+PGVsbGlwc2UgY3g9IjQ2NS41IiBjeT0iNzgxLjk4NDQiIGZpbGw9IiNGMUYxRjEiIHJ4PSI4IiByeT0iOCIgc3R5bGU9InN0cm9rZTojMTgxODE4O3N0cm9rZS13aWR0aDowLjU7Ii8+PHBhdGggZD0iTTQ2NS41LDc4OS45ODQ0IEw0NjUuNSw4MTYuOTg0NCBNNDUyLjUsNzk3Ljk4NDQgTDQ3OC41LDc5Ny45ODQ0IE00NjUuNSw4MTYuOTg0NCBMNDUyLjUsODMxLjk4NDQgTTQ2NS41LDgxNi45ODQ0IEw0NzguNSw4MzEuOTg0NCAiIGZpbGw9Im5vbmUiIHN0eWxlPSJzdHJva2U6IzE4MTgxODtzdHJva2Utd2lkdGg6MC41OyIvPjx0ZXh0IGZpbGw9IiMwMDAwMDAiIGZvbnQtZmFtaWx5PSJzYW5zLXNlcmlmIiBmb250LXNpemU9IjE0IiBsZW5ndGhBZGp1c3Q9InNwYWNpbmciIHRleHRMZW5ndGg9IjYzIiB4PSI0MzQiIHk9Ijg0Ni43MTg4Ij5QcmluY2lwYWw8L3RleHQ+PC9nPjwhLS1lbnRpdHkgUFItLT48ZyBpZD0iZWxlbV9QUiI+PGVsbGlwc2UgY3g9IjIzMTIiIGN5PSIxMDQ3Ljk4NDQiIGZpbGw9IiNGMUYxRjEiIHJ4PSI4IiByeT0iOCIgc3R5bGU9InN0cm9rZTojMTgxODE4O3N0cm9rZS13aWR0aDowLjU7Ii8+PHBhdGggZD0iTTIzMTIsMTA1NS45ODQ0IEwyMzEyLDEwODIuOTg0NCBNMjI5OSwxMDYzLjk4NDQgTDIzMjUsMTA2My45ODQ0IE0yMzEyLDEwODIuOTg0NCBMMjI5OSwxMDk3Ljk4NDQgTTIzMTIsMTA4Mi45ODQ0IEwyMzI1LDEwOTcuOTg0NCAiIGZpbGw9Im5vbmUiIHN0eWxlPSJzdHJva2U6IzE4MTgxODtzdHJva2Utd2lkdGg6MC41OyIvPjx0ZXh0IGZpbGw9IiMwMDAwMDAiIGZvbnQtZmFtaWx5PSJzYW5zLXNlcmlmIiBmb250LXNpemU9IjE0IiBsZW5ndGhBZGp1c3Q9InNwYWNpbmciIHRleHRMZW5ndGg9IjYzIiB4PSIyMjgwLjUiIHk9IjExMTIuNzE4OCI+UHJpbmNpcGFsPC90ZXh0PjwvZz48IS0tZW50aXR5IEEtLT48ZyBpZD0iZWxlbV9BIj48ZWxsaXBzZSBjeD0iODc2IiBjeT0iMTA0Ny45ODQ0IiBmaWxsPSIjRjFGMUYxIiByeD0iOCIgcnk9IjgiIHN0eWxlPSJzdHJva2U6IzE4MTgxODtzdHJva2Utd2lkdGg6MC41OyIvPjxwYXRoIGQ9Ik04NzYsMTA1NS45ODQ0IEw4NzYsMTA4Mi45ODQ0IE04NjMsMTA2My45ODQ0IEw4ODksMTA2My45ODQ0IE04NzYsMTA4Mi45ODQ0IEw4NjMsMTA5Ny45ODQ0IE04NzYsMTA4Mi45ODQ0IEw4ODksMTA5Ny45ODQ0ICIgZmlsbD0ibm9uZSIgc3R5bGU9InN0cm9rZTojMTgxODE4O3N0cm9rZS13aWR0aDowLjU7Ii8+PHRleHQgZmlsbD0iIzAwMDAwMCIgZm9udC1mYW1pbHk9InNhbnMtc2VyaWYiIGZvbnQtc2l6ZT0iMTQiIGxlbmd0aEFkanVzdD0ic3BhY2luZyIgdGV4dExlbmd0aD0iOTIiIHg9IjgzMCIgeT0iMTExMi43MTg4Ij5BZG1pbmlzdHJhdG9yPC90ZXh0PjwvZz48IS0tcmV2ZXJzZSBsaW5rIFUgdG8gUy0tPjxnIGlkPSJsaW5rX1VfUyI+PHBhdGggZD0iTTIzLjQzODIsMjU0NC4zMzE2IEMzNi4yNDgyLDIyNTIuMDgxNiAxMTguNSwzNzUuOTg0NCAxMTguNSwzNzUuOTg0NCBDMTE4LjUsMzc1Ljk4NDQgMTE4LjUsMzc1Ljk4NDQgNDY2LjUsMzc1Ljk4NDQgQzQ2Ni41LDM3NS45ODQ0IDc2NC4wOSwzMDguOTY0NCA4NTEuMjcsMjg5LjMyNDQgIiBmaWxsPSJub25lIiBpZD0iVS1iYWNrdG8tUyIgc3R5bGU9InN0cm9rZTojMTgxODE4O3N0cm9rZS13aWR0aDoxLjA7Ii8+PHBvbHlnb24gZmlsbD0ibm9uZSIgcG9pbnRzPSIyMi42NSwyNTYyLjMxNDQsMjkuNDMyNSwyNTQ0LjU5NDQsMTcuNDQ0LDI1NDQuMDY4OSwyMi42NSwyNTYyLjMxNDQiIHN0eWxlPSJzdHJva2U6IzE4MTgxODtzdHJva2Utd2lkdGg6MS4wOyIvPjwvZz48IS0tcmV2ZXJzZSBsaW5rIFUgdG8gVC0tPjxnIGlkPSJsaW5rX1VfVCI+PHBhdGggZD0iTTI3Ljc5MjMsMjU0NC41Nzg0IEM0NC4yMDIzLDI0MTAuODQ4NCA5Ny40NywxOTc2LjQ1NDQgMTEzLjg5LDE4NDIuNjA0NCAiIGZpbGw9Im5vbmUiIGlkPSJVLWJhY2t0by1UIiBzdHlsZT0ic3Ryb2tlOiMxODE4MTg7c3Ryb2tlLXdpZHRoOjEuMDsiLz48cG9seWdvbiBmaWxsPSJub25lIiBwb2ludHM9IjI1LjYsMjU2Mi40NDQ0LDMzLjc0NzcsMjU0NS4zMDkyLDIxLjgzNywyNTQzLjg0NzYsMjUuNiwyNTYyLjQ0NDQiIHN0eWxlPSJzdHJva2U6IzE4MTgxODtzdHJva2Utd2lkdGg6MS4wOyIvPjwvZz48IS0tcmV2ZXJzZSBsaW5rIFQgdG8gU0gtLT48ZyBpZD0ibGlua19UX1NIIj48cGF0aCBkPSJNMTI3LjUxMjMsMTc0OS41ODcxIEMxNDguMTUyMywxNTg2LjY2NzEgMjI3LjYsOTU5LjUxNDQgMjQ4LjI0LDc5Ni41NDQ0ICIgZmlsbD0ibm9uZSIgaWQ9IlQtYmFja3RvLVNIIiBzdHlsZT0ic3Ryb2tlOiMxODE4MTg7c3Ryb2tlLXdpZHRoOjEuMDsiLz48cG9seWdvbiBmaWxsPSJub25lIiBwb2ludHM9IjEyNS4yNSwxNzY3LjQ0NDQsMTMzLjQ2NDcsMTc1MC4zNDEyLDEyMS41NTk5LDE3NDguODMzLDEyNS4yNSwxNzY3LjQ0NDQiIHN0eWxlPSJzdHJva2U6IzE4MTgxODtzdHJva2Utd2lkdGg6MS4wOyIvPjwvZz48IS0tcmV2ZXJzZSBsaW5rIFNIIHRvIFAtLT48ZyBpZD0ibGlua19TSF9QIj48cGF0aCBkPSJNMzIwLjUzMDUsNzc1LjI0ODMgQzM2MC43NjA1LDc4NS4yMjgzIDM5OS40OCw3OTQuODQ0NCA0MzMuODUsODAzLjM3NDQgIiBmaWxsPSJub25lIiBpZD0iU0gtYmFja3RvLVAiIHN0eWxlPSJzdHJva2U6IzE4MTgxODtzdHJva2Utd2lkdGg6MS4wOyIvPjxwb2x5Z29uIGZpbGw9Im5vbmUiIHBvaW50cz0iMzAzLjA2LDc3MC45MTQ0LDMxOS4wODU4LDc4MS4wNzE4LDMyMS45NzUxLDc2OS40MjQ4LDMwMy4wNiw3NzAuOTE0NCIgc3R5bGU9InN0cm9rZTojMTgxODE4O3N0cm9rZS13aWR0aDoxLjA7Ii8+PC9nPjwhLS1yZXZlcnNlIGxpbmsgUCB0byBBLS0+PGcgaWQ9ImxpbmtfUF9BIj48cGF0aCBkPSJNNTEyLjI4MzksODQwLjc5NjYgQzU4My43MjM5LDg4Ny4zMTY2IDc0Ni4yNiw5OTMuMTU0NCA4MjkuOTgsMTA0Ny42NzQ0ICIgZmlsbD0ibm9uZSIgaWQ9IlAtYmFja3RvLUEiIHN0eWxlPSJzdHJva2U6IzE4MTgxODtzdHJva2Utd2lkdGg6MS4wOyIvPjxwb2x5Z29uIGZpbGw9Im5vbmUiIHBvaW50cz0iNDk3LjIsODMwLjk3NDQsNTA5LjAwOTgsODQ1LjgyNDYsNTE1LjU1OCw4MzUuNzY4Nyw0OTcuMiw4MzAuOTc0NCIgc3R5bGU9InN0cm9rZTojMTgxODE4O3N0cm9rZS13aWR0aDoxLjA7Ii8+PC9nPjwhLS1saW5rIFUgdG8gRW50ZXIgdGhlIEF0dGVuZGFuY2UgRGFpbHktLT48ZyBpZD0ibGlua19VX0VudGVyIHRoZSBBdHRlbmRhbmNlIERhaWx5Ij48cGF0aCBkPSJNMzQuMTUsMjYyOC43MTQ0IEM2MC43NiwyNjg2Ljg1NDQgMTE4LjUsMjgxMi45ODQ0IDExOC41LDI4MTIuOTg0NCBDMTE4LjUsMjgxMi45ODQ0IDExOC41LDI4MTIuOTg0NCA4NzcsMjgxMi45ODQ0IEM4NzcsMjgxMi45ODQ0IDEwNzEuNDQsMjgxMi45ODQ0IDExOTcuOSwyODEyLjk4NDQgIiBmaWxsPSJub25lIiBpZD0iVS1FbnRlciB0aGUgQXR0ZW5kYW5jZSBEYWlseSIgc3R5bGU9InN0cm9rZTojMTgxODE4O3N0cm9rZS13aWR0aDoxLjA7Ii8+PC9nPjwhLS1saW5rIEVudGVyIHRoZSBBdHRlbmRhbmNlIERhaWx5IHRvIFZlcmlmeSBVc2luZyBGaW5nZXJwcmludC0tPjxnIGlkPSJsaW5rX0VudGVyIHRoZSBBdHRlbmRhbmNlIERhaWx5X1ZlcmlmeSBVc2luZyBGaW5nZXJwcmludCI+PHBhdGggZD0iTTE0MTIuMjQsMjgxMy4yNjQ0IEMxNDY2Ljg4LDI4MTMuNDA0NCAxNTI3LjA5LDI4MTMuNTY4NyAxNTgwLjc2LDI4MTMuNzA4NyAiIGZpbGw9Im5vbmUiIGlkPSJFbnRlciB0aGUgQXR0ZW5kYW5jZSBEYWlseS10by1WZXJpZnkgVXNpbmcgRmluZ2VycHJpbnQiIHN0eWxlPSJzdHJva2U6IzE4MTgxODtzdHJva2Utd2lkdGg6MS4wO3N0cm9rZS1kYXNoYXJyYXk6Ny4wLDcuMDsiLz48cG9seWdvbiBmaWxsPSIjMTgxODE4IiBwb2ludHM9IjE1ODYuNzYsMjgxMy43MjQ0LDE1NzcuNzcwNSwyODA5LjcwMDksMTU4MS43NiwyODEzLjcxMTMsMTU3Ny43NDk2LDI4MTcuNzAwOSwxNTg2Ljc2LDI4MTMuNzI0NCIgc3R5bGU9InN0cm9rZTojMTgxODE4O3N0cm9rZS13aWR0aDoxLjA7Ii8+PHRleHQgZmlsbD0iIzAwMDAwMCIgZm9udC1mYW1pbHk9InNhbnMtc2VyaWYiIGZvbnQtc2l6ZT0iMTMiIGxlbmd0aEFkanVzdD0ic3BhY2luZyIgdGV4dExlbmd0aD0iNjEiIHg9IjE0NTQuNSIgeT0iMjgxMS4yNzM0Ij4mIzE3MTtpbmNsdWRlJiMxODc7PC90ZXh0PjwvZz48IS0tbGluayBWZXJpZnkgVXNpbmcgRmluZ2VycHJpbnQgdG8gVXBkYXRlIFVzZXIgTG9nLS0+PGcgaWQ9ImxpbmtfVmVyaWZ5IFVzaW5nIEZpbmdlcnByaW50X1VwZGF0ZSBVc2VyIExvZyI+PHBhdGggZD0iTTE3NTAuMDksMjc5Ni4zMjQ0IEMxNzg3LjQ2LDI3ODUuNjA0NCAxODI4LDI3NzMuOTg0NCAxODI4LDI3NzMuOTg0NCBDMTgyOCwyNzczLjk4NDQgMTk2Mi43ODk3LDI3MjIuMTM3OCAyMDMxLjg4OTcsMjY5NS41Njc4ICIgZmlsbD0ibm9uZSIgaWQ9IlZlcmlmeSBVc2luZyBGaW5nZXJwcmludC10by1VcGRhdGUgVXNlciBMb2ciIHN0eWxlPSJzdHJva2U6IzE4MTgxODtzdHJva2Utd2lkdGg6MS4wO3N0cm9rZS1kYXNoYXJyYXk6Ny4wLDcuMDsiLz48cG9seWdvbiBmaWxsPSIjMTgxODE4IiBwb2ludHM9IjIwMzcuNDksMjY5My40MTQ0LDIwMjcuNjU0LDI2OTIuOTEwOSwyMDMyLjgyMzEsMjY5NS4yMDg5LDIwMzAuNTI1MiwyNzAwLjM3OCwyMDM3LjQ5LDI2OTMuNDE0NCIgc3R5bGU9InN0cm9rZTojMTgxODE4O3N0cm9rZS13aWR0aDoxLjA7Ii8+PHRleHQgZmlsbD0iIzAwMDAwMCIgZm9udC1mYW1pbHk9InNhbnMtc2VyaWYiIGZvbnQtc2l6ZT0iMTMiIGxlbmd0aEFkanVzdD0ic3BhY2luZyIgdGV4dExlbmd0aD0iNjEiIHg9IjE4NTkuNSIgeT0iMjczOC4yNzM0Ij4mIzE3MTtpbmNsdWRlJiMxODc7PC90ZXh0PjwvZz48IS0tbGluayBVIHRvIExvZ2luLS0+PGcgaWQ9ImxpbmtfVV9Mb2dpbiI+PHBhdGggZD0iTTM0LjE1LDI1OTAuNDA0NCBDNjAuNzYsMjU3MS4wMjQ0IDExOC41LDI1MjguOTg0NCAxMTguNSwyNTI4Ljk4NDQgQzExOC41LDI1MjguOTg0NCAxMTguNSwyNTI4Ljk4NDQgODc3LDI1MjguOTg0NCBDODc3LDI1MjguOTg0NCAxMTY2LjM5LDI1MzAuMzQ0NCAxMjY4LjY5LDI1MzAuODE0NCAiIGZpbGw9Im5vbmUiIGlkPSJVLUxvZ2luIiBzdHlsZT0ic3Ryb2tlOiMxODE4MTg7c3Ryb2tlLXdpZHRoOjEuMDsiLz48L2c+PCEtLWxpbmsgTG9naW4gdG8gVmFsaWRhdGUgVXNlci0tPjxnIGlkPSJsaW5rX0xvZ2luX1ZhbGlkYXRlIFVzZXIiPjxwYXRoIGQ9Ik0xMzQxLjExLDI1MzEuNzI0NCBDMTQwNC43NywyNTMzLjA2NDQgMTUzNC4xMjEzLDI1MzUuNzc3OSAxNjE1LjIwMTMsMjUzNy40ODc5ICIgZmlsbD0ibm9uZSIgaWQ9IkxvZ2luLXRvLVZhbGlkYXRlIFVzZXIiIHN0eWxlPSJzdHJva2U6IzE4MTgxODtzdHJva2Utd2lkdGg6MS4wO3N0cm9rZS1kYXNoYXJyYXk6Ny4wLDcuMDsiLz48cG9seWdvbiBmaWxsPSIjMTgxODE4IiBwb2ludHM9IjE2MjEuMiwyNTM3LjYxNDQsMTYxMi4yODYzLDI1MzMuNDI1NSwxNjE2LjIwMTEsMjUzNy41MDg5LDE2MTIuMTE3NywyNTQxLjQyMzcsMTYyMS4yLDI1MzcuNjE0NCIgc3R5bGU9InN0cm9rZTojMTgxODE4O3N0cm9rZS13aWR0aDoxLjA7Ii8+PHRleHQgZmlsbD0iIzAwMDAwMCIgZm9udC1mYW1pbHk9InNhbnMtc2VyaWYiIGZvbnQtc2l6ZT0iMTMiIGxlbmd0aEFkanVzdD0ic3BhY2luZyIgdGV4dExlbmd0aD0iNjEiIHg9IjE0NTQuNSIgeT0iMjUzMy4yNzM0Ij4mIzE3MTtpbmNsdWRlJiMxODc7PC90ZXh0PjwvZz48IS0tbGluayBWYWxpZGF0ZSBVc2VyIHRvIFVwZGF0ZSBVc2VyIExvZy0tPjxnIGlkPSJsaW5rX1ZhbGlkYXRlIFVzZXJfVXBkYXRlIFVzZXIgTG9nIj48cGF0aCBkPSJNMTczNC45NSwyNTQ5Ljk3NDQgQzE3NzUuNTMsMjU1OS41NzQ0IDE4MjgsMjU3MS45ODQ0IDE4MjgsMjU3MS45ODQ0IEMxODI4LDI1NzEuOTg0NCAxOTY3LjI4NDQsMjYzMi4zMTk0IDIwMzUuMTU0NCwyNjYxLjcxOTQgIiBmaWxsPSJub25lIiBpZD0iVmFsaWRhdGUgVXNlci10by1VcGRhdGUgVXNlciBMb2ciIHN0eWxlPSJzdHJva2U6IzE4MTgxODtzdHJva2Utd2lkdGg6MS4wO3N0cm9rZS1kYXNoYXJyYXk6Ny4wLDcuMDsiLz48cG9seWdvbiBmaWxsPSIjMTgxODE4IiBwb2ludHM9IjIwNDAuNjYsMjY2NC4xMDQ0LDIwMzMuOTkxNSwyNjU2Ljg1NjUsMjAzNi4wNzIsMjY2Mi4xMTY5LDIwMzAuODExNiwyNjY0LjE5NzQsMjA0MC42NiwyNjY0LjEwNDQiIHN0eWxlPSJzdHJva2U6IzE4MTgxODtzdHJva2Utd2lkdGg6MS4wOyIvPjx0ZXh0IGZpbGw9IiMwMDAwMDAiIGZvbnQtZmFtaWx5PSJzYW5zLXNlcmlmIiBmb250LXNpemU9IjEzIiBsZW5ndGhBZGp1c3Q9InNwYWNpbmciIHRleHRMZW5ndGg9IjYxIiB4PSIxODU5LjUiIHk9IjI1ODQuMjczNCI+JiMxNzE7aW5jbHVkZSYjMTg3OzwvdGV4dD48L2c+PCEtLWxpbmsgVSB0byBWaWV3IFVzZXIgUHJvZmlsZS0tPjxnIGlkPSJsaW5rX1VfVmlldyBVc2VyIFByb2ZpbGUiPjxwYXRoIGQ9Ik0zNC4xNSwyNTk5Ljk4NDQgQzYwLjc2LDI1OTkuOTg0NCAxMTguNSwyNTk5Ljk4NDQgMTE4LjUsMjU5OS45ODQ0IEMxMTguNSwyNTk5Ljk4NDQgMTE4LjUsMjU5OS45ODQ0IDg3NywyNTk5Ljk4NDQgQzg3NywyNTk5Ljk4NDQgMTEwMi40MSwyNjAwLjUxNDQgMTIyNS42OCwyNjAwLjgwNDQgIiBmaWxsPSJub25lIiBpZD0iVS1WaWV3IFVzZXIgUHJvZmlsZSIgc3R5bGU9InN0cm9rZTojMTgxODE4O3N0cm9rZS13aWR0aDoxLjA7Ii8+PC9nPjwhLS1yZXZlcnNlIGxpbmsgVmlldyBVc2VyIFByb2ZpbGUgdG8gVXBkYXRlIFVzZXIgUHJvZmlsZS0tPjxnIGlkPSJsaW5rX1ZpZXcgVXNlciBQcm9maWxlX1VwZGF0ZSBVc2VyIFByb2ZpbGUiPjxwYXRoIGQ9Ik0xMzg5LjkxODcsMjYwMi43NTAzIEMxNDUzLjcyODcsMjYwNC4wOTAzIDE1MzcuODEsMjYwNS44NTQ0IDE2MDMuMDgsMjYwNy4yMzQ0ICIgZmlsbD0ibm9uZSIgaWQ9IlZpZXcgVXNlciBQcm9maWxlLWJhY2t0by1VcGRhdGUgVXNlciBQcm9maWxlIiBzdHlsZT0ic3Ryb2tlOiMxODE4MTg7c3Ryb2tlLXdpZHRoOjEuMDtzdHJva2UtZGFzaGFycmF5OjcuMCw3LjA7Ii8+PHBvbHlnb24gZmlsbD0iIzE4MTgxOCIgcG9pbnRzPSIxMzgzLjkyLDI2MDIuNjI0NCwxMzkyLjgzNCwyNjA2LjgxMjUsMTM4OC45MTg5LDI2MDIuNzI5NCwxMzkzLjAwMiwyNTk4LjgxNDIsMTM4My45MiwyNjAyLjYyNDQiIHN0eWxlPSJzdHJva2U6IzE4MTgxODtzdHJva2Utd2lkdGg6MS4wOyIvPjx0ZXh0IGZpbGw9IiMwMDAwMDAiIGZvbnQtZmFtaWx5PSJzYW5zLXNlcmlmIiBmb250LXNpemU9IjEzIiBsZW5ndGhBZGp1c3Q9InNwYWNpbmciIHRleHRMZW5ndGg9IjYyIiB4PSIxNDU0IiB5PSIyNjAzLjI3MzQiPiYjMTcxO2V4dGVuZHMmIzE4Nzs8L3RleHQ+PC9nPjwhLS1saW5rIFVwZGF0ZSBVc2VyIFByb2ZpbGUgdG8gVXBkYXRlIFVzZXIgTG9nLS0+PGcgaWQ9ImxpbmtfVXBkYXRlIFVzZXIgUHJvZmlsZV9VcGRhdGUgVXNlciBMb2ciPjxwYXRoIGQ9Ik0xNzU0LjUsMjYyMC45MzQ0IEMxODI4LjY3LDI2MzQuMzc0NCAxOTQxLjk0NjEsMjY1NC44ODUxIDIwMTIuMTc2MSwyNjY3LjYwNTEgIiBmaWxsPSJub25lIiBpZD0iVXBkYXRlIFVzZXIgUHJvZmlsZS10by1VcGRhdGUgVXNlciBMb2ciIHN0eWxlPSJzdHJva2U6IzE4MTgxODtzdHJva2Utd2lkdGg6MS4wO3N0cm9rZS1kYXNoYXJyYXk6Ny4wLDcuMDsiLz48cG9seWdvbiBmaWxsPSIjMTgxODE4IiBwb2ludHM9IjIwMTguMDgsMjY2OC42NzQ0LDIwMDkuOTM3LDI2NjMuMTM0NCwyMDEzLjE2LDI2NjcuNzgzMywyMDA4LjUxMTIsMjY3MS4wMDY0LDIwMTguMDgsMjY2OC42NzQ0IiBzdHlsZT0ic3Ryb2tlOiMxODE4MTg7c3Ryb2tlLXdpZHRoOjEuMDsiLz48dGV4dCBmaWxsPSIjMDAwMDAwIiBmb250LWZhbWlseT0ic2Fucy1zZXJpZiIgZm9udC1zaXplPSIxMyIgbGVuZ3RoQWRqdXN0PSJzcGFjaW5nIiB0ZXh0TGVuZ3RoPSI2MSIgeD0iMTg1OS41IiB5PSIyNjM3LjI3MzQiPiYjMTcxO2luY2x1ZGUmIzE4Nzs8L3RleHQ+PC9nPjwhLS1saW5rIFUgdG8gQ29tbXVuaWNhdGlvbi0tPjxnIGlkPSJsaW5rX1VfQ29tbXVuaWNhdGlvbiI+PHBhdGggZD0iTTM0LjE1LDI2MDkuNTY0NCBDNjAuNzYsMjYyOC45NDQ0IDExOC41LDI2NzAuOTg0NCAxMTguNSwyNjcwLjk4NDQgQzExOC41LDI2NzAuOTg0NCAxMTguNSwyNjcwLjk4NDQgODc3LDI2NzAuOTg0NCBDODc3LDI2NzAuOTg0NCAxMTE3LjE5LDI2NzIuMTA0NCAxMjM3LjI4LDI2NzIuNjc0NCAiIGZpbGw9Im5vbmUiIGlkPSJVLUNvbW11bmljYXRpb24iIHN0eWxlPSJzdHJva2U6IzE4MTgxODtzdHJva2Utd2lkdGg6MS4wOyIvPjwvZz48IS0tcmV2ZXJzZSBsaW5rIENvbW11bmljYXRpb24gdG8gU2VuZCBNZXNzYWdlcy0tPjxnIGlkPSJsaW5rX0NvbW11bmljYXRpb25fU2VuZCBNZXNzYWdlcyI+PHBhdGggZD0iTTEzNzguNzA5MywyNjc0LjEyODggQzE0NDguNjE5MywyNjc1LjIyODggMTU1MS43NCwyNjc2Ljg1NDQgMTYyMS4xNCwyNjc3Ljk1NDQgIiBmaWxsPSJub25lIiBpZD0iQ29tbXVuaWNhdGlvbi1iYWNrdG8tU2VuZCBNZXNzYWdlcyIgc3R5bGU9InN0cm9rZTojMTgxODE4O3N0cm9rZS13aWR0aDoxLjA7c3Ryb2tlLWRhc2hhcnJheTo3LjAsNy4wOyIvPjxwb2x5Z29uIGZpbGw9IiMxODE4MTgiIHBvaW50cz0iMTM3Mi43MSwyNjc0LjAzNDQsMTM4MS42NDYsMjY3OC4xNzU1LDEzNzcuNzA5NCwyNjc0LjExMywxMzgxLjc3MTgsMjY3MC4xNzY1LDEzNzIuNzEsMjY3NC4wMzQ0IiBzdHlsZT0ic3Ryb2tlOiMxODE4MTg7c3Ryb2tlLXdpZHRoOjEuMDsiLz48dGV4dCBmaWxsPSIjMDAwMDAwIiBmb250LWZhbWlseT0ic2Fucy1zZXJpZiIgZm9udC1zaXplPSIxMyIgbGVuZ3RoQWRqdXN0PSJzcGFjaW5nIiB0ZXh0TGVuZ3RoPSI2MiIgeD0iMTQ1NCIgeT0iMjY3My4yNzM0Ij4mIzE3MTtleHRlbmRzJiMxODc7PC90ZXh0PjwvZz48IS0tbGluayBTZW5kIE1lc3NhZ2VzIHRvIFVwZGF0ZSBVc2VyIExvZy0tPjxnIGlkPSJsaW5rX1NlbmQgTWVzc2FnZXNfVXBkYXRlIFVzZXIgTG9nIj48cGF0aCBkPSJNMTc1NC4wNiwyNjc4Ljk4NDQgQzE4MjMuMiwyNjc4Ljk4NDQgMTkyNS44LDI2NzguOTg0NCAxOTk3LjIsMjY3OC45ODQ0ICIgZmlsbD0ibm9uZSIgaWQ9IlNlbmQgTWVzc2FnZXMtdG8tVXBkYXRlIFVzZXIgTG9nIiBzdHlsZT0ic3Ryb2tlOiMxODE4MTg7c3Ryb2tlLXdpZHRoOjEuMDtzdHJva2UtZGFzaGFycmF5OjcuMCw3LjA7Ii8+PHBvbHlnb24gZmlsbD0iIzE4MTgxOCIgcG9pbnRzPSIyMDAzLjIsMjY3OC45ODQ0LDE5OTQuMiwyNjc0Ljk4NDQsMTk5OC4yLDI2NzguOTg0NCwxOTk0LjIsMjY4Mi45ODQ0LDIwMDMuMiwyNjc4Ljk4NDQiIHN0eWxlPSJzdHJva2U6IzE4MTgxODtzdHJva2Utd2lkdGg6MS4wOyIvPjx0ZXh0IGZpbGw9IiMwMDAwMDAiIGZvbnQtZmFtaWx5PSJzYW5zLXNlcmlmIiBmb250LXNpemU9IjEzIiBsZW5ndGhBZGp1c3Q9InNwYWNpbmciIHRleHRMZW5ndGg9IjYxIiB4PSIxODU5LjUiIHk9IjI2NzcuMjczNCI+JiMxNzE7aW5jbHVkZSYjMTg3OzwvdGV4dD48L2c+PCEtLWxpbmsgVSB0byBMb2dvdXQtLT48ZyBpZD0ibGlua19VX0xvZ291dCI+PHBhdGggZD0iTTM0LjE1LDI2MTkuMTM0NCBDNjAuNzYsMjY1Ny44OTQ0IDExOC41LDI3NDEuOTg0NCAxMTguNSwyNzQxLjk4NDQgQzExOC41LDI3NDEuOTg0NCAxMTguNSwyNzQxLjk4NDQgODc3LDI3NDEuOTg0NCBDODc3LDI3NDEuOTg0NCAxMTU3LjUzLDI3NDAuNjc0NCAxMjYzLjgzLDI3NDAuMTc0NCAiIGZpbGw9Im5vbmUiIGlkPSJVLUxvZ291dCIgc3R5bGU9InN0cm9rZTojMTgxODE4O3N0cm9rZS13aWR0aDoxLjA7Ii8+PC9nPjwhLS1saW5rIExvZ291dCB0byBDb25maXJtLS0+PGcgaWQ9ImxpbmtfTG9nb3V0X0NvbmZpcm0iPjxwYXRoIGQ9Ik0xMzQ2LDI3NDAuMzA0NCBDMTQxNy4wOCwyNzQwLjg2NDQgMTU1OC45NjAyLDI3NDEuOTc2NiAxNjM0LjI3MDIsMjc0Mi41NzY2ICIgZmlsbD0ibm9uZSIgaWQ9IkxvZ291dC10by1Db25maXJtIiBzdHlsZT0ic3Ryb2tlOiMxODE4MTg7c3Ryb2tlLXdpZHRoOjEuMDtzdHJva2UtZGFzaGFycmF5OjcuMCw3LjA7Ii8+PHBvbHlnb24gZmlsbD0iIzE4MTgxOCIgcG9pbnRzPSIxNjQwLjI3LDI3NDIuNjI0NCwxNjMxLjMwMjIsMjczOC41NTI4LDE2MzUuMjcwMiwyNzQyLjU4NDUsMTYzMS4yMzg0LDI3NDYuNTUyNSwxNjQwLjI3LDI3NDIuNjI0NCIgc3R5bGU9InN0cm9rZTojMTgxODE4O3N0cm9rZS13aWR0aDoxLjA7Ii8+PHRleHQgZmlsbD0iIzAwMDAwMCIgZm9udC1mYW1pbHk9InNhbnMtc2VyaWYiIGZvbnQtc2l6ZT0iMTMiIGxlbmd0aEFkanVzdD0ic3BhY2luZyIgdGV4dExlbmd0aD0iNjEiIHg9IjE0NTQuNSIgeT0iMjczOS4yNzM0Ij4mIzE3MTtpbmNsdWRlJiMxODc7PC90ZXh0PjwvZz48IS0tbGluayBDb25maXJtIHRvIFVwZGF0ZSBVc2VyIExvZy0tPjxnIGlkPSJsaW5rX0NvbmZpcm1fVXBkYXRlIFVzZXIgTG9nIj48cGF0aCBkPSJNMTcyOC43NywyNzM2LjMxNDQgQzE3OTcuMzEsMjcyNC45NjQ0IDE5MzEuMDAwNSwyNzAyLjgyNCAyMDEwLjQwMDUsMjY4OS42ODQgIiBmaWxsPSJub25lIiBpZD0iQ29uZmlybS10by1VcGRhdGUgVXNlciBMb2ciIHN0eWxlPSJzdHJva2U6IzE4MTgxODtzdHJva2Utd2lkdGg6MS4wO3N0cm9rZS1kYXNoYXJyYXk6Ny4wLDcuMDsiLz48cG9seWdvbiBmaWxsPSIjMTgxODE4IiBwb2ludHM9IjIwMTYuMzIsMjY4OC43MDQ0LDIwMDYuNzg3NywyNjg2LjIyNzUsMjAxMS4zODcxLDI2ODkuNTIwNywyMDA4LjA5MzksMjY5NC4xMjAxLDIwMTYuMzIsMjY4OC43MDQ0IiBzdHlsZT0ic3Ryb2tlOiMxODE4MTg7c3Ryb2tlLXdpZHRoOjEuMDsiLz48dGV4dCBmaWxsPSIjMDAwMDAwIiBmb250LWZhbWlseT0ic2Fucy1zZXJpZiIgZm9udC1zaXplPSIxMyIgbGVuZ3RoQWRqdXN0PSJzcGFjaW5nIiB0ZXh0TGVuZ3RoPSI2MSIgeD0iMTg1OS41IiB5PSIyNzAzLjI3MzQiPiYjMTcxO2luY2x1ZGUmIzE4Nzs8L3RleHQ+PC9nPjwhLS1saW5rIE5vdGlmeSBVc2VycyB0byBVUi0tPjxnIGlkPSJsaW5rX05vdGlmeSBVc2Vyc19VUiI+PHBhdGggZD0iTTIxMzkuMDksNzgyLjMzNDQgQzIxOTMuMjUsNzgwLjAxNDQgMjI2Ny43MSw3NzYuODM0NCAyMjk3LjcsNzc1LjU1NDQgIiBmaWxsPSJub25lIiBpZD0iTm90aWZ5IFVzZXJzLVVSIiBzdHlsZT0ic3Ryb2tlOiMxODE4MTg7c3Ryb2tlLXdpZHRoOjEuMDsiLz48L2c+PCEtLWxpbmsgUyB0byBWaWV3IEVkdWNhdGlvbmFsIEluZm9ybWF0aW9uLS0+PGcgaWQ9ImxpbmtfU19WaWV3IEVkdWNhdGlvbmFsIEluZm9ybWF0aW9uIj48cGF0aCBkPSJNOTAwLjczLDI3Ni43MDQ0IEM5MjIuNywyNjkuOTY0NCA5NTIsMjYwLjk4NDQgOTUyLDI2MC45ODQ0IEM5NTIsMjYwLjk4NDQgMTEyNy45NiwyMTMuOTk0NCAxMjMxLjA3LDE4Ni40NjQ0ICIgZmlsbD0ibm9uZSIgaWQ9IlMtVmlldyBFZHVjYXRpb25hbCBJbmZvcm1hdGlvbiIgc3R5bGU9InN0cm9rZTojMTgxODE4O3N0cm9rZS13aWR0aDoxLjA7Ii8+PHRleHQgZmlsbD0iIzAwMDAwMCIgZm9udC1mYW1pbHk9InNhbnMtc2VyaWYiIGZvbnQtc2l6ZT0iMTMiIGxlbmd0aEFkanVzdD0ic3BhY2luZyIgdGV4dExlbmd0aD0iMjAxIiB4PSI5NTMiIHk9IjIwNy4yNzM0Ij5TaG93IG9wdGlvbiB0byBjcmVhdGUgaWYgZW1wdHk8L3RleHQ+PC9nPjwhLS1yZXZlcnNlIGxpbmsgVmlldyBFZHVjYXRpb25hbCBJbmZvcm1hdGlvbiB0byBTdWJtaXQgQXNzZXNzbWVudHMtLT48ZyBpZD0ibGlua19WaWV3IEVkdWNhdGlvbmFsIEluZm9ybWF0aW9uX1N1Ym1pdCBBc3Nlc3NtZW50cyI+PHBhdGggZD0iTTEzOTguNzE1NCwxNDkuNDM5IEMxNDY4LjkwNTQsMTM2LjE1OSAxNTYwLjE4LDExOC44ODQ0IDE2MjMuMTksMTA2Ljk2NDQgIiBmaWxsPSJub25lIiBpZD0iVmlldyBFZHVjYXRpb25hbCBJbmZvcm1hdGlvbi1iYWNrdG8tU3VibWl0IEFzc2Vzc21lbnRzIiBzdHlsZT0ic3Ryb2tlOiMxODE4MTg7c3Ryb2tlLXdpZHRoOjEuMDtzdHJva2UtZGFzaGFycmF5OjcuMCw3LjA7Ii8+PHBvbHlnb24gZmlsbD0iIzE4MTgxOCIgcG9pbnRzPSIxMzkyLjgyLDE1MC41NTQ0LDE0MDIuNDA2NywxNTIuODExNSwxMzk3LjczMjgsMTQ5LjYyNDksMTQwMC45MTk1LDE0NC45NTEsMTM5Mi44MiwxNTAuNTU0NCIgc3R5bGU9InN0cm9rZTojMTgxODE4O3N0cm9rZS13aWR0aDoxLjA7Ii8+PHRleHQgZmlsbD0iIzAwMDAwMCIgZm9udC1mYW1pbHk9InNhbnMtc2VyaWYiIGZvbnQtc2l6ZT0iMTMiIGxlbmd0aEFkanVzdD0ic3BhY2luZyIgdGV4dExlbmd0aD0iNjIiIHg9IjE0NTQiIHk9IjEyNy4yNzM0Ij4mIzE3MTtleHRlbmRzJiMxODc7PC90ZXh0PjwvZz48IS0tcmV2ZXJzZSBsaW5rIFZpZXcgRWR1Y2F0aW9uYWwgSW5mb3JtYXRpb24gdG8gVmlldyBBc3Nlc3NtZW50cy0tPjxnIGlkPSJsaW5rX1ZpZXcgRWR1Y2F0aW9uYWwgSW5mb3JtYXRpb25fVmlldyBBc3Nlc3NtZW50cyI+PHBhdGggZD0iTTE0MjUuNjUsMTY2Ljk4NDQgQzE0ODcuNCwxNjYuOTg0NCAxNTU2LjA4LDE2Ni45ODQ0IDE2MTAuNzIsMTY2Ljk4NDQgIiBmaWxsPSJub25lIiBpZD0iVmlldyBFZHVjYXRpb25hbCBJbmZvcm1hdGlvbi1iYWNrdG8tVmlldyBBc3Nlc3NtZW50cyIgc3R5bGU9InN0cm9rZTojMTgxODE4O3N0cm9rZS13aWR0aDoxLjA7c3Ryb2tlLWRhc2hhcnJheTo3LjAsNy4wOyIvPjxwb2x5Z29uIGZpbGw9IiMxODE4MTgiIHBvaW50cz0iMTQxOS42NSwxNjYuOTg0NCwxNDI4LjY1LDE3MC45ODQ0LDE0MjQuNjUsMTY2Ljk4NDQsMTQyOC42NSwxNjIuOTg0NCwxNDE5LjY1LDE2Ni45ODQ0IiBzdHlsZT0ic3Ryb2tlOiMxODE4MTg7c3Ryb2tlLXdpZHRoOjEuMDsiLz48dGV4dCBmaWxsPSIjMDAwMDAwIiBmb250LWZhbWlseT0ic2Fucy1zZXJpZiIgZm9udC1zaXplPSIxMyIgbGVuZ3RoQWRqdXN0PSJzcGFjaW5nIiB0ZXh0TGVuZ3RoPSI2MiIgeD0iMTQ1NCIgeT0iMTY1LjI3MzQiPiYjMTcxO2V4dGVuZHMmIzE4Nzs8L3RleHQ+PC9nPjwhLS1saW5rIFN1Ym1pdCBBc3Nlc3NtZW50cyB0byBVcGRhdGUgRWR1Y2F0aW9uYWwgSW5mb3JtYXRpb24tLT48ZyBpZD0ibGlua19TdWJtaXQgQXNzZXNzbWVudHNfVXBkYXRlIEVkdWNhdGlvbmFsIEluZm9ybWF0aW9uIj48cGF0aCBkPSJNMTc2OS45OSw5Ni42NzQ0IEMxODIzLjkyLDk3Ljc4NDQgMTg4OS41NDEzLDk5LjE1MSAxOTQ5LjgzMTMsMTAwLjM5MSAiIGZpbGw9Im5vbmUiIGlkPSJTdWJtaXQgQXNzZXNzbWVudHMtdG8tVXBkYXRlIEVkdWNhdGlvbmFsIEluZm9ybWF0aW9uIiBzdHlsZT0ic3Ryb2tlOiMxODE4MTg7c3Ryb2tlLXdpZHRoOjEuMDtzdHJva2UtZGFzaGFycmF5OjcuMCw3LjA7Ii8+PHBvbHlnb24gZmlsbD0iIzE4MTgxOCIgcG9pbnRzPSIxOTU1LjgzLDEwMC41MTQ0LDE5NDYuOTE0Miw5Ni4zMzAyLDE5NTAuODMxMSwxMDAuNDExNiwxOTQ2Ljc0OTcsMTA0LjMyODUsMTk1NS44MywxMDAuNTE0NCIgc3R5bGU9InN0cm9rZTojMTgxODE4O3N0cm9rZS13aWR0aDoxLjA7Ii8+PHRleHQgZmlsbD0iIzAwMDAwMCIgZm9udC1mYW1pbHk9InNhbnMtc2VyaWYiIGZvbnQtc2l6ZT0iMTMiIGxlbmd0aEFkanVzdD0ic3BhY2luZyIgdGV4dExlbmd0aD0iNjEiIHg9IjE4NTkuNSIgeT0iOTcuMjczNCI+JiMxNzE7aW5jbHVkZSYjMTg3OzwvdGV4dD48L2c+PCEtLWxpbmsgVmlldyBBc3Nlc3NtZW50cyB0byBWaWV3IFN1Ym1pc3Npb24gTWFya3MtLT48ZyBpZD0ibGlua19WaWV3IEFzc2Vzc21lbnRzX1ZpZXcgU3VibWlzc2lvbiBNYXJrcyI+PHBhdGggZD0iTTE3NjIuNTYsMTcwLjYyNDQgQzE4MjYuMjQsMTczLjc1NDQgMTkxMi4yNDcyLDE3Ny45Nzk1IDE5NzkuOTI3MiwxODEuMzA5NSAiIGZpbGw9Im5vbmUiIGlkPSJWaWV3IEFzc2Vzc21lbnRzLXRvLVZpZXcgU3VibWlzc2lvbiBNYXJrcyIgc3R5bGU9InN0cm9rZTojMTgxODE4O3N0cm9rZS13aWR0aDoxLjA7c3Ryb2tlLWRhc2hhcnJheTo3LjAsNy4wOyIvPjxwb2x5Z29uIGZpbGw9IiMxODE4MTgiIHBvaW50cz0iMTk4NS45MiwxODEuNjA0NCwxOTc3LjEyNzQsMTc3LjE2NjksMTk4MC45MjYsMTgxLjM1ODcsMTk3Ni43MzQzLDE4NS4xNTczLDE5ODUuOTIsMTgxLjYwNDQiIHN0eWxlPSJzdHJva2U6IzE4MTgxODtzdHJva2Utd2lkdGg6MS4wOyIvPjx0ZXh0IGZpbGw9IiMwMDAwMDAiIGZvbnQtZmFtaWx5PSJzYW5zLXNlcmlmIiBmb250LXNpemU9IjEzIiBsZW5ndGhBZGp1c3Q9InNwYWNpbmciIHRleHRMZW5ndGg9IjYxIiB4PSIxODU5LjUiIHk9IjE3NC4yNzM0Ij4mIzE3MTtpbmNsdWRlJiMxODc7PC90ZXh0PjwvZz48IS0tbGluayBTIHRvIFZpZXcgRXhhbXMgSW5mb3JtYXRpb24tLT48ZyBpZD0ibGlua19TX1ZpZXcgRXhhbXMgSW5mb3JtYXRpb24iPjxwYXRoIGQ9Ik05MDAuNTcsMjgzLjk4NDQgQzk1OC4yNiwyODMuOTg0NCAxMTA5LjE4LDI4My45ODQ0IDEyMDkuMTgsMjgzLjk4NDQgIiBmaWxsPSJub25lIiBpZD0iUy1WaWV3IEV4YW1zIEluZm9ybWF0aW9uIiBzdHlsZT0ic3Ryb2tlOiMxODE4MTg7c3Ryb2tlLXdpZHRoOjEuMDsiLz48dGV4dCBmaWxsPSIjMDAwMDAwIiBmb250LWZhbWlseT0ic2Fucy1zZXJpZiIgZm9udC1zaXplPSIxMyIgbGVuZ3RoQWRqdXN0PSJzcGFjaW5nIiB0ZXh0TGVuZ3RoPSIyMDEiIHg9Ijk1MyIgeT0iMjgyLjI3MzQiPlNob3cgb3B0aW9uIHRvIGNyZWF0ZSBpZiBlbXB0eTwvdGV4dD48L2c+PCEtLXJldmVyc2UgbGluayBWaWV3IEV4YW1zIEluZm9ybWF0aW9uIHRvIFZpZXcgRXhhbXMtLT48ZyBpZD0ibGlua19WaWV3IEV4YW1zIEluZm9ybWF0aW9uX1ZpZXcgRXhhbXMiPjxwYXRoIGQ9Ik0xMzk1LjMzNTYsMjk0LjkyMzEgQzE0MjguNTE1NiwyOTguOTgzMSAxNDUzLDMwMS45ODQ0IDE0NTMsMzAxLjk4NDQgQzE0NTMsMzAxLjk4NDQgMTU1OC43MSwzMDMuNzk0NCAxNjI3Ljg4LDMwNC45ODQ0ICIgZmlsbD0ibm9uZSIgaWQ9IlZpZXcgRXhhbXMgSW5mb3JtYXRpb24tYmFja3RvLVZpZXcgRXhhbXMiIHN0eWxlPSJzdHJva2U6IzE4MTgxODtzdHJva2Utd2lkdGg6MS4wO3N0cm9rZS1kYXNoYXJyYXk6Ny4wLDcuMDsiLz48cG9seWdvbiBmaWxsPSIjMTgxODE4IiBwb2ludHM9IjEzODkuMzgsMjk0LjE5NDQsMTM5Ny44Mjc1LDI5OS4yNTc5LDEzOTQuMzQzLDI5NC44MDE3LDEzOTguNzk5MiwyOTEuMzE3MSwxMzg5LjM4LDI5NC4xOTQ0IiBzdHlsZT0ic3Ryb2tlOiMxODE4MTg7c3Ryb2tlLXdpZHRoOjEuMDsiLz48dGV4dCBmaWxsPSIjMDAwMDAwIiBmb250LWZhbWlseT0ic2Fucy1zZXJpZiIgZm9udC1zaXplPSIxMyIgbGVuZ3RoQWRqdXN0PSJzcGFjaW5nIiB0ZXh0TGVuZ3RoPSI2MiIgeD0iMTQ1NCIgeT0iMzAwLjI3MzQiPiYjMTcxO2V4dGVuZHMmIzE4Nzs8L3RleHQ+PC9nPjwhLS1yZXZlcnNlIGxpbmsgVmlldyBFeGFtcyBJbmZvcm1hdGlvbiB0byBWaWV3IEV4YW0gUmVzdWx0cy0tPjxnIGlkPSJsaW5rX1ZpZXcgRXhhbXMgSW5mb3JtYXRpb25fVmlldyBFeGFtIFJlc3VsdHMiPjxwYXRoIGQ9Ik0xMzk1LjQ1NjYsMjczLjE3MzkgQzE0NjMuNDk2NiwyNjQuOTQzOSAxNTUyLjUsMjU0LjE4NDQgMTYxNi41OCwyNDYuNDM0NCAiIGZpbGw9Im5vbmUiIGlkPSJWaWV3IEV4YW1zIEluZm9ybWF0aW9uLWJhY2t0by1WaWV3IEV4YW0gUmVzdWx0cyIgc3R5bGU9InN0cm9rZTojMTgxODE4O3N0cm9rZS13aWR0aDoxLjA7c3Ryb2tlLWRhc2hhcnJheTo3LjAsNy4wOyIvPjxwb2x5Z29uIGZpbGw9IiMxODE4MTgiIHBvaW50cz0iMTM4OS41LDI3My44OTQ0LDEzOTguOTE1MiwyNzYuNzg0NywxMzk0LjQ2MzgsMjczLjI5NCwxMzk3Ljk1NDUsMjY4Ljg0MjYsMTM4OS41LDI3My44OTQ0IiBzdHlsZT0ic3Ryb2tlOiMxODE4MTg7c3Ryb2tlLXdpZHRoOjEuMDsiLz48dGV4dCBmaWxsPSIjMDAwMDAwIiBmb250LWZhbWlseT0ic2Fucy1zZXJpZiIgZm9udC1zaXplPSIxMyIgbGVuZ3RoQWRqdXN0PSJzcGFjaW5nIiB0ZXh0TGVuZ3RoPSI2MiIgeD0iMTQ1NCIgeT0iMjU4LjI3MzQiPiYjMTcxO2V4dGVuZHMmIzE4Nzs8L3RleHQ+PC9nPjwhLS1yZXZlcnNlIGxpbmsgVmlldyBFeGFtIFJlc3VsdHMgdG8gQXBwbHkgZm9yIFJlY29ycmVjdGlvbnMtLT48ZyBpZD0ibGlua19WaWV3IEV4YW0gUmVzdWx0c19BcHBseSBmb3IgUmVjb3JyZWN0aW9ucyI+PHBhdGggZD0iTTE3NDkuMzAzNSwyNTIuNjE4MiBDMTgxOS4xMTM1LDI2OS40MTgyIDE5MzMuNjcsMjk2Ljk3NDQgMjAwOC41NiwzMTQuOTk0NCAiIGZpbGw9Im5vbmUiIGlkPSJWaWV3IEV4YW0gUmVzdWx0cy1iYWNrdG8tQXBwbHkgZm9yIFJlY29ycmVjdGlvbnMiIHN0eWxlPSJzdHJva2U6IzE4MTgxODtzdHJva2Utd2lkdGg6MS4wO3N0cm9rZS1kYXNoYXJyYXk6Ny4wLDcuMDsiLz48cG9seWdvbiBmaWxsPSIjMTgxODE4IiBwb2ludHM9IjE3NDMuNDcsMjUxLjIxNDQsMTc1MS4yODQzLDI1Ny4yMDkxLDE3NDguMzMxMiwyNTIuMzg0MiwxNzUzLjE1NjEsMjQ5LjQzMTIsMTc0My40NywyNTEuMjE0NCIgc3R5bGU9InN0cm9rZTojMTgxODE4O3N0cm9rZS13aWR0aDoxLjA7Ii8+PHRleHQgZmlsbD0iIzAwMDAwMCIgZm9udC1mYW1pbHk9InNhbnMtc2VyaWYiIGZvbnQtc2l6ZT0iMTMiIGxlbmd0aEFkanVzdD0ic3BhY2luZyIgdGV4dExlbmd0aD0iNjIiIHg9IjE4NTkiIHk9IjI3Ny4yNzM0Ij4mIzE3MTtleHRlbmRzJiMxODc7PC90ZXh0PjwvZz48IS0tcmV2ZXJzZSBsaW5rIFZpZXcgRXhhbSBSZXN1bHRzIHRvIENhbGN1bGF0ZSBHUEEtLT48ZyBpZD0ibGlua19WaWV3IEV4YW0gUmVzdWx0c19DYWxjdWxhdGUgR1BBIj48cGF0aCBkPSJNMTc3MS4zMTIsMjQyLjI3MzYgQzE4NDMuMTkyLDI0NS45ODM2IDE5NDMuMzQsMjUxLjE3NDQgMjAxMC44MSwyNTQuNjY0NCAiIGZpbGw9Im5vbmUiIGlkPSJWaWV3IEV4YW0gUmVzdWx0cy1iYWNrdG8tQ2FsY3VsYXRlIEdQQSIgc3R5bGU9InN0cm9rZTojMTgxODE4O3N0cm9rZS13aWR0aDoxLjA7c3Ryb2tlLWRhc2hhcnJheTo3LjAsNy4wOyIvPjxwb2x5Z29uIGZpbGw9IiMxODE4MTgiIHBvaW50cz0iMTc2NS4zMiwyNDEuOTY0NCwxNzc0LjEwMTksMjQ2LjQyMywxNzcwLjMxMzQsMjQyLjIyMjEsMTc3NC41MTQyLDIzOC40MzM2LDE3NjUuMzIsMjQxLjk2NDQiIHN0eWxlPSJzdHJva2U6IzE4MTgxODtzdHJva2Utd2lkdGg6MS4wOyIvPjx0ZXh0IGZpbGw9IiMwMDAwMDAiIGZvbnQtZmFtaWx5PSJzYW5zLXNlcmlmIiBmb250LXNpemU9IjEzIiBsZW5ndGhBZGp1c3Q9InNwYWNpbmciIHRleHRMZW5ndGg9IjYyIiB4PSIxODU5IiB5PSIyNDUuMjczNCI+JiMxNzE7ZXh0ZW5kcyYjMTg3OzwvdGV4dD48L2c+PCEtLWxpbmsgVXBkYXRlIFN0dWRlbnQgSW5mb3JtYXRpb24gIHRvIFNSLS0+PGcgaWQ9ImxpbmtfVXBkYXRlIFN0dWRlbnQgSW5mb3JtYXRpb24gX1NSIj48cGF0aCBkPSJNMjA5NC41OSwyMjI0LjcwNDQgQzIxMzYuMTUsMjE2Ny4zNDQ0IDIyNDAuNDQsMjAyMy4zODQ0IDIyODcuNDIsMTk1OC41MzQ0ICIgZmlsbD0ibm9uZSIgaWQ9IlVwZGF0ZSBTdHVkZW50IEluZm9ybWF0aW9uIC1TUiIgc3R5bGU9InN0cm9rZTojMTgxODE4O3N0cm9rZS13aWR0aDoxLjA7Ii8+PC9nPjwhLS1saW5rIFVwZGF0ZSBFZHVjYXRpb25hbCBJbmZvcm1hdGlvbiAgdG8gU1ItLT48ZyBpZD0ibGlua19VcGRhdGUgRWR1Y2F0aW9uYWwgSW5mb3JtYXRpb24gX1NSIj48cGF0aCBkPSJNMjEwMi45NCwxNzExLjY5NDQgQzIxNDguNzUsMTc1OC44ODQ0IDIyNDMuMzEsMTg1Ni4yNjQ0IDIyODcuNCwxOTAxLjY4NDQgIiBmaWxsPSJub25lIiBpZD0iVXBkYXRlIEVkdWNhdGlvbmFsIEluZm9ybWF0aW9uIC1TUiIgc3R5bGU9InN0cm9rZTojMTgxODE4O3N0cm9rZS13aWR0aDoxLjA7Ii8+PC9nPjwhLS1saW5rIFVwZGF0ZSBFeGFtIEluZm9ybWF0aW9uICB0byBTUi0tPjxnIGlkPSJsaW5rX1VwZGF0ZSBFeGFtIEluZm9ybWF0aW9uIF9TUiI+PHBhdGggZD0iTTIxNzcuNiwxOTI1Ljk4NDQgQzIyMTguMjIsMTkyNS45ODQ0IDIyNjEuNTUsMTkyNS45ODQ0IDIyODcuNDQsMTkyNS45ODQ0ICIgZmlsbD0ibm9uZSIgaWQ9IlVwZGF0ZSBFeGFtIEluZm9ybWF0aW9uIC1TUiIgc3R5bGU9InN0cm9rZTojMTgxODE4O3N0cm9rZS13aWR0aDoxLjA7Ii8+PC9nPjwhLS1saW5rIFQgdG8gVmlldyBTdHVkZW50IEluZm9ybWF0aW9uIC0tPjxnIGlkPSJsaW5rX1RfVmlldyBTdHVkZW50IEluZm9ybWF0aW9uICI+PHBhdGggZD0iTTEzNi43NSwxODQyLjYyNDQgQzE3Mi4xMywxOTI0LjYwNDQgMjUzLDIxMTEuOTg0NCAyNTMsMjExMS45ODQ0IEMyNTMsMjExMS45ODQ0IDI1MywyMTExLjk4NDQgODc3LDIxMTEuOTg0NCBDODc3LDIxMTEuOTg0NCAxMTIzLjQ4LDIxODYuNDQ0NCAxMjQxLjkxLDIyMjIuMjI0NCAiIGZpbGw9Im5vbmUiIGlkPSJULVZpZXcgU3R1ZGVudCBJbmZvcm1hdGlvbiAiIHN0eWxlPSJzdHJva2U6IzE4MTgxODtzdHJva2Utd2lkdGg6MS4wOyIvPjx0ZXh0IGZpbGw9IiMwMDAwMDAiIGZvbnQtZmFtaWx5PSJzYW5zLXNlcmlmIiBmb250LXNpemU9IjEzIiBsZW5ndGhBZGp1c3Q9InNwYWNpbmciIHRleHRMZW5ndGg9IjIwMSIgeD0iMzY1IiB5PSIyMTEwLjI3MzQiPlNob3cgb3B0aW9uIHRvIGNyZWF0ZSBpZiBlbXB0eTwvdGV4dD48L2c+PCEtLXJldmVyc2UgbGluayBWaWV3IFN0dWRlbnQgSW5mb3JtYXRpb24gIHRvIENyZWF0ZSBTdHVkZW50IEluZm9ybWF0aW9uIC0tPjxnIGlkPSJsaW5rX1ZpZXcgU3R1ZGVudCBJbmZvcm1hdGlvbiBfQ3JlYXRlIFN0dWRlbnQgSW5mb3JtYXRpb24gIj48cGF0aCBkPSJNMTQwNC41NTIsMjI1Mi4xMTg4IEMxNDYyLjE5MiwyMjU4LjYzODggMTUzMC4yNywyMjY2LjMyNDQgMTU4OC44MywyMjcyLjk0NDQgIiBmaWxsPSJub25lIiBpZD0iVmlldyBTdHVkZW50IEluZm9ybWF0aW9uIC1iYWNrdG8tQ3JlYXRlIFN0dWRlbnQgSW5mb3JtYXRpb24gIiBzdHlsZT0ic3Ryb2tlOiMxODE4MTg7c3Ryb2tlLXdpZHRoOjEuMDtzdHJva2UtZGFzaGFycmF5OjcuMCw3LjA7Ii8+PHBvbHlnb24gZmlsbD0iIzE4MTgxOCIgcG9pbnRzPSIxMzk4LjU5LDIyNTEuNDQ0NCwxNDA3LjA4MzQsMjI1Ni40MzA2LDE0MDMuNTU4MywyMjUyLjAwNjQsMTQwNy45ODI2LDIyNDguNDgxMywxMzk4LjU5LDIyNTEuNDQ0NCIgc3R5bGU9InN0cm9rZTojMTgxODE4O3N0cm9rZS13aWR0aDoxLjA7Ii8+PHRleHQgZmlsbD0iIzAwMDAwMCIgZm9udC1mYW1pbHk9InNhbnMtc2VyaWYiIGZvbnQtc2l6ZT0iMTMiIGxlbmd0aEFkanVzdD0ic3BhY2luZyIgdGV4dExlbmd0aD0iNjIiIHg9IjE0NTQiIHk9IjIyNTcuMjczNCI+JiMxNzE7ZXh0ZW5kcyYjMTg3OzwvdGV4dD48L2c+PCEtLXJldmVyc2UgbGluayBWaWV3IFN0dWRlbnQgSW5mb3JtYXRpb24gIHRvIERlbGV0ZSBTdHVkZW50IEluZm9ybWF0aW9uIC0tPjxnIGlkPSJsaW5rX1ZpZXcgU3R1ZGVudCBJbmZvcm1hdGlvbiBfRGVsZXRlIFN0dWRlbnQgSW5mb3JtYXRpb24gIj48cGF0aCBkPSJNMTQwNS41MzU0LDIyMzAuMjYwOCBDMTQ2Mi42MzU0LDIyMjQuMTAwOCAxNTI5LjYsMjIxNi44OTQ0IDE1ODcuNjQsMjIxMC42MzQ0ICIgZmlsbD0ibm9uZSIgaWQ9IlZpZXcgU3R1ZGVudCBJbmZvcm1hdGlvbiAtYmFja3RvLURlbGV0ZSBTdHVkZW50IEluZm9ybWF0aW9uICIgc3R5bGU9InN0cm9rZTojMTgxODE4O3N0cm9rZS13aWR0aDoxLjA7c3Ryb2tlLWRhc2hhcnJheTo3LjAsNy4wOyIvPjxwb2x5Z29uIGZpbGw9IiMxODE4MTgiIHBvaW50cz0iMTM5OS41NywyMjMwLjkwNDQsMTQwOC45NDcxLDIyMzMuOTE2LDE0MDQuNTQxMiwyMjMwLjM2ODEsMTQwOC4wODksMjIyNS45NjIxLDEzOTkuNTcsMjIzMC45MDQ0IiBzdHlsZT0ic3Ryb2tlOiMxODE4MTg7c3Ryb2tlLXdpZHRoOjEuMDsiLz48dGV4dCBmaWxsPSIjMDAwMDAwIiBmb250LWZhbWlseT0ic2Fucy1zZXJpZiIgZm9udC1zaXplPSIxMyIgbGVuZ3RoQWRqdXN0PSJzcGFjaW5nIiB0ZXh0TGVuZ3RoPSI2MiIgeD0iMTQ1NCIgeT0iMjIxOC4yNzM0Ij4mIzE3MTtleHRlbmRzJiMxODc7PC90ZXh0PjwvZz48IS0tcmV2ZXJzZSBsaW5rIFZpZXcgU3R1ZGVudCBJbmZvcm1hdGlvbiAgdG8gR2VuZXJhdGUgU3R1ZGVudCBBdHRlbmRhbmNlIFJlcG9ydHMtLT48ZyBpZD0ibGlua19WaWV3IFN0dWRlbnQgSW5mb3JtYXRpb24gX0dlbmVyYXRlIFN0dWRlbnQgQXR0ZW5kYW5jZSBSZXBvcnRzIj48cGF0aCBkPSJNMTM2OC43ODMxLDIyMTkuMzYxIEMxNDQwLjA1MzEsMjE5NC44MjEgMTU0NywyMTU3Ljk4NDQgMTU0NywyMTU3Ljk4NDQgQzE1NDcsMjE1Ny45ODQ0IDE1NzkuNDcsMjE0Ni44MTQ0IDE2MTMuMDcsMjEzNS4yNTQ0ICIgZmlsbD0ibm9uZSIgaWQ9IlZpZXcgU3R1ZGVudCBJbmZvcm1hdGlvbiAtYmFja3RvLUdlbmVyYXRlIFN0dWRlbnQgQXR0ZW5kYW5jZSBSZXBvcnRzIiBzdHlsZT0ic3Ryb2tlOiMxODE4MTg7c3Ryb2tlLXdpZHRoOjEuMDtzdHJva2UtZGFzaGFycmF5OjcuMCw3LjA7Ii8+PHBvbHlnb24gZmlsbD0iIzE4MTgxOCIgcG9pbnRzPSIxMzYzLjExLDIyMjEuMzE0NCwxMzcyLjkyMTksMjIyMi4xNjY0LDEzNjcuODM3NiwyMjE5LjY4NjUsMTM3MC4zMTc0LDIyMTQuNjAyMiwxMzYzLjExLDIyMjEuMzE0NCIgc3R5bGU9InN0cm9rZTojMTgxODE4O3N0cm9rZS13aWR0aDoxLjA7Ii8+PHRleHQgZmlsbD0iIzAwMDAwMCIgZm9udC1mYW1pbHk9InNhbnMtc2VyaWYiIGZvbnQtc2l6ZT0iMTMiIGxlbmd0aEFkanVzdD0ic3BhY2luZyIgdGV4dExlbmd0aD0iNjIiIHg9IjE0NTQiIHk9IjIxNjkuMjczNCI+JiMxNzE7ZXh0ZW5kcyYjMTg3OzwvdGV4dD48L2c+PCEtLXJldmVyc2UgbGluayBWaWV3IFN0dWRlbnQgSW5mb3JtYXRpb24gIHRvIEdlbmVyYXRlIFN0dWRlbnQgUGVyZm9ybWFuY2UgUmVwb3J0cy0tPjxnIGlkPSJsaW5rX1ZpZXcgU3R1ZGVudCBJbmZvcm1hdGlvbiBfR2VuZXJhdGUgU3R1ZGVudCBQZXJmb3JtYW5jZSBSZXBvcnRzIj48cGF0aCBkPSJNMTM0Mi45MTI2LDIyNjYuODY5MSBDMTQwOC40NzI2LDIzMTIuODM5MSAxNTQ3LDI0MDkuOTg0NCAxNTQ3LDI0MDkuOTg0NCBDMTU0NywyNDA5Ljk4NDQgMTU3OC40MiwyNDIwLjc5NDQgMTYxMS40NCwyNDMyLjE1NDQgIiBmaWxsPSJub25lIiBpZD0iVmlldyBTdHVkZW50IEluZm9ybWF0aW9uIC1iYWNrdG8tR2VuZXJhdGUgU3R1ZGVudCBQZXJmb3JtYW5jZSBSZXBvcnRzIiBzdHlsZT0ic3Ryb2tlOiMxODE4MTg7c3Ryb2tlLXdpZHRoOjEuMDtzdHJva2UtZGFzaGFycmF5OjcuMCw3LjA7Ii8+PHBvbHlnb24gZmlsbD0iIzE4MTgxOCIgcG9pbnRzPSIxMzM4LDIyNjMuNDI0NCwxMzQzLjA3MjUsMjI3MS44NjY1LDEzNDIuMDkzOSwyMjY2LjI5NSwxMzQ3LjY2NTQsMjI2NS4zMTYzLDEzMzgsMjI2My40MjQ0IiBzdHlsZT0ic3Ryb2tlOiMxODE4MTg7c3Ryb2tlLXdpZHRoOjEuMDsiLz48dGV4dCBmaWxsPSIjMDAwMDAwIiBmb250LWZhbWlseT0ic2Fucy1zZXJpZiIgZm9udC1zaXplPSIxMyIgbGVuZ3RoQWRqdXN0PSJzcGFjaW5nIiB0ZXh0TGVuZ3RoPSI2MiIgeD0iMTQ1NCIgeT0iMjM0NC4yNzM0Ij4mIzE3MTtleHRlbmRzJiMxODc7PC90ZXh0PjwvZz48IS0tcmV2ZXJzZSBsaW5rIFZpZXcgU3R1ZGVudCBJbmZvcm1hdGlvbiAgdG8gR2VuZXJhdGUgRW5yb2xsbWVudCBSZXBvcnRzLS0+PGcgaWQ9ImxpbmtfVmlldyBTdHVkZW50IEluZm9ybWF0aW9uIF9HZW5lcmF0ZSBFbnJvbGxtZW50IFJlcG9ydHMiPjxwYXRoIGQ9Ik0xMzY3LjU1ODMsMjI2Mi42OTAyIEMxNDM4Ljc0ODMsMjI4Ny44MDAyIDE1NDcsMjMyNS45ODQ0IDE1NDcsMjMyNS45ODQ0IEMxNTQ3LDIzMjUuOTg0NCAxNTg0Ljk0LDIzMzcuNDA0NCAxNjIxLjI0LDIzNDguMzM0NCAiIGZpbGw9Im5vbmUiIGlkPSJWaWV3IFN0dWRlbnQgSW5mb3JtYXRpb24gLWJhY2t0by1HZW5lcmF0ZSBFbnJvbGxtZW50IFJlcG9ydHMiIHN0eWxlPSJzdHJva2U6IzE4MTgxODtzdHJva2Utd2lkdGg6MS4wO3N0cm9rZS1kYXNoYXJyYXk6Ny4wLDcuMDsiLz48cG9seWdvbiBmaWxsPSIjMTgxODE4IiBwb2ludHM9IjEzNjEuOSwyMjYwLjY5NDQsMTM2OS4wNTcsMjI2Ny40NjAzLDEzNjYuNjE1MywyMjYyLjM1NzUsMTM3MS43MTgsMjI1OS45MTU4LDEzNjEuOSwyMjYwLjY5NDQiIHN0eWxlPSJzdHJva2U6IzE4MTgxODtzdHJva2Utd2lkdGg6MS4wOyIvPjx0ZXh0IGZpbGw9IiMwMDAwMDAiIGZvbnQtZmFtaWx5PSJzYW5zLXNlcmlmIiBmb250LXNpemU9IjEzIiBsZW5ndGhBZGp1c3Q9InNwYWNpbmciIHRleHRMZW5ndGg9IjYyIiB4PSIxNDU0IiB5PSIyMjkyLjI3MzQiPiYjMTcxO2V4dGVuZHMmIzE4Nzs8L3RleHQ+PC9nPjwhLS1saW5rIENyZWF0ZSBTdHVkZW50IEluZm9ybWF0aW9uICB0byBVcGRhdGUgU3R1ZGVudCBJbmZvcm1hdGlvbiAtLT48ZyBpZD0ibGlua19DcmVhdGUgU3R1ZGVudCBJbmZvcm1hdGlvbiBfVXBkYXRlIFN0dWRlbnQgSW5mb3JtYXRpb24gIj48cGF0aCBkPSJNMTc5NS4zNCwyMjc4LjQ5NDQgQzE4NTYuODIsMjI3NS4zMzQ0IDE5MjIsMjI3MS45ODQ0IDE5MjIsMjI3MS45ODQ0IEMxOTIyLDIyNzEuOTg0NCAxOTQ1LjA4NjgsMjI2OC41MTcgMTk3Ny44NTY4LDIyNjMuNTg3ICIgZmlsbD0ibm9uZSIgaWQ9IkNyZWF0ZSBTdHVkZW50IEluZm9ybWF0aW9uIC10by1VcGRhdGUgU3R1ZGVudCBJbmZvcm1hdGlvbiAiIHN0eWxlPSJzdHJva2U6IzE4MTgxODtzdHJva2Utd2lkdGg6MS4wO3N0cm9rZS1kYXNoYXJyYXk6Ny4wLDcuMDsiLz48cG9seWdvbiBmaWxsPSIjMTgxODE4IiBwb2ludHM9IjE5ODMuNzksMjI2Mi42OTQ0LDE5NzQuMjk1MSwyMjYwLjA3NzgsMTk3OC44NDU2LDIyNjMuNDM4MiwxOTc1LjQ4NTIsMjI2Ny45ODg4LDE5ODMuNzksMjI2Mi42OTQ0IiBzdHlsZT0ic3Ryb2tlOiMxODE4MTg7c3Ryb2tlLXdpZHRoOjEuMDsiLz48dGV4dCBmaWxsPSIjMDAwMDAwIiBmb250LWZhbWlseT0ic2Fucy1zZXJpZiIgZm9udC1zaXplPSIxMyIgbGVuZ3RoQWRqdXN0PSJzcGFjaW5nIiB0ZXh0TGVuZ3RoPSI2MSIgeD0iMTg1OS41IiB5PSIyMjcwLjI3MzQiPiYjMTcxO2luY2x1ZGUmIzE4Nzs8L3RleHQ+PC9nPjwhLS1saW5rIERlbGV0ZSBTdHVkZW50IEluZm9ybWF0aW9uICB0byBVcGRhdGUgU3R1ZGVudCBJbmZvcm1hdGlvbiAtLT48ZyBpZD0ibGlua19EZWxldGUgU3R1ZGVudCBJbmZvcm1hdGlvbiBfVXBkYXRlIFN0dWRlbnQgSW5mb3JtYXRpb24gIj48cGF0aCBkPSJNMTc4NC4wNCwyMjEyLjA5NDQgQzE4NDMuNjEsMjIxOS42NTQ0IDE5MTQuMDQ3NiwyMjI4LjU3OTggMTk3My42MDc2LDIyMzYuMTI5OCAiIGZpbGw9Im5vbmUiIGlkPSJEZWxldGUgU3R1ZGVudCBJbmZvcm1hdGlvbiAtdG8tVXBkYXRlIFN0dWRlbnQgSW5mb3JtYXRpb24gIiBzdHlsZT0ic3Ryb2tlOiMxODE4MTg7c3Ryb2tlLXdpZHRoOjEuMDtzdHJva2UtZGFzaGFycmF5OjcuMCw3LjA7Ii8+PHBvbHlnb24gZmlsbD0iIzE4MTgxOCIgcG9pbnRzPSIxOTc5LjU2LDIyMzYuODg0NCwxOTcxLjEzNDUsMjIzMS43ODQzLDE5NzQuNTk5NywyMjM2LjI1NTYsMTk3MC4xMjg0LDIyMzkuNzIwOCwxOTc5LjU2LDIyMzYuODg0NCIgc3R5bGU9InN0cm9rZTojMTgxODE4O3N0cm9rZS13aWR0aDoxLjA7Ii8+PHRleHQgZmlsbD0iIzAwMDAwMCIgZm9udC1mYW1pbHk9InNhbnMtc2VyaWYiIGZvbnQtc2l6ZT0iMTMiIGxlbmd0aEFkanVzdD0ic3BhY2luZyIgdGV4dExlbmd0aD0iNjEiIHg9IjE4NTkuNSIgeT0iMjIyMC4yNzM0Ij4mIzE3MTtpbmNsdWRlJiMxODc7PC90ZXh0PjwvZz48IS0tbGluayBHZW5lcmF0ZSBTdHVkZW50IEF0dGVuZGFuY2UgUmVwb3J0cyB0byBVcGRhdGUgU3R1ZGVudCBJbmZvcm1hdGlvbiAtLT48ZyBpZD0ibGlua19HZW5lcmF0ZSBTdHVkZW50IEF0dGVuZGFuY2UgUmVwb3J0c19VcGRhdGUgU3R1ZGVudCBJbmZvcm1hdGlvbiAiPjxwYXRoIGQ9Ik0xNzYxLjkzLDIxMzUuMjU0NCBDMTc5NS41MywyMTQ2LjgxNDQgMTgyOCwyMTU3Ljk4NDQgMTgyOCwyMTU3Ljk4NDQgQzE4MjgsMjE1Ny45ODQ0IDE5MzkuNDUwMSwyMTk5LjAzOTYgMjAxMi4zOTAxLDIyMjUuOTE5NiAiIGZpbGw9Im5vbmUiIGlkPSJHZW5lcmF0ZSBTdHVkZW50IEF0dGVuZGFuY2UgUmVwb3J0cy10by1VcGRhdGUgU3R1ZGVudCBJbmZvcm1hdGlvbiAiIHN0eWxlPSJzdHJva2U6IzE4MTgxODtzdHJva2Utd2lkdGg6MS4wO3N0cm9rZS1kYXNoYXJyYXk6Ny4wLDcuMDsiLz48cG9seWdvbiBmaWxsPSIjMTgxODE4IiBwb2ludHM9IjIwMTguMDIsMjIyNy45OTQ0LDIwMTAuOTU4MywyMjIxLjEyOSwyMDEzLjMyODQsMjIyNi4yNjU0LDIwMDguMTkyLDIyMjguNjM1NSwyMDE4LjAyLDIyMjcuOTk0NCIgc3R5bGU9InN0cm9rZTojMTgxODE4O3N0cm9rZS13aWR0aDoxLjA7Ii8+PHRleHQgZmlsbD0iIzAwMDAwMCIgZm9udC1mYW1pbHk9InNhbnMtc2VyaWYiIGZvbnQtc2l6ZT0iMTMiIGxlbmd0aEFkanVzdD0ic3BhY2luZyIgdGV4dExlbmd0aD0iNjEiIHg9IjE4NTkuNSIgeT0iMjE2OC4yNzM0Ij4mIzE3MTtpbmNsdWRlJiMxODc7PC90ZXh0PjwvZz48IS0tbGluayBHZW5lcmF0ZSBTdHVkZW50IFBlcmZvcm1hbmNlIFJlcG9ydHMgdG8gVXBkYXRlIFN0dWRlbnQgSW5mb3JtYXRpb24gLS0+PGcgaWQ9ImxpbmtfR2VuZXJhdGUgU3R1ZGVudCBQZXJmb3JtYW5jZSBSZXBvcnRzX1VwZGF0ZSBTdHVkZW50IEluZm9ybWF0aW9uICI+PHBhdGggZD0iTTE3NjMuNTYsMjQzMi4xNTQ0IEMxNzk2LjU4LDI0MjAuNzk0NCAxODI4LDI0MDkuOTg0NCAxODI4LDI0MDkuOTg0NCBDMTgyOCwyNDA5Ljk4NDQgMTk2NS45MjM0LDIzMjAuMDgwNSAyMDM0LjMyMzQsMjI3NS41MDA1ICIgZmlsbD0ibm9uZSIgaWQ9IkdlbmVyYXRlIFN0dWRlbnQgUGVyZm9ybWFuY2UgUmVwb3J0cy10by1VcGRhdGUgU3R1ZGVudCBJbmZvcm1hdGlvbiAiIHN0eWxlPSJzdHJva2U6IzE4MTgxODtzdHJva2Utd2lkdGg6MS4wO3N0cm9rZS1kYXNoYXJyYXk6Ny4wLDcuMDsiLz48cG9seWdvbiBmaWxsPSIjMTgxODE4IiBwb2ludHM9IjIwMzkuMzUsMjI3Mi4yMjQ0LDIwMjkuNjI2LDIyNzMuNzg3NSwyMDM1LjE2MTEsMjI3NC45NTQ1LDIwMzMuOTk0MSwyMjgwLjQ4OTcsMjAzOS4zNSwyMjcyLjIyNDQiIHN0eWxlPSJzdHJva2U6IzE4MTgxODtzdHJva2Utd2lkdGg6MS4wOyIvPjx0ZXh0IGZpbGw9IiMwMDAwMDAiIGZvbnQtZmFtaWx5PSJzYW5zLXNlcmlmIiBmb250LXNpemU9IjEzIiBsZW5ndGhBZGp1c3Q9InNwYWNpbmciIHRleHRMZW5ndGg9IjYxIiB4PSIxODU5LjUiIHk9IjIzNTIuMjczNCI+JiMxNzE7aW5jbHVkZSYjMTg3OzwvdGV4dD48L2c+PCEtLWxpbmsgR2VuZXJhdGUgRW5yb2xsbWVudCBSZXBvcnRzIHRvIFVwZGF0ZSBTdHVkZW50IEluZm9ybWF0aW9uIC0tPjxnIGlkPSJsaW5rX0dlbmVyYXRlIEVucm9sbG1lbnQgUmVwb3J0c19VcGRhdGUgU3R1ZGVudCBJbmZvcm1hdGlvbiAiPjxwYXRoIGQ9Ik0xNzU0LjQ4LDIzNDguNDg0NCBDMTgyMy41MiwyMzI4LjA4NDQgMTkyMiwyMjk4Ljk4NDQgMTkyMiwyMjk4Ljk4NDQgQzE5MjIsMjI5OC45ODQ0IDE5NjUuMDQ3LDIyODQuOTE4NyAyMDA3LjUwNywyMjcxLjAzODcgIiBmaWxsPSJub25lIiBpZD0iR2VuZXJhdGUgRW5yb2xsbWVudCBSZXBvcnRzLXRvLVVwZGF0ZSBTdHVkZW50IEluZm9ybWF0aW9uICIgc3R5bGU9InN0cm9rZTojMTgxODE4O3N0cm9rZS13aWR0aDoxLjA7c3Ryb2tlLWRhc2hhcnJheTo3LjAsNy4wOyIvPjxwb2x5Z29uIGZpbGw9IiMxODE4MTgiIHBvaW50cz0iMjAxMy4yMSwyMjY5LjE3NDQsMjAwMy40MTI2LDIyNjguMTY4OCwyMDA4LjQ1NzUsMjI3MC43MjgsMjAwNS44OTgzLDIyNzUuNzcyOCwyMDEzLjIxLDIyNjkuMTc0NCIgc3R5bGU9InN0cm9rZTojMTgxODE4O3N0cm9rZS13aWR0aDoxLjA7Ii8+PHRleHQgZmlsbD0iIzAwMDAwMCIgZm9udC1mYW1pbHk9InNhbnMtc2VyaWYiIGZvbnQtc2l6ZT0iMTMiIGxlbmd0aEFkanVzdD0ic3BhY2luZyIgdGV4dExlbmd0aD0iNjEiIHg9IjE4NTkuNSIgeT0iMjI5Ny4yNzM0Ij4mIzE3MTtpbmNsdWRlJiMxODc7PC90ZXh0PjwvZz48IS0tbGluayBUIHRvIFZpZXcgRWR1Y2F0aW9uYWwgSW5mb3JtYXRpb24gLS0+PGcgaWQ9ImxpbmtfVF9WaWV3IEVkdWNhdGlvbmFsIEluZm9ybWF0aW9uICI+PHBhdGggZD0iTTE0NC4xOSwxNzkzLjM2NDQgQzE4Mi4zLDE3NzQuNjY0NCAyNTMsMTczOS45ODQ0IDI1MywxNzM5Ljk4NDQgQzI1MywxNzM5Ljk4NDQgMjUzLDE3MzkuOTg0NCA4NzcsMTczOS45ODQ0IEM4NzcsMTczOS45ODQ0IDEwNjIuODEsMTczMS4yODQ0IDExODkuMjksMTcyNS4zNTQ0ICIgZmlsbD0ibm9uZSIgaWQ9IlQtVmlldyBFZHVjYXRpb25hbCBJbmZvcm1hdGlvbiAiIHN0eWxlPSJzdHJva2U6IzE4MTgxODtzdHJva2Utd2lkdGg6MS4wOyIvPjx0ZXh0IGZpbGw9IiMwMDAwMDAiIGZvbnQtZmFtaWx5PSJzYW5zLXNlcmlmIiBmb250LXNpemU9IjEzIiBsZW5ndGhBZGp1c3Q9InNwYWNpbmciIHRleHRMZW5ndGg9IjIwMSIgeD0iMzY1IiB5PSIxNzM4LjI3MzQiPlNob3cgb3B0aW9uIHRvIGNyZWF0ZSBpZiBlbXB0eTwvdGV4dD48L2c+PCEtLXJldmVyc2UgbGluayBWaWV3IEVkdWNhdGlvbmFsIEluZm9ybWF0aW9uICB0byBDcmVhdGUgQXNzZXNzbWVudHMtLT48ZyBpZD0ibGlua19WaWV3IEVkdWNhdGlvbmFsIEluZm9ybWF0aW9uIF9DcmVhdGUgQXNzZXNzbWVudHMiPjxwYXRoIGQ9Ik0xMzgxLjQ1OSwxNjk3LjQzNyBDMTQ1Mi42MjksMTY3Ni4xNzcgMTU0NywxNjQ3Ljk4NDQgMTU0NywxNjQ3Ljk4NDQgQzE1NDcsMTY0Ny45ODQ0IDE1OTIuNjgsMTYzNi4xOTQ0IDE2MzEuNzcsMTYyNi4xMDQ0ICIgZmlsbD0ibm9uZSIgaWQ9IlZpZXcgRWR1Y2F0aW9uYWwgSW5mb3JtYXRpb24gLWJhY2t0by1DcmVhdGUgQXNzZXNzbWVudHMiIHN0eWxlPSJzdHJva2U6IzE4MTgxODtzdHJva2Utd2lkdGg6MS4wO3N0cm9rZS1kYXNoYXJyYXk6Ny4wLDcuMDsiLz48cG9seWdvbiBmaWxsPSIjMTgxODE4IiBwb2ludHM9IjEzNzUuNzEsMTY5OS4xNTQ0LDEzODUuNDc4NCwxNzAwLjQxMSwxMzgwLjUwMDgsMTY5Ny43MjMzLDEzODMuMTg4NiwxNjkyLjc0NTcsMTM3NS43MSwxNjk5LjE1NDQiIHN0eWxlPSJzdHJva2U6IzE4MTgxODtzdHJva2Utd2lkdGg6MS4wOyIvPjx0ZXh0IGZpbGw9IiMwMDAwMDAiIGZvbnQtZmFtaWx5PSJzYW5zLXNlcmlmIiBmb250LXNpemU9IjEzIiBsZW5ndGhBZGp1c3Q9InNwYWNpbmciIHRleHRMZW5ndGg9IjYyIiB4PSIxNDU0IiB5PSIxNjU3LjI3MzQiPiYjMTcxO2V4dGVuZHMmIzE4Nzs8L3RleHQ+PC9nPjwhLS1yZXZlcnNlIGxpbmsgVmlldyBFZHVjYXRpb25hbCBJbmZvcm1hdGlvbiAgdG8gRWRpdCBBc3Nlc3NtZW50cy0tPjxnIGlkPSJsaW5rX1ZpZXcgRWR1Y2F0aW9uYWwgSW5mb3JtYXRpb24gX0VkaXQgQXNzZXNzbWVudHMiPjxwYXRoIGQ9Ik0xNDE5LjIzMTgsMTczMC45OTUzIEMxNDg0LjYxMTgsMTczNy4zNTUzIDE1NjAuMywxNzQ0LjcxNDQgMTYxNy4yNCwxNzUwLjI0NDQgIiBmaWxsPSJub25lIiBpZD0iVmlldyBFZHVjYXRpb25hbCBJbmZvcm1hdGlvbiAtYmFja3RvLUVkaXQgQXNzZXNzbWVudHMiIHN0eWxlPSJzdHJva2U6IzE4MTgxODtzdHJva2Utd2lkdGg6MS4wO3N0cm9rZS1kYXNoYXJyYXk6Ny4wLDcuMDsiLz48cG9seWdvbiBmaWxsPSIjMTgxODE4IiBwb2ludHM9IjE0MTMuMjYsMTczMC40MTQ0LDE0MjEuODMwNCwxNzM1LjI2NywxNDE4LjIzNjUsMTczMC44OTg1LDE0MjIuNjA1LDE3MjcuMzA0NiwxNDEzLjI2LDE3MzAuNDE0NCIgc3R5bGU9InN0cm9rZTojMTgxODE4O3N0cm9rZS13aWR0aDoxLjA7Ii8+PHRleHQgZmlsbD0iIzAwMDAwMCIgZm9udC1mYW1pbHk9InNhbnMtc2VyaWYiIGZvbnQtc2l6ZT0iMTMiIGxlbmd0aEFkanVzdD0ic3BhY2luZyIgdGV4dExlbmd0aD0iNjIiIHg9IjE0NTQiIHk9IjE3MzQuMjczNCI+JiMxNzE7ZXh0ZW5kcyYjMTg3OzwvdGV4dD48L2c+PCEtLXJldmVyc2UgbGluayBWaWV3IEVkdWNhdGlvbmFsIEluZm9ybWF0aW9uICB0byBEZWxldGUgQXNzZXNzbWVudHMtLT48ZyBpZD0ibGlua19WaWV3IEVkdWNhdGlvbmFsIEluZm9ybWF0aW9uIF9EZWxldGUgQXNzZXNzbWVudHMiPjxwYXRoIGQ9Ik0xNDIwLjI0NDgsMTcwOS40NzQ3IEMxNDgzLjA3NDgsMTcwMy42OTQ3IDE1NTQuNjgsMTY5Ny4xMTQ0IDE2MTAuOTMsMTY5MS45MzQ0ICIgZmlsbD0ibm9uZSIgaWQ9IlZpZXcgRWR1Y2F0aW9uYWwgSW5mb3JtYXRpb24gLWJhY2t0by1EZWxldGUgQXNzZXNzbWVudHMiIHN0eWxlPSJzdHJva2U6IzE4MTgxODtzdHJva2Utd2lkdGg6MS4wO3N0cm9rZS1kYXNoYXJyYXk6Ny4wLDcuMDsiLz48cG9seWdvbiBmaWxsPSIjMTgxODE4IiBwb2ludHM9IjE0MTQuMjcsMTcxMC4wMjQ0LDE0MjMuNTk4NiwxNzEzLjE4MzEsMTQxOS4yNDksMTcwOS41NjYzLDE0MjIuODY1NywxNzA1LjIxNjcsMTQxNC4yNywxNzEwLjAyNDQiIHN0eWxlPSJzdHJva2U6IzE4MTgxODtzdHJva2Utd2lkdGg6MS4wOyIvPjx0ZXh0IGZpbGw9IiMwMDAwMDAiIGZvbnQtZmFtaWx5PSJzYW5zLXNlcmlmIiBmb250LXNpemU9IjEzIiBsZW5ndGhBZGp1c3Q9InNwYWNpbmciIHRleHRMZW5ndGg9IjYyIiB4PSIxNDU0IiB5PSIxNzAwLjI3MzQiPiYjMTcxO2V4dGVuZHMmIzE4Nzs8L3RleHQ+PC9nPjwhLS1saW5rIFQgdG8gVmlldyBTdHVkZW50IFN1Ym1pc3Npb25zLS0+PGcgaWQ9ImxpbmtfVF9WaWV3IFN0dWRlbnQgU3VibWlzc2lvbnMiPjxwYXRoIGQ9Ik0xNDQuMTksMTc3MC40ODQ0IEMxODIuMywxNzE0Ljk2NDQgMjUzLDE2MTEuOTg0NCAyNTMsMTYxMS45ODQ0IEMyNTMsMTYxMS45ODQ0IDI1MywxNjExLjk4NDQgODc3LDE2MTEuOTg0NCBDODc3LDE2MTEuOTg0NCAxMDg1Ljc2LDE1OTIuNDI0NCAxMjExLjM1LDE1ODAuNjY0NCAiIGZpbGw9Im5vbmUiIGlkPSJULVZpZXcgU3R1ZGVudCBTdWJtaXNzaW9ucyIgc3R5bGU9InN0cm9rZTojMTgxODE4O3N0cm9rZS13aWR0aDoxLjA7Ii8+PHRleHQgZmlsbD0iIzAwMDAwMCIgZm9udC1mYW1pbHk9InNhbnMtc2VyaWYiIGZvbnQtc2l6ZT0iMTMiIGxlbmd0aEFkanVzdD0ic3BhY2luZyIgdGV4dExlbmd0aD0iMjAxIiB4PSIzNjUiIHk9IjE2MTAuMjczNCI+U2hvdyBvcHRpb24gdG8gY3JlYXRlIGlmIGVtcHR5PC90ZXh0PjwvZz48IS0tcmV2ZXJzZSBsaW5rIFZpZXcgU3R1ZGVudCBTdWJtaXNzaW9ucyB0byBNYXJrIFN0dWRlbnQgU3VibWlzc2lvbnMtLT48ZyBpZD0ibGlua19WaWV3IFN0dWRlbnQgU3VibWlzc2lvbnNfTWFyayBTdHVkZW50IFN1Ym1pc3Npb25zIj48cGF0aCBkPSJNMTQwNC41NjE4LDE1NjIuNDAzNCBDMTQ2NC4wNzE4LDE1NTYuNjEzNCAxNTM1LjA5LDE1NDkuNzA0NCAxNTk0LjQ4LDE1NDMuOTM0NCAiIGZpbGw9Im5vbmUiIGlkPSJWaWV3IFN0dWRlbnQgU3VibWlzc2lvbnMtYmFja3RvLU1hcmsgU3R1ZGVudCBTdWJtaXNzaW9ucyIgc3R5bGU9InN0cm9rZTojMTgxODE4O3N0cm9rZS13aWR0aDoxLjA7c3Ryb2tlLWRhc2hhcnJheTo3LjAsNy4wOyIvPjxwb2x5Z29uIGZpbGw9IiMxODE4MTgiIHBvaW50cz0iMTM5OC41OSwxNTYyLjk4NDQsMTQwNy45MzUxLDE1NjYuMDk0LDE0MDMuNTY2NSwxNTYyLjUwMDIsMTQwNy4xNjA0LDE1NTguMTMxNiwxMzk4LjU5LDE1NjIuOTg0NCIgc3R5bGU9InN0cm9rZTojMTgxODE4O3N0cm9rZS13aWR0aDoxLjA7Ii8+PHRleHQgZmlsbD0iIzAwMDAwMCIgZm9udC1mYW1pbHk9InNhbnMtc2VyaWYiIGZvbnQtc2l6ZT0iMTMiIGxlbmd0aEFkanVzdD0ic3BhY2luZyIgdGV4dExlbmd0aD0iNjIiIHg9IjE0NTQiIHk9IjE1NTEuMjczNCI+JiMxNzE7ZXh0ZW5kcyYjMTg3OzwvdGV4dD48L2c+PCEtLWxpbmsgQ3JlYXRlIEFzc2Vzc21lbnRzIHRvIFVwZGF0ZSBFZHVjYXRpb25hbCBJbmZvcm1hdGlvbiAtLT48ZyBpZD0ibGlua19DcmVhdGUgQXNzZXNzbWVudHNfVXBkYXRlIEVkdWNhdGlvbmFsIEluZm9ybWF0aW9uICI+PHBhdGggZD0iTTE3NTEuNDYsMTYyMy44NzQ0IEMxODEzLjkyLDE2MzUuNjc0NCAxOTA0LjQ3NDEsMTY1Mi43ODEzIDE5NzUuODI0MSwxNjY2LjI1MTMgIiBmaWxsPSJub25lIiBpZD0iQ3JlYXRlIEFzc2Vzc21lbnRzLXRvLVVwZGF0ZSBFZHVjYXRpb25hbCBJbmZvcm1hdGlvbiAiIHN0eWxlPSJzdHJva2U6IzE4MTgxODtzdHJva2Utd2lkdGg6MS4wO3N0cm9rZS1kYXNoYXJyYXk6Ny4wLDcuMDsiLz48cG9seWdvbiBmaWxsPSIjMTgxODE4IiBwb2ludHM9IjE5ODEuNzIsMTY2Ny4zNjQ0LDE5NzMuNjE4MywxNjYxLjc2NDIsMTk3Ni44MDY4LDE2NjYuNDM2OCwxOTcyLjEzNDIsMTY2OS42MjUzLDE5ODEuNzIsMTY2Ny4zNjQ0IiBzdHlsZT0ic3Ryb2tlOiMxODE4MTg7c3Ryb2tlLXdpZHRoOjEuMDsiLz48dGV4dCBmaWxsPSIjMDAwMDAwIiBmb250LWZhbWlseT0ic2Fucy1zZXJpZiIgZm9udC1zaXplPSIxMyIgbGVuZ3RoQWRqdXN0PSJzcGFjaW5nIiB0ZXh0TGVuZ3RoPSI2MSIgeD0iMTg1OS41IiB5PSIxNjQzLjI3MzQiPiYjMTcxO2luY2x1ZGUmIzE4Nzs8L3RleHQ+PC9nPjwhLS1saW5rIEVkaXQgQXNzZXNzbWVudHMgdG8gVXBkYXRlIEVkdWNhdGlvbmFsIEluZm9ybWF0aW9uIC0tPjxnIGlkPSJsaW5rX0VkaXQgQXNzZXNzbWVudHNfVXBkYXRlIEVkdWNhdGlvbmFsIEluZm9ybWF0aW9uICI+PHBhdGggZD0iTTE3NDcuMiwxNzQ2LjA0NDQgQzE4MDkuMjksMTczNC40ODQ0IDE5MDIuMjYxNSwxNzE3LjE2MzUgMTk3NS4xOTE1LDE3MDMuNTczNSAiIGZpbGw9Im5vbmUiIGlkPSJFZGl0IEFzc2Vzc21lbnRzLXRvLVVwZGF0ZSBFZHVjYXRpb25hbCBJbmZvcm1hdGlvbiAiIHN0eWxlPSJzdHJva2U6IzE4MTgxODtzdHJva2Utd2lkdGg6MS4wO3N0cm9rZS1kYXNoYXJyYXk6Ny4wLDcuMDsiLz48cG9seWdvbiBmaWxsPSIjMTgxODE4IiBwb2ludHM9IjE5ODEuMDksMTcwMi40NzQ0LDE5NzEuNTA5NSwxNzAwLjE5MDgsMTk3Ni4xNzQ2LDE3MDMuMzkwMywxOTcyLjk3NTEsMTcwOC4wNTU0LDE5ODEuMDksMTcwMi40NzQ0IiBzdHlsZT0ic3Ryb2tlOiMxODE4MTg7c3Ryb2tlLXdpZHRoOjEuMDsiLz48dGV4dCBmaWxsPSIjMDAwMDAwIiBmb250LWZhbWlseT0ic2Fucy1zZXJpZiIgZm9udC1zaXplPSIxMyIgbGVuZ3RoQWRqdXN0PSJzcGFjaW5nIiB0ZXh0TGVuZ3RoPSI2MSIgeD0iMTg1OS41IiB5PSIxNzEzLjI3MzQiPiYjMTcxO2luY2x1ZGUmIzE4Nzs8L3RleHQ+PC9nPjwhLS1saW5rIERlbGV0ZSBBc3Nlc3NtZW50cyB0byBVcGRhdGUgRWR1Y2F0aW9uYWwgSW5mb3JtYXRpb24gLS0+PGcgaWQ9ImxpbmtfRGVsZXRlIEFzc2Vzc21lbnRzX1VwZGF0ZSBFZHVjYXRpb25hbCBJbmZvcm1hdGlvbiAiPjxwYXRoIGQ9Ik0xNzY5LjUyLDE2ODQuOTg0NCBDMTgyMi4zMiwxNjg0Ljk4NDQgMTg4Ni4yMSwxNjg0Ljk4NDQgMTk0NS44MiwxNjg0Ljk4NDQgIiBmaWxsPSJub25lIiBpZD0iRGVsZXRlIEFzc2Vzc21lbnRzLXRvLVVwZGF0ZSBFZHVjYXRpb25hbCBJbmZvcm1hdGlvbiAiIHN0eWxlPSJzdHJva2U6IzE4MTgxODtzdHJva2Utd2lkdGg6MS4wO3N0cm9rZS1kYXNoYXJyYXk6Ny4wLDcuMDsiLz48cG9seWdvbiBmaWxsPSIjMTgxODE4IiBwb2ludHM9IjE5NTEuODIsMTY4NC45ODQ0LDE5NDIuODIsMTY4MC45ODQ0LDE5NDYuODIsMTY4NC45ODQ0LDE5NDIuODIsMTY4OC45ODQ0LDE5NTEuODIsMTY4NC45ODQ0IiBzdHlsZT0ic3Ryb2tlOiMxODE4MTg7c3Ryb2tlLXdpZHRoOjEuMDsiLz48dGV4dCBmaWxsPSIjMDAwMDAwIiBmb250LWZhbWlseT0ic2Fucy1zZXJpZiIgZm9udC1zaXplPSIxMyIgbGVuZ3RoQWRqdXN0PSJzcGFjaW5nIiB0ZXh0TGVuZ3RoPSI2MSIgeD0iMTg1OS41IiB5PSIxNjgzLjI3MzQiPiYjMTcxO2luY2x1ZGUmIzE4Nzs8L3RleHQ+PC9nPjwhLS1saW5rIE1hcmsgU3R1ZGVudCBTdWJtaXNzaW9ucyB0byBVcGRhdGUgRWR1Y2F0aW9uYWwgSW5mb3JtYXRpb24gLS0+PGcgaWQ9ImxpbmtfTWFyayBTdHVkZW50IFN1Ym1pc3Npb25zX1VwZGF0ZSBFZHVjYXRpb25hbCBJbmZvcm1hdGlvbiAiPjxwYXRoIGQ9Ik0xNzUwLjA5LDE1NTIuNjQ0NCBDMTc4Ny40NiwxNTYzLjM2NDQgMTgyOCwxNTc0Ljk4NDQgMTgyOCwxNTc0Ljk4NDQgQzE4MjgsMTU3NC45ODQ0IDE5NDIuMjY4OCwxNjI1Ljg3MzcgMjAxNS4wMDg4LDE2NTguMjYzNyAiIGZpbGw9Im5vbmUiIGlkPSJNYXJrIFN0dWRlbnQgU3VibWlzc2lvbnMtdG8tVXBkYXRlIEVkdWNhdGlvbmFsIEluZm9ybWF0aW9uICIgc3R5bGU9InN0cm9rZTojMTgxODE4O3N0cm9rZS13aWR0aDoxLjA7c3Ryb2tlLWRhc2hhcnJheTo3LjAsNy4wOyIvPjxwb2x5Z29uIGZpbGw9IiMxODE4MTgiIHBvaW50cz0iMjAyMC40OSwxNjYwLjcwNDQsMjAxMy44OTU0LDE2NTMuMzg5MywyMDE1LjkyMjQsMTY1OC42NzA1LDIwMTAuNjQxMSwxNjYwLjY5NzUsMjAyMC40OSwxNjYwLjcwNDQiIHN0eWxlPSJzdHJva2U6IzE4MTgxODtzdHJva2Utd2lkdGg6MS4wOyIvPjx0ZXh0IGZpbGw9IiMwMDAwMDAiIGZvbnQtZmFtaWx5PSJzYW5zLXNlcmlmIiBmb250LXNpemU9IjEzIiBsZW5ndGhBZGp1c3Q9InNwYWNpbmciIHRleHRMZW5ndGg9IjYxIiB4PSIxODU5LjUiIHk9IjE1ODcuMjczNCI+JiMxNzE7aW5jbHVkZSYjMTg3OzwvdGV4dD48L2c+PCEtLWxpbmsgVCB0byBWaWV3IEV4YW0gSW5mb3JtYXRpb24gLS0+PGcgaWQ9ImxpbmtfVF9WaWV3IEV4YW0gSW5mb3JtYXRpb24gIj48cGF0aCBkPSJNMTQ0LjE5LDE4MTYuNjA0NCBDMTgyLjMsMTgzNS4zMDQ0IDI1MywxODY5Ljk4NDQgMjUzLDE4NjkuOTg0NCBDMjUzLDE4NjkuOTg0NCAyNTMsMTg2OS45ODQ0IDg3NywxODY5Ljk4NDQgQzg3NywxODY5Ljk4NDQgMTA4Ni4wNSwxODgwLjI2NDQgMTIxMS42MSwxODg2LjQ0NDQgIiBmaWxsPSJub25lIiBpZD0iVC1WaWV3IEV4YW0gSW5mb3JtYXRpb24gIiBzdHlsZT0ic3Ryb2tlOiMxODE4MTg7c3Ryb2tlLXdpZHRoOjEuMDsiLz48dGV4dCBmaWxsPSIjMDAwMDAwIiBmb250LWZhbWlseT0ic2Fucy1zZXJpZiIgZm9udC1zaXplPSIxMyIgbGVuZ3RoQWRqdXN0PSJzcGFjaW5nIiB0ZXh0TGVuZ3RoPSIyMDEiIHg9IjM2NSIgeT0iMTg2OC4yNzM0Ij5TaG93IG9wdGlvbiB0byBjcmVhdGUgaWYgZW1wdHk8L3RleHQ+PC9nPjwhLS1yZXZlcnNlIGxpbmsgVmlldyBFeGFtIEluZm9ybWF0aW9uICB0byBDcmVhdGUgRXhhbXMtLT48ZyBpZD0ibGlua19WaWV3IEV4YW0gSW5mb3JtYXRpb24gX0NyZWF0ZSBFeGFtcyI+PHBhdGggZD0iTTE0MDYuNTUsMTg5MC45ODQ0IEMxNDc1Ljg4LDE4OTAuOTg0NCAxNTYyLjEzLDE4OTAuOTg0NCAxNjIyLjg3LDE4OTAuOTg0NCAiIGZpbGw9Im5vbmUiIGlkPSJWaWV3IEV4YW0gSW5mb3JtYXRpb24gLWJhY2t0by1DcmVhdGUgRXhhbXMiIHN0eWxlPSJzdHJva2U6IzE4MTgxODtzdHJva2Utd2lkdGg6MS4wO3N0cm9rZS1kYXNoYXJyYXk6Ny4wLDcuMDsiLz48cG9seWdvbiBmaWxsPSIjMTgxODE4IiBwb2ludHM9IjE0MDAuNTUsMTg5MC45ODQ0LDE0MDkuNTUsMTg5NC45ODQ0LDE0MDUuNTUsMTg5MC45ODQ0LDE0MDkuNTUsMTg4Ni45ODQ0LDE0MDAuNTUsMTg5MC45ODQ0IiBzdHlsZT0ic3Ryb2tlOiMxODE4MTg7c3Ryb2tlLXdpZHRoOjEuMDsiLz48dGV4dCBmaWxsPSIjMDAwMDAwIiBmb250LWZhbWlseT0ic2Fucy1zZXJpZiIgZm9udC1zaXplPSIxMyIgbGVuZ3RoQWRqdXN0PSJzcGFjaW5nIiB0ZXh0TGVuZ3RoPSI2MiIgeD0iMTQ1NCIgeT0iMTg4OS4yNzM0Ij4mIzE3MTtleHRlbmRzJiMxODc7PC90ZXh0PjwvZz48IS0tcmV2ZXJzZSBsaW5rIFZpZXcgRXhhbSBJbmZvcm1hdGlvbiAgdG8gVXBkYXRlIEV4YW1zLS0+PGcgaWQ9ImxpbmtfVmlldyBFeGFtIEluZm9ybWF0aW9uIF9VcGRhdGUgRXhhbXMiPjxwYXRoIGQ9Ik0xMzg3LjA4MTcsMTg3Ni45MTg5IEMxNDYyLjAyMTcsMTg2My45MTg5IDE1NjkuMiwxODQ1LjMzNDQgMTYzNC42NiwxODMzLjk3NDQgIiBmaWxsPSJub25lIiBpZD0iVmlldyBFeGFtIEluZm9ybWF0aW9uIC1iYWNrdG8tVXBkYXRlIEV4YW1zIiBzdHlsZT0ic3Ryb2tlOiMxODE4MTg7c3Ryb2tlLXdpZHRoOjEuMDtzdHJva2UtZGFzaGFycmF5OjcuMCw3LjA7Ii8+PHBvbHlnb24gZmlsbD0iIzE4MTgxOCIgcG9pbnRzPSIxMzgxLjE3LDE4NzcuOTQ0NCwxMzkwLjcyMTIsMTg4MC4zNDcyLDEzODYuMDk2NCwxODc3LjA4OTgsMTM4OS4zNTM5LDE4NzIuNDY1LDEzODEuMTcsMTg3Ny45NDQ0IiBzdHlsZT0ic3Ryb2tlOiMxODE4MTg7c3Ryb2tlLXdpZHRoOjEuMDsiLz48dGV4dCBmaWxsPSIjMDAwMDAwIiBmb250LWZhbWlseT0ic2Fucy1zZXJpZiIgZm9udC1zaXplPSIxMyIgbGVuZ3RoQWRqdXN0PSJzcGFjaW5nIiB0ZXh0TGVuZ3RoPSI2MiIgeD0iMTQ1NCIgeT0iMTg1NS4yNzM0Ij4mIzE3MTtleHRlbmRzJiMxODc7PC90ZXh0PjwvZz48IS0tcmV2ZXJzZSBsaW5rIFZpZXcgRXhhbSBJbmZvcm1hdGlvbiAgdG8gRGVsZXRlIEV4YW1zLS0+PGcgaWQ9ImxpbmtfVmlldyBFeGFtIEluZm9ybWF0aW9uIF9EZWxldGUgRXhhbXMiPjxwYXRoIGQ9Ik0xMzU1LjcwOTEsMTkxMi40NDEzIEMxNDI1LjI4OTEsMTk0Mi40NjEzIDE1NDcsMTk5NC45ODQ0IDE1NDcsMTk5NC45ODQ0IEMxNTQ3LDE5OTQuOTg0NCAxNjAwLjgxLDIwMDguMTA0NCAxNjQxLjU5LDIwMTguMDQ0NCAiIGZpbGw9Im5vbmUiIGlkPSJWaWV3IEV4YW0gSW5mb3JtYXRpb24gLWJhY2t0by1EZWxldGUgRXhhbXMiIHN0eWxlPSJzdHJva2U6IzE4MTgxODtzdHJva2Utd2lkdGg6MS4wO3N0cm9rZS1kYXNoYXJyYXk6Ny4wLDcuMDsiLz48cG9seWdvbiBmaWxsPSIjMTgxODE4IiBwb2ludHM9IjEzNTAuMiwxOTEwLjA2NDQsMTM1Ni44NzkxLDE5MTcuMzAyNSwxMzU0Ljc5MDksMTkxMi4wNDUxLDEzNjAuMDQ4MywxOTA5Ljk1NywxMzUwLjIsMTkxMC4wNjQ0IiBzdHlsZT0ic3Ryb2tlOiMxODE4MTg7c3Ryb2tlLXdpZHRoOjEuMDsiLz48dGV4dCBmaWxsPSIjMDAwMDAwIiBmb250LWZhbWlseT0ic2Fucy1zZXJpZiIgZm9udC1zaXplPSIxMyIgbGVuZ3RoQWRqdXN0PSJzcGFjaW5nIiB0ZXh0TGVuZ3RoPSI2MiIgeD0iMTQ1NCIgeT0iMTk1NC4yNzM0Ij4mIzE3MTtleHRlbmRzJiMxODc7PC90ZXh0PjwvZz48IS0tcmV2ZXJzZSBsaW5rIFZpZXcgRXhhbSBJbmZvcm1hdGlvbiAgdG8gRWRpdCBFeGFtIFJlc3VsdHMtLT48ZyBpZD0ibGlua19WaWV3IEV4YW0gSW5mb3JtYXRpb24gX0VkaXQgRXhhbSBSZXN1bHRzIj48cGF0aCBkPSJNMTM4NS43MjM3LDE5MDUuNDQ0OSBDMTQ1Ny4xNDM3LDE5MTguMzk0OSAxNTU4LjI1LDE5MzYuNzI0NCAxNjI1LjEzLDE5NDguODU0NCAiIGZpbGw9Im5vbmUiIGlkPSJWaWV3IEV4YW0gSW5mb3JtYXRpb24gLWJhY2t0by1FZGl0IEV4YW0gUmVzdWx0cyIgc3R5bGU9InN0cm9rZTojMTgxODE4O3N0cm9rZS13aWR0aDoxLjA7c3Ryb2tlLWRhc2hhcnJheTo3LjAsNy4wOyIvPjxwb2x5Z29uIGZpbGw9IiMxODE4MTgiIHBvaW50cz0iMTM3OS44MiwxOTA0LjM3NDQsMTM4Ny45NjIsMTkwOS45MTU5LDEzODQuNzM5OCwxOTA1LjI2NjQsMTM4OS4zODkzLDE5MDIuMDQ0MywxMzc5LjgyLDE5MDQuMzc0NCIgc3R5bGU9InN0cm9rZTojMTgxODE4O3N0cm9rZS13aWR0aDoxLjA7Ii8+PHRleHQgZmlsbD0iIzAwMDAwMCIgZm9udC1mYW1pbHk9InNhbnMtc2VyaWYiIGZvbnQtc2l6ZT0iMTMiIGxlbmd0aEFkanVzdD0ic3BhY2luZyIgdGV4dExlbmd0aD0iNjIiIHg9IjE0NTQiIHk9IjE5MTguMjczNCI+JiMxNzE7ZXh0ZW5kcyYjMTg3OzwvdGV4dD48L2c+PCEtLWxpbmsgQ3JlYXRlIEV4YW1zIHRvIFVwZGF0ZSBFeGFtIEluZm9ybWF0aW9uIC0tPjxnIGlkPSJsaW5rX0NyZWF0ZSBFeGFtc19VcGRhdGUgRXhhbSBJbmZvcm1hdGlvbiAiPjxwYXRoIGQ9Ik0xNzQ4LjA0LDE4OTYuMzc0NCBDMTgxMC40LDE5MDIuMDI0NCAxOTAzLjIyNDQsMTkxMC40MzM0IDE5NzUuOTA0NCwxOTE3LjAxMzQgIiBmaWxsPSJub25lIiBpZD0iQ3JlYXRlIEV4YW1zLXRvLVVwZGF0ZSBFeGFtIEluZm9ybWF0aW9uICIgc3R5bGU9InN0cm9rZTojMTgxODE4O3N0cm9rZS13aWR0aDoxLjA7c3Ryb2tlLWRhc2hhcnJheTo3LjAsNy4wOyIvPjxwb2x5Z29uIGZpbGw9IiMxODE4MTgiIHBvaW50cz0iMTk4MS44OCwxOTE3LjU1NDQsMTk3My4yNzczLDE5MTIuNzU5MiwxOTc2LjkwMDQsMTkxNy4xMDM1LDE5NzIuNTU2LDE5MjAuNzI2NiwxOTgxLjg4LDE5MTcuNTU0NCIgc3R5bGU9InN0cm9rZTojMTgxODE4O3N0cm9rZS13aWR0aDoxLjA7Ii8+PHRleHQgZmlsbD0iIzAwMDAwMCIgZm9udC1mYW1pbHk9InNhbnMtc2VyaWYiIGZvbnQtc2l6ZT0iMTMiIGxlbmd0aEFkanVzdD0ic3BhY2luZyIgdGV4dExlbmd0aD0iNjEiIHg9IjE4NTkuNSIgeT0iMTkwNS4yNzM0Ij4mIzE3MTtpbmNsdWRlJiMxODc7PC90ZXh0PjwvZz48IS0tbGluayBVcGRhdGUgRXhhbXMgdG8gVXBkYXRlIEV4YW0gSW5mb3JtYXRpb24gLS0+PGcgaWQ9ImxpbmtfVXBkYXRlIEV4YW1zX1VwZGF0ZSBFeGFtIEluZm9ybWF0aW9uICI+PHBhdGggZD0iTTE3MzQuMTgsMTgzNS43OTQ0IEMxNzc0Ljg2LDE4NDUuNDE0NCAxODI4LDE4NTcuOTg0NCAxODI4LDE4NTcuOTg0NCBDMTgyOCwxODU3Ljk4NDQgMTkzMi43NDUzLDE4ODYuODIxNiAyMDA1LjkyNTMsMTkwNi45NzE2ICIgZmlsbD0ibm9uZSIgaWQ9IlVwZGF0ZSBFeGFtcy10by1VcGRhdGUgRXhhbSBJbmZvcm1hdGlvbiAiIHN0eWxlPSJzdHJva2U6IzE4MTgxODtzdHJva2Utd2lkdGg6MS4wO3N0cm9rZS1kYXNoYXJyYXk6Ny4wLDcuMDsiLz48cG9seWdvbiBmaWxsPSIjMTgxODE4IiBwb2ludHM9IjIwMTEuNzEsMTkwOC41NjQ0LDIwMDQuMDk0OCwxOTAyLjMxODcsMjAwNi44ODk0LDE5MDcuMjM3LDIwMDEuOTcxLDE5MTAuMDMxNiwyMDExLjcxLDE5MDguNTY0NCIgc3R5bGU9InN0cm9rZTojMTgxODE4O3N0cm9rZS13aWR0aDoxLjA7Ii8+PHRleHQgZmlsbD0iIzAwMDAwMCIgZm9udC1mYW1pbHk9InNhbnMtc2VyaWYiIGZvbnQtc2l6ZT0iMTMiIGxlbmd0aEFkanVzdD0ic3BhY2luZyIgdGV4dExlbmd0aD0iNjEiIHg9IjE4NTkuNSIgeT0iMTg2NS4yNzM0Ij4mIzE3MTtpbmNsdWRlJiMxODc7PC90ZXh0PjwvZz48IS0tbGluayBEZWxldGUgRXhhbXMgdG8gVXBkYXRlIEV4YW0gSW5mb3JtYXRpb24gLS0+PGcgaWQ9ImxpbmtfRGVsZXRlIEV4YW1zX1VwZGF0ZSBFeGFtIEluZm9ybWF0aW9uICI+PHBhdGggZD0iTTE3MzUuNzUsMjAxOC42NjQ0IEMxODAzLjk4LDIwMDMuNzY0NCAxOTIyLDE5NzcuOTg0NCAxOTIyLDE5NzcuOTg0NCBDMTkyMiwxOTc3Ljk4NDQgMTk3MC4yNTk0LDE5NjEuNTg1OSAyMDE0LjA3OTQsMTk0Ni42ODU5ICIgZmlsbD0ibm9uZSIgaWQ9IkRlbGV0ZSBFeGFtcy10by1VcGRhdGUgRXhhbSBJbmZvcm1hdGlvbiAiIHN0eWxlPSJzdHJva2U6IzE4MTgxODtzdHJva2Utd2lkdGg6MS4wO3N0cm9rZS1kYXNoYXJyYXk6Ny4wLDcuMDsiLz48cG9seWdvbiBmaWxsPSIjMTgxODE4IiBwb2ludHM9IjIwMTkuNzYsMTk0NC43NTQ0LDIwMDkuOTUxNCwxOTQzLjg2NDYsMjAxNS4wMjYyLDE5NDYuMzY0LDIwMTIuNTI2OCwxOTUxLjQzODgsMjAxOS43NiwxOTQ0Ljc1NDQiIHN0eWxlPSJzdHJva2U6IzE4MTgxODtzdHJva2Utd2lkdGg6MS4wOyIvPjx0ZXh0IGZpbGw9IiMwMDAwMDAiIGZvbnQtZmFtaWx5PSJzYW5zLXNlcmlmIiBmb250LXNpemU9IjEzIiBsZW5ndGhBZGp1c3Q9InNwYWNpbmciIHRleHRMZW5ndGg9IjYxIiB4PSIxODU5LjUiIHk9IjE5NzYuMjczNCI+JiMxNzE7aW5jbHVkZSYjMTg3OzwvdGV4dD48L2c+PCEtLWxpbmsgRWRpdCBFeGFtIFJlc3VsdHMgdG8gVXBkYXRlIEV4YW0gSW5mb3JtYXRpb24gLS0+PGcgaWQ9ImxpbmtfRWRpdCBFeGFtIFJlc3VsdHNfVXBkYXRlIEV4YW0gSW5mb3JtYXRpb24gIj48cGF0aCBkPSJNMTc2NS45MywxOTU3LjY2NDQgQzE4MzMuOSwxOTU1LjYyNDQgMTkyMiwxOTUyLjk4NDQgMTkyMiwxOTUyLjk4NDQgQzE5MjIsMTk1Mi45ODQ0IDE5NTIuNTcxNCwxOTQ3LjU4NzQgMTk4OS45MDE0LDE5NDAuOTk3NCAiIGZpbGw9Im5vbmUiIGlkPSJFZGl0IEV4YW0gUmVzdWx0cy10by1VcGRhdGUgRXhhbSBJbmZvcm1hdGlvbiAiIHN0eWxlPSJzdHJva2U6IzE4MTgxODtzdHJva2Utd2lkdGg6MS4wO3N0cm9rZS1kYXNoYXJyYXk6Ny4wLDcuMDsiLz48cG9seWdvbiBmaWxsPSIjMTgxODE4IiBwb2ludHM9IjE5OTUuODEsMTkzOS45NTQ0LDE5ODYuMjUxNywxOTM3LjU3OTksMTk5MC44ODYxLDE5NDAuODIzNiwxOTg3LjY0MjQsMTk0NS40NTgxLDE5OTUuODEsMTkzOS45NTQ0IiBzdHlsZT0ic3Ryb2tlOiMxODE4MTg7c3Ryb2tlLXdpZHRoOjEuMDsiLz48dGV4dCBmaWxsPSIjMDAwMDAwIiBmb250LWZhbWlseT0ic2Fucy1zZXJpZiIgZm9udC1zaXplPSIxMyIgbGVuZ3RoQWRqdXN0PSJzcGFjaW5nIiB0ZXh0TGVuZ3RoPSI2MSIgeD0iMTg1OS41IiB5PSIxOTUxLjI3MzQiPiYjMTcxO2luY2x1ZGUmIzE4Nzs8L3RleHQ+PC9nPjwhLS1saW5rIFVwZGF0ZSBFZHVjYXRpb25hbCBJbmZvcm1hdGlvbiB0byBUUi0tPjxnIGlkPSJsaW5rX1VwZGF0ZSBFZHVjYXRpb25hbCBJbmZvcm1hdGlvbl9UUiI+PHBhdGggZD0iTTIxNDguMzUsMTI0LjM0NDQgQzIxODUuOCwxMzUuNTU0NCAyMjI0LDE0Ni45ODQ0IDIyMjQsMTQ2Ljk4NDQgQzIyMjQsMTQ2Ljk4NDQgMjI2Ny43MywyMzkuNDc0NCAyMjkzLjE4LDI5My4zMDQ0ICIgZmlsbD0ibm9uZSIgaWQ9IlVwZGF0ZSBFZHVjYXRpb25hbCBJbmZvcm1hdGlvbi1UUiIgc3R5bGU9InN0cm9rZTojMTgxODE4O3N0cm9rZS13aWR0aDoxLjA7Ii8+PC9nPjwhLS1saW5rIEFwcGx5IGZvciBSZWNvcnJlY3Rpb25zIHRvIFRSLS0+PGcgaWQ9ImxpbmtfQXBwbHkgZm9yIFJlY29ycmVjdGlvbnNfVFIiPjxwYXRoIGQ9Ik0yMTczLjUzLDMzMC45ODQ0IEMyMjE1LjMyLDMzMC45ODQ0IDIyNjAuNzIsMzMwLjk4NDQgMjI4Ny40NywzMzAuOTg0NCAiIGZpbGw9Im5vbmUiIGlkPSJBcHBseSBmb3IgUmVjb3JyZWN0aW9ucy1UUiIgc3R5bGU9InN0cm9rZTojMTgxODE4O3N0cm9rZS13aWR0aDoxLjA7Ii8+PC9nPjwhLS1saW5rIE5vdGlmeSBUZWFjaGVycyB0byBUUi0tPjxnIGlkPSJsaW5rX05vdGlmeSBUZWFjaGVyc19UUiI+PHBhdGggZD0iTTIwOTcuMzYsNTA0LjQ1NDQgQzIxNDAuNjEsNDY5LjMzNDQgMjI0MS40NiwzODcuNDQ0NCAyMjg3LjQyLDM1MC4xMjQ0ICIgZmlsbD0ibm9uZSIgaWQ9Ik5vdGlmeSBUZWFjaGVycy1UUiIgc3R5bGU9InN0cm9rZTojMTgxODE4O3N0cm9rZS13aWR0aDoxLjA7Ii8+PC9nPjwhLS1saW5rIFNIIHRvIFZpZXcgU3RhZmYgSW5mb3JtYXRpb24gLS0+PGcgaWQ9ImxpbmtfU0hfVmlldyBTdGFmZiBJbmZvcm1hdGlvbiAiPjxwYXRoIGQ9Ik0zMDMuMDcsNzU1LjI4NDQgQzMxOS4xMiw3NTQuMDU0NCAzMzMsNzUyLjk4NDQgMzMzLDc1Mi45ODQ0IEMzMzMsNzUyLjk4NDQgOTY4LjYzLDcwNy44MTQ0IDEyMTEuMzQsNjkwLjU2NDQgIiBmaWxsPSJub25lIiBpZD0iU0gtVmlldyBTdGFmZiBJbmZvcm1hdGlvbiAiIHN0eWxlPSJzdHJva2U6IzE4MTgxODtzdHJva2Utd2lkdGg6MS4wOyIvPjx0ZXh0IGZpbGw9IiMwMDAwMDAiIGZvbnQtZmFtaWx5PSJzYW5zLXNlcmlmIiBmb250LXNpemU9IjEzIiBsZW5ndGhBZGp1c3Q9InNwYWNpbmciIHRleHRMZW5ndGg9IjIwMSIgeD0iNTk4IiB5PSI3MTkuMjczNCI+U2hvdyBvcHRpb24gdG8gY3JlYXRlIGlmIGVtcHR5PC90ZXh0PjwvZz48IS0tcmV2ZXJzZSBsaW5rIFZpZXcgU3RhZmYgSW5mb3JtYXRpb24gIHRvIEFkZCBTdGFmZiBNZW1iZXJzLS0+PGcgaWQ9ImxpbmtfVmlldyBTdGFmZiBJbmZvcm1hdGlvbiBfQWRkIFN0YWZmIE1lbWJlcnMiPjxwYXRoIGQ9Ik0xNDA3LjUyNDcsNjc5LjcxMjYgQzE0NzEuODA0Nyw2NzcuMDEyNiAxNTQ5LjQ2LDY3My43NDQ0IDE2MDkuNDgsNjcxLjIyNDQgIiBmaWxsPSJub25lIiBpZD0iVmlldyBTdGFmZiBJbmZvcm1hdGlvbiAtYmFja3RvLUFkZCBTdGFmZiBNZW1iZXJzIiBzdHlsZT0ic3Ryb2tlOiMxODE4MTg7c3Ryb2tlLXdpZHRoOjEuMDtzdHJva2UtZGFzaGFycmF5OjcuMCw3LjA7Ii8+PHBvbHlnb24gZmlsbD0iIzE4MTgxOCIgcG9pbnRzPSIxNDAxLjUzLDY3OS45NjQ0LDE0MTAuNjg5OSw2ODMuNTgzMiwxNDA2LjUyNTYsNjc5Ljc1NDUsMTQxMC4zNTQyLDY3NS41OTAyLDE0MDEuNTMsNjc5Ljk2NDQiIHN0eWxlPSJzdHJva2U6IzE4MTgxODtzdHJva2Utd2lkdGg6MS4wOyIvPjx0ZXh0IGZpbGw9IiMwMDAwMDAiIGZvbnQtZmFtaWx5PSJzYW5zLXNlcmlmIiBmb250LXNpemU9IjEzIiBsZW5ndGhBZGp1c3Q9InNwYWNpbmciIHRleHRMZW5ndGg9IjYyIiB4PSIxNDU0IiB5PSI2NzQuMjczNCI+JiMxNzE7ZXh0ZW5kcyYjMTg3OzwvdGV4dD48L2c+PCEtLXJldmVyc2UgbGluayBWaWV3IFN0YWZmIEluZm9ybWF0aW9uICB0byBVcGRhdGUgU3RhZmYgTWVtYmVycy0tPjxnIGlkPSJsaW5rX1ZpZXcgU3RhZmYgSW5mb3JtYXRpb24gX1VwZGF0ZSBTdGFmZiBNZW1iZXJzIj48cGF0aCBkPSJNMTM3OS40MzIzLDY2Ni44MDc3IEMxNDUwLjg2MjMsNjUwLjA5NzcgMTU1Ni42OCw2MjUuMzU0NCAxNjI1LjUxLDYwOS4yNTQ0ICIgZmlsbD0ibm9uZSIgaWQ9IlZpZXcgU3RhZmYgSW5mb3JtYXRpb24gLWJhY2t0by1VcGRhdGUgU3RhZmYgTWVtYmVycyIgc3R5bGU9InN0cm9rZTojMTgxODE4O3N0cm9rZS13aWR0aDoxLjA7c3Ryb2tlLWRhc2hhcnJheTo3LjAsNy4wOyIvPjxwb2x5Z29uIGZpbGw9IiMxODE4MTgiIHBvaW50cz0iMTM3My41OSw2NjguMTc0NCwxMzgzLjI2NDUsNjcwLjAxOTIsMTM3OC40NTg2LDY2Ny4wMzU0LDEzODEuNDQyMyw2NjIuMjI5NSwxMzczLjU5LDY2OC4xNzQ0IiBzdHlsZT0ic3Ryb2tlOiMxODE4MTg7c3Ryb2tlLXdpZHRoOjEuMDsiLz48dGV4dCBmaWxsPSIjMDAwMDAwIiBmb250LWZhbWlseT0ic2Fucy1zZXJpZiIgZm9udC1zaXplPSIxMyIgbGVuZ3RoQWRqdXN0PSJzcGFjaW5nIiB0ZXh0TGVuZ3RoPSI2MiIgeD0iMTQ1NCIgeT0iNjM1LjI3MzQiPiYjMTcxO2V4dGVuZHMmIzE4Nzs8L3RleHQ+PC9nPjwhLS1yZXZlcnNlIGxpbmsgVmlldyBTdGFmZiBJbmZvcm1hdGlvbiAgdG8gUmVtb3ZlIFN0YWZmIE1lbWJlcnMtLT48ZyBpZD0ibGlua19WaWV3IFN0YWZmIEluZm9ybWF0aW9uIF9SZW1vdmUgU3RhZmYgTWVtYmVycyI+PHBhdGggZD0iTTEzOTMuMDkzOCw2OTcuMDMzNCBDMTQ2MC4xMDM4LDcwNy4wNzM0IDE1NDguNDQsNzIwLjMwNDQgMTYxMy4xOSw3MzAuMDA0NCAiIGZpbGw9Im5vbmUiIGlkPSJWaWV3IFN0YWZmIEluZm9ybWF0aW9uIC1iYWNrdG8tUmVtb3ZlIFN0YWZmIE1lbWJlcnMiIHN0eWxlPSJzdHJva2U6IzE4MTgxODtzdHJva2Utd2lkdGg6MS4wO3N0cm9rZS1kYXNoYXJyYXk6Ny4wLDcuMDsiLz48cG9seWdvbiBmaWxsPSIjMTgxODE4IiBwb2ludHM9IjEzODcuMTYsNjk2LjE0NDQsMTM5NS40NjgsNzAxLjQzMzgsMTM5Mi4xMDQ4LDY5Ni44ODUyLDEzOTYuNjUzMyw2OTMuNTIyMSwxMzg3LjE2LDY5Ni4xNDQ0IiBzdHlsZT0ic3Ryb2tlOiMxODE4MTg7c3Ryb2tlLXdpZHRoOjEuMDsiLz48dGV4dCBmaWxsPSIjMDAwMDAwIiBmb250LWZhbWlseT0ic2Fucy1zZXJpZiIgZm9udC1zaXplPSIxMyIgbGVuZ3RoQWRqdXN0PSJzcGFjaW5nIiB0ZXh0TGVuZ3RoPSI2MiIgeD0iMTQ1NCIgeT0iNzA2LjI3MzQiPiYjMTcxO2V4dGVuZHMmIzE4Nzs8L3RleHQ+PC9nPjwhLS1saW5rIFNIIHRvIFZpZXcgU2VjdGlvbmFsIEluZm9ybWF0aW9uIC0tPjxnIGlkPSJsaW5rX1NIX1ZpZXcgU2VjdGlvbmFsIEluZm9ybWF0aW9uICI+PHBhdGggZD0iTTMwMy4wNyw3MzkuMjY0NCBDMzE5LjEyLDczMi42ODQ0IDMzMyw3MjYuOTg0NCAzMzMsNzI2Ljk4NDQgQzMzMyw3MjYuOTg0NCAzNjQsNzE3Ljk4NDQgMzY0LDcxNy45ODQ0IEMzNjQsNzE3Ljk4NDQgMTAwOC42NCw1NTkuNTY0NCAxMjMwLjI0LDUwNS4xMTQ0ICIgZmlsbD0ibm9uZSIgaWQ9IlNILVZpZXcgU2VjdGlvbmFsIEluZm9ybWF0aW9uICIgc3R5bGU9InN0cm9rZTojMTgxODE4O3N0cm9rZS13aWR0aDoxLjA7Ii8+PHRleHQgZmlsbD0iIzAwMDAwMCIgZm9udC1mYW1pbHk9InNhbnMtc2VyaWYiIGZvbnQtc2l6ZT0iMTMiIGxlbmd0aEFkanVzdD0ic3BhY2luZyIgdGV4dExlbmd0aD0iMjAxIiB4PSI1OTgiIHk9IjYxMi4yNzM0Ij5TaG93IG9wdGlvbiB0byBjcmVhdGUgaWYgZW1wdHk8L3RleHQ+PC9nPjwhLS1yZXZlcnNlIGxpbmsgVmlldyBTZWN0aW9uYWwgSW5mb3JtYXRpb24gIHRvIENyZWF0ZSBUaW1lIFRhYmxlcy0tPjxnIGlkPSJsaW5rX1ZpZXcgU2VjdGlvbmFsIEluZm9ybWF0aW9uIF9DcmVhdGUgVGltZSBUYWJsZXMiPjxwYXRoIGQ9Ik0xMzc1LjA0MjEsNDY1LjIwOTYgQzE0NDYuNDQyMSw0NDIuNjg5NiAxNTQ3LDQxMC45ODQ0IDE1NDcsNDEwLjk4NDQgQzE1NDcsNDEwLjk4NDQgMTU5Mi42OCwzOTkuMTk0NCAxNjMxLjc3LDM4OS4xMDQ0ICIgZmlsbD0ibm9uZSIgaWQ9IlZpZXcgU2VjdGlvbmFsIEluZm9ybWF0aW9uIC1iYWNrdG8tQ3JlYXRlIFRpbWUgVGFibGVzIiBzdHlsZT0ic3Ryb2tlOiMxODE4MTg7c3Ryb2tlLXdpZHRoOjEuMDtzdHJva2UtZGFzaGFycmF5OjcuMCw3LjA7Ii8+PHBvbHlnb24gZmlsbD0iIzE4MTgxOCIgcG9pbnRzPSIxMzY5LjMyLDQ2Ny4wMTQ0LDEzNzkuMTA2NCw0NjguMTIxOSwxMzc0LjA4ODQsNDY1LjUxMDQsMTM3Ni43LDQ2MC40OTI0LDEzNjkuMzIsNDY3LjAxNDQiIHN0eWxlPSJzdHJva2U6IzE4MTgxODtzdHJva2Utd2lkdGg6MS4wOyIvPjx0ZXh0IGZpbGw9IiMwMDAwMDAiIGZvbnQtZmFtaWx5PSJzYW5zLXNlcmlmIiBmb250LXNpemU9IjEzIiBsZW5ndGhBZGp1c3Q9InNwYWNpbmciIHRleHRMZW5ndGg9IjYyIiB4PSIxNDU0IiB5PSI0MjEuMjczNCI+JiMxNzE7ZXh0ZW5kcyYjMTg3OzwvdGV4dD48L2c+PCEtLXJldmVyc2UgbGluayBWaWV3IFNlY3Rpb25hbCBJbmZvcm1hdGlvbiAgdG8gVXBkYXRlIFRpbWUgVGFibGVzLS0+PGcgaWQ9ImxpbmtfVmlldyBTZWN0aW9uYWwgSW5mb3JtYXRpb24gX1VwZGF0ZSBUaW1lIFRhYmxlcyI+PHBhdGggZD0iTTEzOTUuNzA0LDUwNC4wNjc1IEMxNDI4LjcxNCw1MTAuMzU3NSAxNDUzLDUxNC45ODQ0IDE0NTMsNTE0Ljk4NDQgQzE0NTMsNTE0Ljk4NDQgMTUzOC4zMiw1MTcuMTc0NCAxNjA1LjgyLDUxOC45MTQ0ICIgZmlsbD0ibm9uZSIgaWQ9IlZpZXcgU2VjdGlvbmFsIEluZm9ybWF0aW9uIC1iYWNrdG8tVXBkYXRlIFRpbWUgVGFibGVzIiBzdHlsZT0ic3Ryb2tlOiMxODE4MTg7c3Ryb2tlLXdpZHRoOjEuMDtzdHJva2UtZGFzaGFycmF5OjcuMCw3LjA7Ii8+PHBvbHlnb24gZmlsbD0iIzE4MTgxOCIgcG9pbnRzPSIxMzg5LjgxLDUwMi45NDQ0LDEzOTcuOTAyMiw1MDguNTU4MywxMzk0LjcyMTYsNTAzLjg4MDMsMTM5OS4zOTk3LDUwMC42OTk3LDEzODkuODEsNTAyLjk0NDQiIHN0eWxlPSJzdHJva2U6IzE4MTgxODtzdHJva2Utd2lkdGg6MS4wOyIvPjx0ZXh0IGZpbGw9IiMwMDAwMDAiIGZvbnQtZmFtaWx5PSJzYW5zLXNlcmlmIiBmb250LXNpemU9IjEzIiBsZW5ndGhBZGp1c3Q9InNwYWNpbmciIHRleHRMZW5ndGg9IjYyIiB4PSIxNDU0IiB5PSI1MTMuMjczNCI+JiMxNzE7ZXh0ZW5kcyYjMTg3OzwvdGV4dD48L2c+PCEtLXJldmVyc2UgbGluayBWaWV3IFNlY3Rpb25hbCBJbmZvcm1hdGlvbiAgdG8gRGVsZXRlIFRpbWUgVGFibGVzLS0+PGcgaWQ9ImxpbmtfVmlldyBTZWN0aW9uYWwgSW5mb3JtYXRpb24gX0RlbGV0ZSBUaW1lIFRhYmxlcyI+PHBhdGggZD0iTTE0MTEuOTM4OCw0NzYuMTIzIEMxNDc2LjU2ODgsNDY5LjUwMyAxNTUzLjMxLDQ2MS42MzQ0IDE2MTIuMTQsNDU1LjYwNDQgIiBmaWxsPSJub25lIiBpZD0iVmlldyBTZWN0aW9uYWwgSW5mb3JtYXRpb24gLWJhY2t0by1EZWxldGUgVGltZSBUYWJsZXMiIHN0eWxlPSJzdHJva2U6IzE4MTgxODtzdHJva2Utd2lkdGg6MS4wO3N0cm9rZS1kYXNoYXJyYXk6Ny4wLDcuMDsiLz48cG9seWdvbiBmaWxsPSIjMTgxODE4IiBwb2ludHM9IjE0MDUuOTcsNDc2LjczNDQsMTQxNS4zMzA3LDQ3OS43OTY1LDE0MTAuOTQ0LDQ3Ni4yMjQ5LDE0MTQuNTE1Niw0NzEuODM4MSwxNDA1Ljk3LDQ3Ni43MzQ0IiBzdHlsZT0ic3Ryb2tlOiMxODE4MTg7c3Ryb2tlLXdpZHRoOjEuMDsiLz48dGV4dCBmaWxsPSIjMDAwMDAwIiBmb250LWZhbWlseT0ic2Fucy1zZXJpZiIgZm9udC1zaXplPSIxMyIgbGVuZ3RoQWRqdXN0PSJzcGFjaW5nIiB0ZXh0TGVuZ3RoPSI2MiIgeD0iMTQ1NCIgeT0iNDY1LjI3MzQiPiYjMTcxO2V4dGVuZHMmIzE4Nzs8L3RleHQ+PC9nPjwhLS1saW5rIE5vdGlmeSBTZWN0aW9uYWwgSGVhZHMgdG8gU0hSLS0+PGcgaWQ9ImxpbmtfTm90aWZ5IFNlY3Rpb25hbCBIZWFkc19TSFIiPjxwYXRoIGQ9Ik0yMTY4LjQ4LDg3OC44OTQ0IEMyMjAwLjY1LDg4MC4yNjQ0IDIyMzUuNTMsODgxLjc1NDQgMjI2Mi43Myw4ODIuOTI0NCAiIGZpbGw9Im5vbmUiIGlkPSJOb3RpZnkgU2VjdGlvbmFsIEhlYWRzLVNIUiIgc3R5bGU9InN0cm9rZTojMTgxODE4O3N0cm9rZS13aWR0aDoxLjA7Ii8+PC9nPjwhLS1saW5rIEFkZCBTdGFmZiBNZW1iZXJzIHRvIE5vdGlmeSBUZWFjaGVycy0tPjxnIGlkPSJsaW5rX0FkZCBTdGFmZiBNZW1iZXJzX05vdGlmeSBUZWFjaGVycyI+PHBhdGggZD0iTTE3NDAuNDQsNjU0LjU3NDQgQzE3ODAuMTEsNjQ0LjM0NDQgMTgyOCw2MzEuOTg0NCAxODI4LDYzMS45ODQ0IEMxODI4LDYzMS45ODQ0IDE5NjguNDI3LDU2OC44NzMzIDIwMzUuOTU3LDUzOC41MzMzICIgZmlsbD0ibm9uZSIgaWQ9IkFkZCBTdGFmZiBNZW1iZXJzLXRvLU5vdGlmeSBUZWFjaGVycyIgc3R5bGU9InN0cm9rZTojMTgxODE4O3N0cm9rZS13aWR0aDoxLjA7c3Ryb2tlLWRhc2hhcnJheTo3LjAsNy4wOyIvPjxwb2x5Z29uIGZpbGw9IiMxODE4MTgiIHBvaW50cz0iMjA0MS40Myw1MzYuMDc0NCwyMDMxLjU4MTIsNTM2LjExNDEsMjAzNi44NjkyLDUzOC4xMjM1LDIwMzQuODU5OCw1NDMuNDExNCwyMDQxLjQzLDUzNi4wNzQ0IiBzdHlsZT0ic3Ryb2tlOiMxODE4MTg7c3Ryb2tlLXdpZHRoOjEuMDsiLz48dGV4dCBmaWxsPSIjMDAwMDAwIiBmb250LWZhbWlseT0ic2Fucy1zZXJpZiIgZm9udC1zaXplPSIxMyIgbGVuZ3RoQWRqdXN0PSJzcGFjaW5nIiB0ZXh0TGVuZ3RoPSI2MSIgeD0iMTg1OS41IiB5PSI1OTEuMjczNCI+JiMxNzE7aW5jbHVkZSYjMTg3OzwvdGV4dD48L2c+PCEtLWxpbmsgVXBkYXRlIFN0YWZmIE1lbWJlcnMgdG8gTm90aWZ5IFRlYWNoZXJzLS0+PGcgaWQ9ImxpbmtfVXBkYXRlIFN0YWZmIE1lbWJlcnNfTm90aWZ5IFRlYWNoZXJzIj48cGF0aCBkPSJNMTc1NS4zOCw1ODIuMTc0NCBDMTgzMC4wMyw1NjcuODg0NCAxOTQzLjU3Nyw1NDYuMTQyMyAyMDEzLjM3Nyw1MzIuNzgyMyAiIGZpbGw9Im5vbmUiIGlkPSJVcGRhdGUgU3RhZmYgTWVtYmVycy10by1Ob3RpZnkgVGVhY2hlcnMiIHN0eWxlPSJzdHJva2U6IzE4MTgxODtzdHJva2Utd2lkdGg6MS4wO3N0cm9rZS1kYXNoYXJyYXk6Ny4wLDcuMDsiLz48cG9seWdvbiBmaWxsPSIjMTgxODE4IiBwb2ludHM9IjIwMTkuMjcsNTMxLjY1NDQsMjAwOS42Nzg1LDUyOS40MTc2LDIwMTQuMzU5MSw1MzIuNTk0MywyMDExLjE4MjQsNTM3LjI3NSwyMDE5LjI3LDUzMS42NTQ0IiBzdHlsZT0ic3Ryb2tlOiMxODE4MTg7c3Ryb2tlLXdpZHRoOjEuMDsiLz48dGV4dCBmaWxsPSIjMDAwMDAwIiBmb250LWZhbWlseT0ic2Fucy1zZXJpZiIgZm9udC1zaXplPSIxMyIgbGVuZ3RoQWRqdXN0PSJzcGFjaW5nIiB0ZXh0TGVuZ3RoPSI2MSIgeD0iMTg1OS41IiB5PSI1NTAuMjczNCI+JiMxNzE7aW5jbHVkZSYjMTg3OzwvdGV4dD48L2c+PCEtLWxpbmsgUmVtb3ZlIFN0YWZmIE1lbWJlcnMgdG8gTm90aWZ5IFRlYWNoZXJzLS0+PGcgaWQ9ImxpbmtfUmVtb3ZlIFN0YWZmIE1lbWJlcnNfTm90aWZ5IFRlYWNoZXJzIj48cGF0aCBkPSJNMTc0NC44NCw3MjUuNjM0NCBDMTc4My41NSw3MTUuMDk0NCAxODI4LDcwMi45ODQ0IDE4MjgsNzAyLjk4NDQgQzE4MjgsNzAyLjk4NDQgMTkyMiw2NDEuOTg0NCAxOTIyLDY0MS45ODQ0IEMxOTIyLDY0MS45ODQ0IDIwMDcuODkzNiw1NzQuMDU2IDIwNDkuNjYzNiw1NDEuMDI2ICIgZmlsbD0ibm9uZSIgaWQ9IlJlbW92ZSBTdGFmZiBNZW1iZXJzLXRvLU5vdGlmeSBUZWFjaGVycyIgc3R5bGU9InN0cm9rZTojMTgxODE4O3N0cm9rZS13aWR0aDoxLjA7c3Ryb2tlLWRhc2hhcnJheTo3LjAsNy4wOyIvPjxwb2x5Z29uIGZpbGw9IiMxODE4MTgiIHBvaW50cz0iMjA1NC4zNyw1MzcuMzA0NCwyMDQ0LjgyOTQsNTM5Ljc0OTIsMjA1MC40NDgsNTQwLjQwNTcsMjA0OS43OTE1LDU0Ni4wMjQzLDIwNTQuMzcsNTM3LjMwNDQiIHN0eWxlPSJzdHJva2U6IzE4MTgxODtzdHJva2Utd2lkdGg6MS4wOyIvPjx0ZXh0IGZpbGw9IiMwMDAwMDAiIGZvbnQtZmFtaWx5PSJzYW5zLXNlcmlmIiBmb250LXNpemU9IjEzIiBsZW5ndGhBZGp1c3Q9InNwYWNpbmciIHRleHRMZW5ndGg9IjYxIiB4PSIxODU5LjUiIHk9IjY0MC4yNzM0Ij4mIzE3MTtpbmNsdWRlJiMxODc7PC90ZXh0PjwvZz48IS0tbGluayBDcmVhdGUgVGltZSBUYWJsZXMgdG8gTm90aWZ5IFRlYWNoZXJzLS0+PGcgaWQ9ImxpbmtfQ3JlYXRlIFRpbWUgVGFibGVzX05vdGlmeSBUZWFjaGVycyI+PHBhdGggZD0iTTE3NDMuMjMsMzg5LjEwNDQgQzE3ODIuMzIsMzk5LjE5NDQgMTgyOCw0MTAuOTg0NCAxODI4LDQxMC45ODQ0IEMxODI4LDQxMC45ODQ0IDE5NjguNDE5MSw0NzMuNTEzIDIwMzUuOTQ5MSw1MDMuNTkzICIgZmlsbD0ibm9uZSIgaWQ9IkNyZWF0ZSBUaW1lIFRhYmxlcy10by1Ob3RpZnkgVGVhY2hlcnMiIHN0eWxlPSJzdHJva2U6IzE4MTgxODtzdHJva2Utd2lkdGg6MS4wO3N0cm9rZS1kYXNoYXJyYXk6Ny4wLDcuMDsiLz48cG9seWdvbiBmaWxsPSIjMTgxODE4IiBwb2ludHM9IjIwNDEuNDMsNTA2LjAzNDQsMjAzNC44MzYzLDQ5OC43MTg0LDIwMzYuODYyNiw1MDMuOTk5OSwyMDMxLjU4MTEsNTA2LjAyNjMsMjA0MS40Myw1MDYuMDM0NCIgc3R5bGU9InN0cm9rZTojMTgxODE4O3N0cm9rZS13aWR0aDoxLjA7Ii8+PHRleHQgZmlsbD0iIzAwMDAwMCIgZm9udC1mYW1pbHk9InNhbnMtc2VyaWYiIGZvbnQtc2l6ZT0iMTMiIGxlbmd0aEFkanVzdD0ic3BhY2luZyIgdGV4dExlbmd0aD0iNjEiIHg9IjE4NTkuNSIgeT0iNDIzLjI3MzQiPiYjMTcxO2luY2x1ZGUmIzE4Nzs8L3RleHQ+PC9nPjwhLS1saW5rIFVwZGF0ZSBUaW1lIFRhYmxlcyB0byBOb3RpZnkgVGVhY2hlcnMtLT48ZyBpZD0ibGlua19VcGRhdGUgVGltZSBUYWJsZXNfTm90aWZ5IFRlYWNoZXJzIj48cGF0aCBkPSJNMTc2OS41Miw1MjAuOTg0NCBDMTgzOC41OSw1MjAuOTg0NCAxOTMwLjkxLDUyMC45ODQ0IDE5OTcuMTksNTIwLjk4NDQgIiBmaWxsPSJub25lIiBpZD0iVXBkYXRlIFRpbWUgVGFibGVzLXRvLU5vdGlmeSBUZWFjaGVycyIgc3R5bGU9InN0cm9rZTojMTgxODE4O3N0cm9rZS13aWR0aDoxLjA7c3Ryb2tlLWRhc2hhcnJheTo3LjAsNy4wOyIvPjxwb2x5Z29uIGZpbGw9IiMxODE4MTgiIHBvaW50cz0iMjAwMy4xOSw1MjAuOTg0NCwxOTk0LjE5LDUxNi45ODQ0LDE5OTguMTksNTIwLjk4NDQsMTk5NC4xOSw1MjQuOTg0NCwyMDAzLjE5LDUyMC45ODQ0IiBzdHlsZT0ic3Ryb2tlOiMxODE4MTg7c3Ryb2tlLXdpZHRoOjEuMDsiLz48dGV4dCBmaWxsPSIjMDAwMDAwIiBmb250LWZhbWlseT0ic2Fucy1zZXJpZiIgZm9udC1zaXplPSIxMyIgbGVuZ3RoQWRqdXN0PSJzcGFjaW5nIiB0ZXh0TGVuZ3RoPSI2MSIgeD0iMTg1OS41IiB5PSI1MTkuMjczNCI+JiMxNzE7aW5jbHVkZSYjMTg3OzwvdGV4dD48L2c+PCEtLWxpbmsgRGVsZXRlIFRpbWUgVGFibGVzIHRvIE5vdGlmeSBUZWFjaGVycy0tPjxnIGlkPSJsaW5rX0RlbGV0ZSBUaW1lIFRhYmxlc19Ob3RpZnkgVGVhY2hlcnMiPjxwYXRoIGQ9Ik0xNzUxLjQ2LDQ1OS44NzQ0IEMxODI1LjY4LDQ3My44OTQ0IDE5NDIuMDE0Miw0OTUuODcxMSAyMDEzLjA4NDIsNTA5LjI5MTEgIiBmaWxsPSJub25lIiBpZD0iRGVsZXRlIFRpbWUgVGFibGVzLXRvLU5vdGlmeSBUZWFjaGVycyIgc3R5bGU9InN0cm9rZTojMTgxODE4O3N0cm9rZS13aWR0aDoxLjA7c3Ryb2tlLWRhc2hhcnJheTo3LjAsNy4wOyIvPjxwb2x5Z29uIGZpbGw9IiMxODE4MTgiIHBvaW50cz0iMjAxOC45OCw1MTAuNDA0NCwyMDEwLjg3ODUsNTA0LjgwMzksMjAxNC4wNjY4LDUwOS40NzY2LDIwMDkuMzk0MSw1MTIuNjY1LDIwMTguOTgsNTEwLjQwNDQiIHN0eWxlPSJzdHJva2U6IzE4MTgxODtzdHJva2Utd2lkdGg6MS4wOyIvPjx0ZXh0IGZpbGw9IiMwMDAwMDAiIGZvbnQtZmFtaWx5PSJzYW5zLXNlcmlmIiBmb250LXNpemU9IjEzIiBsZW5ndGhBZGp1c3Q9InNwYWNpbmciIHRleHRMZW5ndGg9IjYxIiB4PSIxODU5LjUiIHk9IjQ3OS4yNzM0Ij4mIzE3MTtpbmNsdWRlJiMxODc7PC90ZXh0PjwvZz48IS0tbGluayBQIHRvIEJyb2FkY2FzdCBBbm5vdW5jZW1lbnRzLS0+PGcgaWQ9ImxpbmtfUF9Ccm9hZGNhc3QgQW5ub3VuY2VtZW50cyI+PHBhdGggZD0iTTQ5Ny4zLDgxMC45ODQ0IEM2MTIuMjUsODEwLjk4NDQgMTAxOS4xNiw4MTAuOTg0NCAxMjA3LjMsODEwLjk4NDQgIiBmaWxsPSJub25lIiBpZD0iUC1Ccm9hZGNhc3QgQW5ub3VuY2VtZW50cyIgc3R5bGU9InN0cm9rZTojMTgxODE4O3N0cm9rZS13aWR0aDoxLjA7Ii8+PC9nPjwhLS1saW5rIEJyb2FkY2FzdCBBbm5vdW5jZW1lbnRzIHRvIFNlbGVjdCBVc2Vycy0tPjxnIGlkPSJsaW5rX0Jyb2FkY2FzdCBBbm5vdW5jZW1lbnRzX1NlbGVjdCBVc2VycyI+PHBhdGggZD0iTTE0MDIuNTEsODEwLjk4NDQgQzE0NzEuNzUsODEwLjk4NDQgMTU1Ny4wOCw4MTAuOTg0NCAxNjE3LjI0LDgxMC45ODQ0ICIgZmlsbD0ibm9uZSIgaWQ9IkJyb2FkY2FzdCBBbm5vdW5jZW1lbnRzLXRvLVNlbGVjdCBVc2VycyIgc3R5bGU9InN0cm9rZTojMTgxODE4O3N0cm9rZS13aWR0aDoxLjA7c3Ryb2tlLWRhc2hhcnJheTo3LjAsNy4wOyIvPjxwb2x5Z29uIGZpbGw9IiMxODE4MTgiIHBvaW50cz0iMTYyMy4yNCw4MTAuOTg0NCwxNjE0LjI0LDgwNi45ODQ0LDE2MTguMjQsODEwLjk4NDQsMTYxNC4yNCw4MTQuOTg0NCwxNjIzLjI0LDgxMC45ODQ0IiBzdHlsZT0ic3Ryb2tlOiMxODE4MTg7c3Ryb2tlLXdpZHRoOjEuMDsiLz48dGV4dCBmaWxsPSIjMDAwMDAwIiBmb250LWZhbWlseT0ic2Fucy1zZXJpZiIgZm9udC1zaXplPSIxMyIgbGVuZ3RoQWRqdXN0PSJzcGFjaW5nIiB0ZXh0TGVuZ3RoPSI2MSIgeD0iMTQ1NC41IiB5PSI4MDkuMjczNCI+JiMxNzE7aW5jbHVkZSYjMTg3OzwvdGV4dD48L2c+PCEtLXJldmVyc2UgbGluayBTZWxlY3QgVXNlcnMgdG8gTm90aWZ5IFVzZXJzLS0+PGcgaWQ9ImxpbmtfU2VsZWN0IFVzZXJzX05vdGlmeSBVc2VycyI+PHBhdGggZD0iTTE3NTUuMzA2NSw4MDYuNDkxNiBDMTgyNy42ODY1LDgwMS42MjE2IDE5NDEuODUsNzkzLjk0NDQgMjAxNC4yMiw3ODkuMDc0NCAiIGZpbGw9Im5vbmUiIGlkPSJTZWxlY3QgVXNlcnMtYmFja3RvLU5vdGlmeSBVc2VycyIgc3R5bGU9InN0cm9rZTojMTgxODE4O3N0cm9rZS13aWR0aDoxLjA7c3Ryb2tlLWRhc2hhcnJheTo3LjAsNy4wOyIvPjxwb2x5Z29uIGZpbGw9IiMxODE4MTgiIHBvaW50cz0iMTc0OS4zMiw4MDYuODk0NCwxNzU4LjU2ODIsODEwLjI4MTIsMTc1NC4zMDg3LDgwNi41NTg3LDE3NTguMDMxMiw4MDIuMjk5MiwxNzQ5LjMyLDgwNi44OTQ0IiBzdHlsZT0ic3Ryb2tlOiMxODE4MTg7c3Ryb2tlLXdpZHRoOjEuMDsiLz48dGV4dCBmaWxsPSIjMDAwMDAwIiBmb250LWZhbWlseT0ic2Fucy1zZXJpZiIgZm9udC1zaXplPSIxMyIgbGVuZ3RoQWRqdXN0PSJzcGFjaW5nIiB0ZXh0TGVuZ3RoPSI2MiIgeD0iMTg1OSIgeT0iNzk0LjI3MzQiPiYjMTcxO2V4dGVuZHMmIzE4Nzs8L3RleHQ+PC9nPjwhLS1yZXZlcnNlIGxpbmsgU2VsZWN0IFVzZXJzIHRvIE5vdGlmeSBTZWN0aW9uYWwgSGVhZHMtLT48ZyBpZD0ibGlua19TZWxlY3QgVXNlcnNfTm90aWZ5IFNlY3Rpb25hbCBIZWFkcyI+PHBhdGggZD0iTTE3NDYuMTM5Myw4MjAuNTI1MiBDMTgxMi44ODkzLDgzMS41ODUyIDE5MjMuNTksODQ5LjkxNDQgMjAwMC4wNSw4NjIuNTc0NCAiIGZpbGw9Im5vbmUiIGlkPSJTZWxlY3QgVXNlcnMtYmFja3RvLU5vdGlmeSBTZWN0aW9uYWwgSGVhZHMiIHN0eWxlPSJzdHJva2U6IzE4MTgxODtzdHJva2Utd2lkdGg6MS4wO3N0cm9rZS1kYXNoYXJyYXk6Ny4wLDcuMDsiLz48cG9seWdvbiBmaWxsPSIjMTgxODE4IiBwb2ludHM9IjE3NDAuMjIsODE5LjU0NDQsMTc0OC40NDUxLDgyNC45NjE3LDE3NDUuMTUyNyw4MjAuMzYxNywxNzQ5Ljc1MjgsODE3LjA2OTQsMTc0MC4yMiw4MTkuNTQ0NCIgc3R5bGU9InN0cm9rZTojMTgxODE4O3N0cm9rZS13aWR0aDoxLjA7Ii8+PHRleHQgZmlsbD0iIzAwMDAwMCIgZm9udC1mYW1pbHk9InNhbnMtc2VyaWYiIGZvbnQtc2l6ZT0iMTMiIGxlbmd0aEFkanVzdD0ic3BhY2luZyIgdGV4dExlbmd0aD0iNjIiIHg9IjE4NTkiIHk9IjgzOC4yNzM0Ij4mIzE3MTtleHRlbmRzJiMxODc7PC90ZXh0PjwvZz48IS0tbGluayBOb3RpZnkgUHJpbmNpcGFscyB0byBQUi0tPjxnIGlkPSJsaW5rX05vdGlmeSBQcmluY2lwYWxzX1BSIj48cGF0aCBkPSJNMjE1NC41OSwxMDc2Ljk4NDQgQzIxOTcuNTYsMTA3Ni45ODQ0IDIyNDguNTcsMTA3Ni45ODQ0IDIyODAuMzYsMTA3Ni45ODQ0ICIgZmlsbD0ibm9uZSIgaWQ9Ik5vdGlmeSBQcmluY2lwYWxzLVBSIiBzdHlsZT0ic3Ryb2tlOiMxODE4MTg7c3Ryb2tlLXdpZHRoOjEuMDsiLz48L2c+PCEtLWxpbmsgQSB0byBWaWV3IFVzZXIgSW5mb3JtYXRpb24gLS0+PGcgaWQ9ImxpbmtfQV9WaWV3IFVzZXIgSW5mb3JtYXRpb24gIj48cGF0aCBkPSJNOTIyLjI5LDExMDcuOTU0NCBDMTAwOS44NiwxMTY3Ljg0NDQgMTIwMC4yNiwxMjk4LjA0NDQgMTI3My45OSwxMzQ4LjQ2NDQgIiBmaWxsPSJub25lIiBpZD0iQS1WaWV3IFVzZXIgSW5mb3JtYXRpb24gIiBzdHlsZT0ic3Ryb2tlOiMxODE4MTg7c3Ryb2tlLXdpZHRoOjEuMDsiLz48dGV4dCBmaWxsPSIjMDAwMDAwIiBmb250LWZhbWlseT0ic2Fucy1zZXJpZiIgZm9udC1zaXplPSIxMyIgbGVuZ3RoQWRqdXN0PSJzcGFjaW5nIiB0ZXh0TGVuZ3RoPSIyMDEiIHg9Ijk1MyIgeT0iMTEyOC4yNzM0Ij5TaG93IG9wdGlvbiB0byBjcmVhdGUgaWYgZW1wdHk8L3RleHQ+PC9nPjwhLS1yZXZlcnNlIGxpbmsgVmlldyBVc2VyIEluZm9ybWF0aW9uICB0byBBZGQgVXNlci0tPjxnIGlkPSJsaW5rX1ZpZXcgVXNlciBJbmZvcm1hdGlvbiBfQWRkIFVzZXIiPjxwYXRoIGQ9Ik0xNDAwLjIyNzUsMTM2MC44MTU3IEMxNDc2LjQwNzUsMTM1NC4yMDU3IDE1NzcuNTksMTM0NS40MzQ0IDE2MzguNzQsMTM0MC4xMjQ0ICIgZmlsbD0ibm9uZSIgaWQ9IlZpZXcgVXNlciBJbmZvcm1hdGlvbiAtYmFja3RvLUFkZCBVc2VyIiBzdHlsZT0ic3Ryb2tlOiMxODE4MTg7c3Ryb2tlLXdpZHRoOjEuMDtzdHJva2UtZGFzaGFycmF5OjcuMCw3LjA7Ii8+PHBvbHlnb24gZmlsbD0iIzE4MTgxOCIgcG9pbnRzPSIxMzk0LjI1LDEzNjEuMzM0NCwxNDAzLjU2MjEsMTM2NC41NDE0LDEzOTkuMjMxMywxMzYwLjkwMjIsMTQwMi44NzA1LDEzNTYuNTcxNCwxMzk0LjI1LDEzNjEuMzM0NCIgc3R5bGU9InN0cm9rZTojMTgxODE4O3N0cm9rZS13aWR0aDoxLjA7Ii8+PHRleHQgZmlsbD0iIzAwMDAwMCIgZm9udC1mYW1pbHk9InNhbnMtc2VyaWYiIGZvbnQtc2l6ZT0iMTMiIGxlbmd0aEFkanVzdD0ic3BhY2luZyIgdGV4dExlbmd0aD0iNjIiIHg9IjE0NTQiIHk9IjEzNTAuMjczNCI+JiMxNzE7ZXh0ZW5kcyYjMTg3OzwvdGV4dD48L2c+PCEtLXJldmVyc2UgbGluayBWaWV3IFVzZXIgSW5mb3JtYXRpb24gIHRvIFVwZGF0ZSBVc2VyLS0+PGcgaWQ9ImxpbmtfVmlldyBVc2VyIEluZm9ybWF0aW9uIF9VcGRhdGUgVXNlciI+PHBhdGggZD0iTTEzNjIuMjM0NCwxMzg5LjI1OTQgQzE0MDQuNzU0NCwxNDA0LjU4OTQgMTQ1MywxNDIxLjk4NDQgMTQ1MywxNDIxLjk4NDQgQzE0NTMsMTQyMS45ODQ0IDE1NjkuNCwxNDQyLjQyNDQgMTYzNy44MywxNDU0LjQzNDQgIiBmaWxsPSJub25lIiBpZD0iVmlldyBVc2VyIEluZm9ybWF0aW9uIC1iYWNrdG8tVXBkYXRlIFVzZXIiIHN0eWxlPSJzdHJva2U6IzE4MTgxODtzdHJva2Utd2lkdGg6MS4wO3N0cm9rZS1kYXNoYXJyYXk6Ny4wLDcuMDsiLz48cG9seWdvbiBmaWxsPSIjMTgxODE4IiBwb2ludHM9IjEzNTYuNTksMTM4Ny4yMjQ0LDEzNjMuNjk5OSwxMzk0LjAzOTgsMTM2MS4yOTM2LDEzODguOTIwMiwxMzY2LjQxMzIsMTM4Ni41MTQsMTM1Ni41OSwxMzg3LjIyNDQiIHN0eWxlPSJzdHJva2U6IzE4MTgxODtzdHJva2Utd2lkdGg6MS4wOyIvPjx0ZXh0IGZpbGw9IiMwMDAwMDAiIGZvbnQtZmFtaWx5PSJzYW5zLXNlcmlmIiBmb250LXNpemU9IjEzIiBsZW5ndGhBZGp1c3Q9InNwYWNpbmciIHRleHRMZW5ndGg9IjYyIiB4PSIxNDU0IiB5PSIxNDIwLjI3MzQiPiYjMTcxO2V4dGVuZHMmIzE4Nzs8L3RleHQ+PC9nPjwhLS1yZXZlcnNlIGxpbmsgVmlldyBVc2VyIEluZm9ybWF0aW9uICB0byBEZWxldGUgVXNlci0tPjxnIGlkPSJsaW5rX1ZpZXcgVXNlciBJbmZvcm1hdGlvbiBfRGVsZXRlIFVzZXIiPjxwYXRoIGQ9Ik0xMzgzLjIzNjgsMTM4NC4yMjQ0IEMxNDIwLjY4NjgsMTM5MS42MDQ0IDE0NTMsMTM5Ny45ODQ0IDE0NTMsMTM5Ny45ODQ0IEMxNDUzLDEzOTcuOTg0NCAxNTU3LjE4LDEzOTguNDM0NCAxNjI2LjM3LDEzOTguNzI0NCAiIGZpbGw9Im5vbmUiIGlkPSJWaWV3IFVzZXIgSW5mb3JtYXRpb24gLWJhY2t0by1EZWxldGUgVXNlciIgc3R5bGU9InN0cm9rZTojMTgxODE4O3N0cm9rZS13aWR0aDoxLjA7c3Ryb2tlLWRhc2hhcnJheTo3LjAsNy4wOyIvPjxwb2x5Z29uIGZpbGw9IiMxODE4MTgiIHBvaW50cz0iMTM3Ny4zNSwxMzgzLjA2NDQsMTM4NS40MDY4LDEzODguNzI5LDEzODIuMjU1NywxMzg0LjAzMTEsMTM4Ni45NTM2LDEzODAuODgsMTM3Ny4zNSwxMzgzLjA2NDQiIHN0eWxlPSJzdHJva2U6IzE4MTgxODtzdHJva2Utd2lkdGg6MS4wOyIvPjx0ZXh0IGZpbGw9IiMwMDAwMDAiIGZvbnQtZmFtaWx5PSJzYW5zLXNlcmlmIiBmb250LXNpemU9IjEzIiBsZW5ndGhBZGp1c3Q9InNwYWNpbmciIHRleHRMZW5ndGg9IjYyIiB4PSIxNDU0IiB5PSIxMzk2LjI3MzQiPiYjMTcxO2V4dGVuZHMmIzE4Nzs8L3RleHQ+PC9nPjwhLS1saW5rIEFkZCBVc2VyIHRvIFVwZGF0ZSBVc2VyIExvZ3MtLT48ZyBpZD0ibGlua19BZGQgVXNlcl9VcGRhdGUgVXNlciBMb2dzIj48cGF0aCBkPSJNMTczMS4zNCwxMzQyLjk2NDQgQzE4MDAuMDMsMTM1NC4xNjQ0IDE5MjkuMTU4MiwxMzc1LjIwODcgMjAwNy45NTgyLDEzODguMDU4NyAiIGZpbGw9Im5vbmUiIGlkPSJBZGQgVXNlci10by1VcGRhdGUgVXNlciBMb2dzIiBzdHlsZT0ic3Ryb2tlOiMxODE4MTg7c3Ryb2tlLXdpZHRoOjEuMDtzdHJva2UtZGFzaGFycmF5OjcuMCw3LjA7Ii8+PHBvbHlnb24gZmlsbD0iIzE4MTgxOCIgcG9pbnRzPSIyMDEzLjg4LDEzODkuMDI0NCwyMDA1LjY0MTEsMTM4My42MjgsMjAwOC45NDUyLDEzODguMjE5NiwyMDA0LjM1MzUsMTM5MS41MjM3LDIwMTMuODgsMTM4OS4wMjQ0IiBzdHlsZT0ic3Ryb2tlOiMxODE4MTg7c3Ryb2tlLXdpZHRoOjEuMDsiLz48dGV4dCBmaWxsPSIjMDAwMDAwIiBmb250LWZhbWlseT0ic2Fucy1zZXJpZiIgZm9udC1zaXplPSIxMyIgbGVuZ3RoQWRqdXN0PSJzcGFjaW5nIiB0ZXh0TGVuZ3RoPSI2MSIgeD0iMTg1OS41IiB5PSIxMzYyLjI3MzQiPiYjMTcxO2luY2x1ZGUmIzE4Nzs8L3RleHQ+PC9nPjwhLS1saW5rIFVwZGF0ZSBVc2VyIHRvIFVwZGF0ZSBVc2VyIExvZ3MtLT48ZyBpZD0ibGlua19VcGRhdGUgVXNlcl9VcGRhdGUgVXNlciBMb2dzIj48cGF0aCBkPSJNMTczOC4yNCwxNDU0Ljc0NDQgQzE4MDguNzgsMTQ0My4wNjQ0IDE5MzEuODUwNiwxNDIyLjY4NDMgMjAwOC4wODA2LDE0MTAuMDY0MyAiIGZpbGw9Im5vbmUiIGlkPSJVcGRhdGUgVXNlci10by1VcGRhdGUgVXNlciBMb2dzIiBzdHlsZT0ic3Ryb2tlOiMxODE4MTg7c3Ryb2tlLXdpZHRoOjEuMDtzdHJva2UtZGFzaGFycmF5OjcuMCw3LjA7Ii8+PHBvbHlnb24gZmlsbD0iIzE4MTgxOCIgcG9pbnRzPSIyMDE0LDE0MDkuMDg0NCwyMDA0LjQ2NzUsMTQwNi42MDgsMjAwOS4wNjcxLDE0MDkuOTAxLDIwMDUuNzc0MiwxNDE0LjUwMDYsMjAxNCwxNDA5LjA4NDQiIHN0eWxlPSJzdHJva2U6IzE4MTgxODtzdHJva2Utd2lkdGg6MS4wOyIvPjx0ZXh0IGZpbGw9IiMwMDAwMDAiIGZvbnQtZmFtaWx5PSJzYW5zLXNlcmlmIiBmb250LXNpemU9IjEzIiBsZW5ndGhBZGp1c3Q9InNwYWNpbmciIHRleHRMZW5ndGg9IjYxIiB4PSIxODU5LjUiIHk9IjE0MjQuMjczNCI+JiMxNzE7aW5jbHVkZSYjMTg3OzwvdGV4dD48L2c+PCEtLWxpbmsgRGVsZXRlIFVzZXIgdG8gVXBkYXRlIFVzZXIgTG9ncy0tPjxnIGlkPSJsaW5rX0RlbGV0ZSBVc2VyX1VwZGF0ZSBVc2VyIExvZ3MiPjxwYXRoIGQ9Ik0xNzQ4Ljg5LDEzOTguOTg0NCBDMTgxNi44MywxMzk4Ljk4NDQgMTkyMS4yMywxMzk4Ljk4NDQgMTk5NC40OCwxMzk4Ljk4NDQgIiBmaWxsPSJub25lIiBpZD0iRGVsZXRlIFVzZXItdG8tVXBkYXRlIFVzZXIgTG9ncyIgc3R5bGU9InN0cm9rZTojMTgxODE4O3N0cm9rZS13aWR0aDoxLjA7c3Ryb2tlLWRhc2hhcnJheTo3LjAsNy4wOyIvPjxwb2x5Z29uIGZpbGw9IiMxODE4MTgiIHBvaW50cz0iMjAwMC40OCwxMzk4Ljk4NDQsMTk5MS40OCwxMzk0Ljk4NDQsMTk5NS40OCwxMzk4Ljk4NDQsMTk5MS40OCwxNDAyLjk4NDQsMjAwMC40OCwxMzk4Ljk4NDQiIHN0eWxlPSJzdHJva2U6IzE4MTgxODtzdHJva2Utd2lkdGg6MS4wOyIvPjx0ZXh0IGZpbGw9IiMwMDAwMDAiIGZvbnQtZmFtaWx5PSJzYW5zLXNlcmlmIiBmb250LXNpemU9IjEzIiBsZW5ndGhBZGp1c3Q9InNwYWNpbmciIHRleHRMZW5ndGg9IjYxIiB4PSIxODU5LjUiIHk9IjEzOTcuMjczNCI+JiMxNzE7aW5jbHVkZSYjMTg3OzwvdGV4dD48L2c+PCEtLWxpbmsgQSB0byBWaWV3IFN5c3RlbSBNb25pdG9yLS0+PGcgaWQ9ImxpbmtfQV9WaWV3IFN5c3RlbSBNb25pdG9yIj48cGF0aCBkPSJNOTIyLjI5LDEwNzYuOTg0NCBDOTkyLjgsMTA3Ni45ODQ0IDExMjkuOTYsMTA3Ni45ODQ0IDEyMTkuMjIsMTA3Ni45ODQ0ICIgZmlsbD0ibm9uZSIgaWQ9IkEtVmlldyBTeXN0ZW0gTW9uaXRvciIgc3R5bGU9InN0cm9rZTojMTgxODE4O3N0cm9rZS13aWR0aDoxLjA7Ii8+PHRleHQgZmlsbD0iIzAwMDAwMCIgZm9udC1mYW1pbHk9InNhbnMtc2VyaWYiIGZvbnQtc2l6ZT0iMTMiIGxlbmd0aEFkanVzdD0ic3BhY2luZyIgdGV4dExlbmd0aD0iMjAxIiB4PSI5NTMiIHk9IjEwNzUuMjczNCI+U2hvdyBvcHRpb24gdG8gY3JlYXRlIGlmIGVtcHR5PC90ZXh0PjwvZz48IS0tcmV2ZXJzZSBsaW5rIFZpZXcgU3lzdGVtIE1vbml0b3IgdG8gR2VuZXJhdGUgVXNlciBFbmdhZ2VtZW50IFJlcG9ydHMtLT48ZyBpZD0ibGlua19WaWV3IFN5c3RlbSBNb25pdG9yX0dlbmVyYXRlIFVzZXIgRW5nYWdlbWVudCBSZXBvcnRzIj48cGF0aCBkPSJNMTM0Mi4xNzAxLDEwNTUuNTIyNyBDMTQwNy4yNjAxLDEwMTYuOTAyNyAxNTQ3LDkzMy45ODQ0IDE1NDcsOTMzLjk4NDQgQzE1NDcsOTMzLjk4NDQgMTU4MC41Myw5MjMuMTc0NCAxNjE0LjcxLDkxMi4xNDQ0ICIgZmlsbD0ibm9uZSIgaWQ9IlZpZXcgU3lzdGVtIE1vbml0b3ItYmFja3RvLUdlbmVyYXRlIFVzZXIgRW5nYWdlbWVudCBSZXBvcnRzIiBzdHlsZT0ic3Ryb2tlOiMxODE4MTg7c3Ryb2tlLXdpZHRoOjEuMDtzdHJva2UtZGFzaGFycmF5OjcuMCw3LjA7Ii8+PHBvbHlnb24gZmlsbD0iIzE4MTgxOCIgcG9pbnRzPSIxMzM3LjAxLDEwNTguNTg0NCwxMzQ2Ljc5MTIsMTA1Ny40MzIsMTM0MS4zMTAxLDEwNTYuMDMzLDEzNDIuNzA5LDEwNTAuNTUxOSwxMzM3LjAxLDEwNTguNTg0NCIgc3R5bGU9InN0cm9rZTojMTgxODE4O3N0cm9rZS13aWR0aDoxLjA7Ii8+PHRleHQgZmlsbD0iIzAwMDAwMCIgZm9udC1mYW1pbHk9InNhbnMtc2VyaWYiIGZvbnQtc2l6ZT0iMTMiIGxlbmd0aEFkanVzdD0ic3BhY2luZyIgdGV4dExlbmd0aD0iNjIiIHg9IjE0NTQiIHk9Ijk1My4yNzM0Ij4mIzE3MTtleHRlbmRzJiMxODc7PC90ZXh0PjwvZz48IS0tcmV2ZXJzZSBsaW5rIFZpZXcgU3lzdGVtIE1vbml0b3IgdG8gR2VuZXJhdGUgUGVyZm9ybWFuY2UgUmVwb3J0cy0tPjxnIGlkPSJsaW5rX1ZpZXcgU3lzdGVtIE1vbml0b3JfR2VuZXJhdGUgUGVyZm9ybWFuY2UgUmVwb3J0cyI+PHBhdGggZD0iTTEzNDIuMTc5MSwxMDk4LjMwMDcgQzE0MDcuMjY5MSwxMTM2LjY2MDcgMTU0NywxMjE4Ljk4NDQgMTU0NywxMjE4Ljk4NDQgQzE1NDcsMTIxOC45ODQ0IDE1ODQuMzcsMTIzMC41MDQ0IDE2MjAuNDMsMTI0MS42MTQ0ICIgZmlsbD0ibm9uZSIgaWQ9IlZpZXcgU3lzdGVtIE1vbml0b3ItYmFja3RvLUdlbmVyYXRlIFBlcmZvcm1hbmNlIFJlcG9ydHMiIHN0eWxlPSJzdHJva2U6IzE4MTgxODtzdHJva2Utd2lkdGg6MS4wO3N0cm9rZS1kYXNoYXJyYXk6Ny4wLDcuMDsiLz48cG9seWdvbiBmaWxsPSIjMTgxODE4IiBwb2ludHM9IjEzMzcuMDEsMTA5NS4yNTQ0LDEzNDIuNzMyOCwxMTAzLjI3LDEzNDEuMzE3NiwxMDk3Ljc5MywxMzQ2Ljc5NDYsMTA5Ni4zNzc4LDEzMzcuMDEsMTA5NS4yNTQ0IiBzdHlsZT0ic3Ryb2tlOiMxODE4MTg7c3Ryb2tlLXdpZHRoOjEuMDsiLz48dGV4dCBmaWxsPSIjMDAwMDAwIiBmb250LWZhbWlseT0ic2Fucy1zZXJpZiIgZm9udC1zaXplPSIxMyIgbGVuZ3RoQWRqdXN0PSJzcGFjaW5nIiB0ZXh0TGVuZ3RoPSI2MiIgeD0iMTQ1NCIgeT0iMTE2My4yNzM0Ij4mIzE3MTtleHRlbmRzJiMxODc7PC90ZXh0PjwvZz48IS0tcmV2ZXJzZSBsaW5rIFZpZXcgU3lzdGVtIE1vbml0b3IgdG8gR2VuZXJhdGUgU3lzdGVtIFV0aWxpemF0aW9uIFJlcG9ydHMtLT48ZyBpZD0ibGlua19WaWV3IFN5c3RlbSBNb25pdG9yX0dlbmVyYXRlIFN5c3RlbSBVdGlsaXphdGlvbiBSZXBvcnRzIj48cGF0aCBkPSJNMTM2OS4yMDEzLDEwOTIuNzY3OCBDMTQzMC45NjEzLDExMDguMTg3OCAxNTI0LjIyLDExMzEuNDY0NCAxNTk2LjQsMTE0OS40OTQ0ICIgZmlsbD0ibm9uZSIgaWQ9IlZpZXcgU3lzdGVtIE1vbml0b3ItYmFja3RvLUdlbmVyYXRlIFN5c3RlbSBVdGlsaXphdGlvbiBSZXBvcnRzIiBzdHlsZT0ic3Ryb2tlOiMxODE4MTg7c3Ryb2tlLXdpZHRoOjEuMDtzdHJva2UtZGFzaGFycmF5OjcuMCw3LjA7Ii8+PHBvbHlnb24gZmlsbD0iIzE4MTgxOCIgcG9pbnRzPSIxMzYzLjM4LDEwOTEuMzE0NCwxMzcxLjE0MywxMDk3LjM3NTQsMTM2OC4yMzExLDEwOTIuNTI1NiwxMzczLjA4MDksMTA4OS42MTM3LDEzNjMuMzgsMTA5MS4zMTQ0IiBzdHlsZT0ic3Ryb2tlOiMxODE4MTg7c3Ryb2tlLXdpZHRoOjEuMDsiLz48dGV4dCBmaWxsPSIjMDAwMDAwIiBmb250LWZhbWlseT0ic2Fucy1zZXJpZiIgZm9udC1zaXplPSIxMyIgbGVuZ3RoQWRqdXN0PSJzcGFjaW5nIiB0ZXh0TGVuZ3RoPSI2MiIgeD0iMTQ1NCIgeT0iMTExNC4yNzM0Ij4mIzE3MTtleHRlbmRzJiMxODc7PC90ZXh0PjwvZz48IS0tcmV2ZXJzZSBsaW5rIFZpZXcgU3lzdGVtIE1vbml0b3IgdG8gR2VuZXJhdGUgQ29udGVudCBQb3B1bGFyaXR5IFJlcG9ydHMtLT48ZyBpZD0ibGlua19WaWV3IFN5c3RlbSBNb25pdG9yX0dlbmVyYXRlIENvbnRlbnQgUG9wdWxhcml0eSBSZXBvcnRzIj48cGF0aCBkPSJNMTM5Ni45MiwxMDc2Ljk4NDQgQzE0NDMuNzksMTA3Ni45ODQ0IDE0OTcuMTIsMTA3Ni45ODQ0IDE1NTAuMywxMDc2Ljk4NDQgIiBmaWxsPSJub25lIiBpZD0iVmlldyBTeXN0ZW0gTW9uaXRvci1iYWNrdG8tR2VuZXJhdGUgQ29udGVudCBQb3B1bGFyaXR5IFJlcG9ydHMiIHN0eWxlPSJzdHJva2U6IzE4MTgxODtzdHJva2Utd2lkdGg6MS4wO3N0cm9rZS1kYXNoYXJyYXk6Ny4wLDcuMDsiLz48cG9seWdvbiBmaWxsPSIjMTgxODE4IiBwb2ludHM9IjEzOTAuOTIsMTA3Ni45ODQ0LDEzOTkuOTIsMTA4MC45ODQ0LDEzOTUuOTIsMTA3Ni45ODQ0LDEzOTkuOTIsMTA3Mi45ODQ0LDEzOTAuOTIsMTA3Ni45ODQ0IiBzdHlsZT0ic3Ryb2tlOiMxODE4MTg7c3Ryb2tlLXdpZHRoOjEuMDsiLz48dGV4dCBmaWxsPSIjMDAwMDAwIiBmb250LWZhbWlseT0ic2Fucy1zZXJpZiIgZm9udC1zaXplPSIxMyIgbGVuZ3RoQWRqdXN0PSJzcGFjaW5nIiB0ZXh0TGVuZ3RoPSI2MiIgeD0iMTQ1NCIgeT0iMTA3NS4yNzM0Ij4mIzE3MTtleHRlbmRzJiMxODc7PC90ZXh0PjwvZz48IS0tcmV2ZXJzZSBsaW5rIFZpZXcgU3lzdGVtIE1vbml0b3IgdG8gR2VuZXJhdGUgTW9udGhseSBBdHRlbmRhbmNlIFJlcG9ydHMtLT48ZyBpZD0ibGlua19WaWV3IFN5c3RlbSBNb25pdG9yX0dlbmVyYXRlIE1vbnRobHkgQXR0ZW5kYW5jZSBSZXBvcnRzIj48cGF0aCBkPSJNMTM2OS4yMDEzLDEwNjEuMjAwOSBDMTQzMC45NjEzLDEwNDUuNzgwOSAxNTI0LjIyLDEwMjIuNTA0NCAxNTk2LjQsMTAwNC40NzQ0ICIgZmlsbD0ibm9uZSIgaWQ9IlZpZXcgU3lzdGVtIE1vbml0b3ItYmFja3RvLUdlbmVyYXRlIE1vbnRobHkgQXR0ZW5kYW5jZSBSZXBvcnRzIiBzdHlsZT0ic3Ryb2tlOiMxODE4MTg7c3Ryb2tlLXdpZHRoOjEuMDtzdHJva2UtZGFzaGFycmF5OjcuMCw3LjA7Ii8+PHBvbHlnb24gZmlsbD0iIzE4MTgxOCIgcG9pbnRzPSIxMzYzLjM4LDEwNjIuNjU0NCwxMzczLjA4MDksMTA2NC4zNTUxLDEzNjguMjMxMSwxMDYxLjQ0MzIsMTM3MS4xNDMsMTA1Ni41OTM0LDEzNjMuMzgsMTA2Mi42NTQ0IiBzdHlsZT0ic3Ryb2tlOiMxODE4MTg7c3Ryb2tlLXdpZHRoOjEuMDsiLz48dGV4dCBmaWxsPSIjMDAwMDAwIiBmb250LWZhbWlseT0ic2Fucy1zZXJpZiIgZm9udC1zaXplPSIxMyIgbGVuZ3RoQWRqdXN0PSJzcGFjaW5nIiB0ZXh0TGVuZ3RoPSI2MiIgeD0iMTQ1NCIgeT0iMTAyNS4yNzM0Ij4mIzE3MTtleHRlbmRzJiMxODc7PC90ZXh0PjwvZz48IS0tbGluayBHZW5lcmF0ZSBVc2VyIEVuZ2FnZW1lbnQgUmVwb3J0cyB0byBOb3RpZnkgUHJpbmNpcGFscy0tPjxnIGlkPSJsaW5rX0dlbmVyYXRlIFVzZXIgRW5nYWdlbWVudCBSZXBvcnRzX05vdGlmeSBQcmluY2lwYWxzIj48cGF0aCBkPSJNMTc2MC4yOSw5MTIuMTQ0NCBDMTc5NC40Nyw5MjMuMTc0NCAxODI4LDkzMy45ODQ0IDE4MjgsOTMzLjk4NDQgQzE4MjgsOTMzLjk4NDQgMTk3NS44Mzc4LDEwMTkuNTY3NSAyMDQwLjk4NzgsMTA1Ny4yOTc1ICIgZmlsbD0ibm9uZSIgaWQ9IkdlbmVyYXRlIFVzZXIgRW5nYWdlbWVudCBSZXBvcnRzLXRvLU5vdGlmeSBQcmluY2lwYWxzIiBzdHlsZT0ic3Ryb2tlOiMxODE4MTg7c3Ryb2tlLXdpZHRoOjEuMDtzdHJva2UtZGFzaGFycmF5OjcuMCw3LjA7Ii8+PHBvbHlnb24gZmlsbD0iIzE4MTgxOCIgcG9pbnRzPSIyMDQ2LjE4LDEwNjAuMzA0NCwyMDQwLjM5NjQsMTA1Mi4zMzI2LDIwNDEuODUzMiwxMDU3Ljc5ODYsMjAzNi4zODcyLDEwNTkuMjU1NSwyMDQ2LjE4LDEwNjAuMzA0NCIgc3R5bGU9InN0cm9rZTojMTgxODE4O3N0cm9rZS13aWR0aDoxLjA7Ii8+PHRleHQgZmlsbD0iIzAwMDAwMCIgZm9udC1mYW1pbHk9InNhbnMtc2VyaWYiIGZvbnQtc2l6ZT0iMTMiIGxlbmd0aEFkanVzdD0ic3BhY2luZyIgdGV4dExlbmd0aD0iNjEiIHg9IjE4NTkuNSIgeT0iOTUwLjI3MzQiPiYjMTcxO2luY2x1ZGUmIzE4Nzs8L3RleHQ+PC9nPjwhLS1saW5rIEdlbmVyYXRlIFBlcmZvcm1hbmNlIFJlcG9ydHMgdG8gTm90aWZ5IFByaW5jaXBhbHMtLT48ZyBpZD0ibGlua19HZW5lcmF0ZSBQZXJmb3JtYW5jZSBSZXBvcnRzX05vdGlmeSBQcmluY2lwYWxzIj48cGF0aCBkPSJNMTc1NC41NywxMjQxLjYxNDQgQzE3OTAuNjMsMTIzMC41MDQ0IDE4MjgsMTIxOC45ODQ0IDE4MjgsMTIxOC45ODQ0IEMxODI4LDEyMTguOTg0NCAxOTc1LjA2ODEsMTEzNC40MzQ1IDIwNDAuNDk4MSwxMDk2LjgyNDUgIiBmaWxsPSJub25lIiBpZD0iR2VuZXJhdGUgUGVyZm9ybWFuY2UgUmVwb3J0cy10by1Ob3RpZnkgUHJpbmNpcGFscyIgc3R5bGU9InN0cm9rZTojMTgxODE4O3N0cm9rZS13aWR0aDoxLjA7c3Ryb2tlLWRhc2hhcnJheTo3LjAsNy4wOyIvPjxwb2x5Z29uIGZpbGw9IiMxODE4MTgiIHBvaW50cz0iMjA0NS43LDEwOTMuODM0NCwyMDM1LjkwMzgsMTA5NC44NTE2LDIwNDEuMzY1MSwxMDk2LjMyNjEsMjAzOS44OTA2LDExMDEuNzg3NCwyMDQ1LjcsMTA5My44MzQ0IiBzdHlsZT0ic3Ryb2tlOiMxODE4MTg7c3Ryb2tlLXdpZHRoOjEuMDsiLz48dGV4dCBmaWxsPSIjMDAwMDAwIiBmb250LWZhbWlseT0ic2Fucy1zZXJpZiIgZm9udC1zaXplPSIxMyIgbGVuZ3RoQWRqdXN0PSJzcGFjaW5nIiB0ZXh0TGVuZ3RoPSI2MSIgeD0iMTg1OS41IiB5PSIxMTY4LjI3MzQiPiYjMTcxO2luY2x1ZGUmIzE4Nzs8L3RleHQ+PC9nPjwhLS1saW5rIEdlbmVyYXRlIFN5c3RlbSBVdGlsaXphdGlvbiBSZXBvcnRzIHRvIE5vdGlmeSBQcmluY2lwYWxzLS0+PGcgaWQ9ImxpbmtfR2VuZXJhdGUgU3lzdGVtIFV0aWxpemF0aW9uIFJlcG9ydHNfTm90aWZ5IFByaW5jaXBhbHMiPjxwYXRoIGQ9Ik0xNzc5LjYxLDExNDkuNTk0NCBDMTg1NC45MywxMTMxLjA3NDQgMTk1My40NzM1LDExMDYuODU2NyAyMDE1Ljg3MzUsMTA5MS41MTY3ICIgZmlsbD0ibm9uZSIgaWQ9IkdlbmVyYXRlIFN5c3RlbSBVdGlsaXphdGlvbiBSZXBvcnRzLXRvLU5vdGlmeSBQcmluY2lwYWxzIiBzdHlsZT0ic3Ryb2tlOiMxODE4MTg7c3Ryb2tlLXdpZHRoOjEuMDtzdHJva2UtZGFzaGFycmF5OjcuMCw3LjA7Ii8+PHBvbHlnb24gZmlsbD0iIzE4MTgxOCIgcG9pbnRzPSIyMDIxLjcsMTA5MC4wODQ0LDIwMTIuMDA1MywxMDg4LjM0ODYsMjAxNi44NDQ2LDEwOTEuMjc4LDIwMTMuOTE1MSwxMDk2LjExNzMsMjAyMS43LDEwOTAuMDg0NCIgc3R5bGU9InN0cm9rZTojMTgxODE4O3N0cm9rZS13aWR0aDoxLjA7Ii8+PHRleHQgZmlsbD0iIzAwMDAwMCIgZm9udC1mYW1pbHk9InNhbnMtc2VyaWYiIGZvbnQtc2l6ZT0iMTMiIGxlbmd0aEFkanVzdD0ic3BhY2luZyIgdGV4dExlbmd0aD0iNjEiIHg9IjE4NTkuNSIgeT0iMTExNC4yNzM0Ij4mIzE3MTtpbmNsdWRlJiMxODc7PC90ZXh0PjwvZz48IS0tbGluayBHZW5lcmF0ZSBDb250ZW50IFBvcHVsYXJpdHkgUmVwb3J0cyB0byBOb3RpZnkgUHJpbmNpcGFscy0tPjxnIGlkPSJsaW5rX0dlbmVyYXRlIENvbnRlbnQgUG9wdWxhcml0eSBSZXBvcnRzX05vdGlmeSBQcmluY2lwYWxzIj48cGF0aCBkPSJNMTgyNC43NywxMDc2Ljk4NDQgQzE4ODIuNTgsMTA3Ni45ODQ0IDE5NDEuODYsMTA3Ni45ODQ0IDE5OTEuMjUsMTA3Ni45ODQ0ICIgZmlsbD0ibm9uZSIgaWQ9IkdlbmVyYXRlIENvbnRlbnQgUG9wdWxhcml0eSBSZXBvcnRzLXRvLU5vdGlmeSBQcmluY2lwYWxzIiBzdHlsZT0ic3Ryb2tlOiMxODE4MTg7c3Ryb2tlLXdpZHRoOjEuMDtzdHJva2UtZGFzaGFycmF5OjcuMCw3LjA7Ii8+PHBvbHlnb24gZmlsbD0iIzE4MTgxOCIgcG9pbnRzPSIxOTk3LjI1LDEwNzYuOTg0NCwxOTg4LjI1LDEwNzIuOTg0NCwxOTkyLjI1LDEwNzYuOTg0NCwxOTg4LjI1LDEwODAuOTg0NCwxOTk3LjI1LDEwNzYuOTg0NCIgc3R5bGU9InN0cm9rZTojMTgxODE4O3N0cm9rZS13aWR0aDoxLjA7Ii8+PHRleHQgZmlsbD0iIzAwMDAwMCIgZm9udC1mYW1pbHk9InNhbnMtc2VyaWYiIGZvbnQtc2l6ZT0iMTMiIGxlbmd0aEFkanVzdD0ic3BhY2luZyIgdGV4dExlbmd0aD0iNjEiIHg9IjE4NTkuNSIgeT0iMTA3NS4yNzM0Ij4mIzE3MTtpbmNsdWRlJiMxODc7PC90ZXh0PjwvZz48IS0tbGluayBHZW5lcmF0ZSBNb250aGx5IEF0dGVuZGFuY2UgUmVwb3J0cyB0byBOb3RpZnkgUHJpbmNpcGFscy0tPjxnIGlkPSJsaW5rX0dlbmVyYXRlIE1vbnRobHkgQXR0ZW5kYW5jZSBSZXBvcnRzX05vdGlmeSBQcmluY2lwYWxzIj48cGF0aCBkPSJNMTc3OS42MSwxMDA0LjM3NDQgQzE4NTQuOTMsMTAyMi44OTQ0IDE5NTMuNDczNSwxMDQ3LjExMiAyMDE1Ljg3MzUsMTA2Mi40NTIgIiBmaWxsPSJub25lIiBpZD0iR2VuZXJhdGUgTW9udGhseSBBdHRlbmRhbmNlIFJlcG9ydHMtdG8tTm90aWZ5IFByaW5jaXBhbHMiIHN0eWxlPSJzdHJva2U6IzE4MTgxODtzdHJva2Utd2lkdGg6MS4wO3N0cm9rZS1kYXNoYXJyYXk6Ny4wLDcuMDsiLz48cG9seWdvbiBmaWxsPSIjMTgxODE4IiBwb2ludHM9IjIwMjEuNywxMDYzLjg4NDQsMjAxMy45MTUxLDEwNTcuODUxNSwyMDE2Ljg0NDYsMTA2Mi42OTA3LDIwMTIuMDA1MywxMDY1LjYyMDIsMjAyMS43LDEwNjMuODg0NCIgc3R5bGU9InN0cm9rZTojMTgxODE4O3N0cm9rZS13aWR0aDoxLjA7Ii8+PHRleHQgZmlsbD0iIzAwMDAwMCIgZm9udC1mYW1pbHk9InNhbnMtc2VyaWYiIGZvbnQtc2l6ZT0iMTMiIGxlbmd0aEFkanVzdD0ic3BhY2luZyIgdGV4dExlbmd0aD0iNjEiIHg9IjE4NTkuNSIgeT0iMTAyMi4yNzM0Ij4mIzE3MTtpbmNsdWRlJiMxODc7PC90ZXh0PjwvZz48IS0tU1JDPVtoTGRUUmtDZTVCeHRLbnBiZ2RGSEZpMmVnZkpEVDJPaFJMUEhheW16aktjMjFlRTVvU3ZhVnp2ekNMMFJzdTBURXhzODRaWHk3Q3Z0X2cySUk4ZlhidnV2ZngxMTM5cm1aZmM0dFJNS0U4VDdzMGZVeTE5ZFMyV25oOTN3LTRCR0lRMHlJSVctSWYwUzEzY1Q5TUg0dTVHSXBmQm8xczQ1S1k5MDJTRm9NYzBlRUJyTUZ2ODRmUDhCTTJXcWlHMUttZzRfeWxPbmo5RU5KMmNaSHRWVW1MZnFacjV3alcxeHhzMjNRakg0NURPT1BHUGQ3UHNpYnN1NU9JYWY0REtKc3kxbUJSeENTaTk4QUdMSUZfTlNDYWFFeUZwbHV3Q3daX3NvSl9Qc1A5dGlya1JoRGpjUUJxZy1pWWZZOXlOSThhSkowbHY5bUZ1VEcycnhVNktJMnYxZDM0aWZDU2lHSW5MbllEM2hmcmVvOVdIRkpvX215MXFCU2htZ3ZXYXhtTFZyV0tNWFpZZV9tTVR1VmJQZGZlZ0FidlM2Q1JuMHVuc0EzNGJTVVBBMEZfWWYyekN2V3Y4V3A1N05fQlFROEtmZ2hCMHdSUWE5RWRtZC1BVUhMTjVtOTFHeC1sSmR1RmRmZ1JyM0ZMRmpXZHpMTFl2VDNSc280X0hTeUpvX0M5QVlvZGFUN1RsWkhoLVRLVzhzazJvTDR2TDFwSmZJcV9aWjV6YWNpMWVtTTJsRVphSmFHVXhnLVBqc1ZsWUpJLUUxTTJZamJIZWdjeklwa3VSSnItbllaQThZX05Uc3YyQXQ5bGdpbWtwQ1ZtOGxnanpMVWFpNWhsT2NIeTF2OFEtQlpXUzRhT29uQi15dmFSMGlJc05BQWNKMzVYLTFmYUtZTTB2emRkclRJcVJFeG0tYnRpdWMzZ2pYbExUUExrUlE4RjZaM0JCWnNseU5vaWt2Ymt6WkQ1UklhbUVzN2JlRlJ4WXlLM2EyZmY3SzJDa1llNVRHazZleXZTOE1uampuTGVZYzVyaFB1RGpzNklSUlNjZWhldGlZcTM2V29jSE5EaTFfTUJ2SXBZVE9JLXVSU2xzQXRDb2w3eU9PbmdtQ1JIR3NTV0pwMndSdXRmWlZDQ0YyclRJZmo2LXV1NkI4a014MXRjQVhYVXVBX2llNGZyR3Q2bTVDOXNWN003NnBKelo2ZGpHSnZNS293WVhjeGVWa3ZNTy1sOC1UR1RIMFRqdUZMYVV1TnRkaTFGQlMtbFcxenZoVGVUWHM0aUFPVWtqOVZhckxCNlZhbFhRQXJnZWdpUTVEZWM1dlFvX0dUUEpjdGYxRHcybzJRM3VocHk0QnNzU0tBZW84WmR1amRESXhIRTlYUEZWWUd0MEF6YUc0b3lXQzFFcVhpR3dndnZuc2luUDVGWkR4QU15VlVIZjYtejNKQzNwN2xXYmVSOVVjVXctenF3RzUteXNFZEJxVHNOVUhVaHZmcURUazdhRjd1X21NaFd6WUVrR2lpdkNSZEJ6aE5VQVRJVzJkaGRGcGVUdm1wbHlRMlVNdE1GcnNERFRnMEkwdEctbjloWnhHRXlMM3Z1czFNVkZUMXlvNkswSWl2dWRqdnBSWmFETHhjLUZRVktWSENUTHB2TlhrYzBGWFR1b1I4N29hVUc3WWZuWFVGdjNVUldRZTRSUlFwdHlKNzZLZkFiTnpQdW5WTDNUaEFkUXBLS1oyeEJQSlFnSm91dGFjYkZ0UUtqZ3Rza3l3bUpVaHFCZ1VkbXR1UFZzWVFybm93dFphaWxDbUUzRk1GSFhyV2NtVURxRm42NWhqbDlURDB4My11V0RlbnNSdVFOS205Z1NpUlVhclFnY0ZFRmxWWkdyZEg3OG45S0R0MERmdFBndEJBcGp6bERBRmt1bjc4TS1fc3FWWHhFbjE0YWgtRGlKVjBOTjVjVElOTkx2U0ExOTROay0xZ2VSYk1SS3RtcXlkZFdqb2EwZXQtUmRIRmRKWjNiX2E5dTM1UTlZQTZJRFhBY1FDV2Q2T19fcUZdLS0+PC9nPjwvc3ZnPg==;" vertex="1" parent="1">
            <mxGeometry x="-3308" y="-2338" width="1647.16" height="1988" as="geometry" />
          </mxCell>
        </UserObject>
      </root>
    </mxGraphModel>
  </diagram>
</mxfile>
